<svg id="wifi_copy" data-name="wifi copy" xmlns="http://www.w3.org/2000/svg" viewBox="0 0 364.54 520.78"><defs><style>.cls-1{fill:#4a6164;}.cls-2{fill:#fff;}</style></defs><title>bigD</title><path class="cls-1" d="M464.91,116.79a19.21,19.21,0,0,1,6-14.32,20,20,0,0,1,14.49-5.86,20,20,0,0,1,20.18,20.18V435.11q0,75.52-53.38,128.89T323.32,617.38q-75.52,0-128.89-53.38T141,435.11q0-75.51,53.38-128.89t128.89-53.38q75.51,0,128.89,53.38l12.69,12.69V116.79Zm0,318.32q0-58.91-41.34-100.25Q381.9,293.2,323.32,293.2T223.07,334.86q-41.67,41.67-41.66,100.25t41.66,100.25Q264.73,577,323.32,577t100.25-41.66Q464.9,494,464.91,435.11Z" transform="translate(-141.05 -96.61)"/><path class="cls-2" d="M322.92,601q-2.19,0-4.36-.06l0.05-2c2.31,0.06,4.64.07,7,0l0,2Zm9.72-.28-0.12-2c2.31-.13,4.65-0.32,6.93-0.55l0.2,2C337.34,600.38,335,600.56,332.63,600.7Zm-21.11-.11c-2.35-.16-4.71-0.37-7-0.63l0.22-2c2.28,0.25,4.61.46,6.93,0.62Zm35.11-1.31-0.29-2c2.28-.33,4.59-0.71,6.86-1.14l0.37,2C351.28,598.57,348.94,599,346.64,599.29Zm-49.1-.25c-2.3-.36-4.64-0.77-6.93-1.22l0.39-2c2.27,0.45,4.57.86,6.85,1.21Zm62.94-2.36L360,594.74c2.26-.53,4.52-1.11,6.74-1.72l0.54,1.93C365.05,595.56,362.76,596.15,360.47,596.68Zm-76.74-.39c-2.27-.55-4.56-1.16-6.8-1.82l0.56-1.92c2.22,0.64,4.48,1.25,6.72,1.79ZM374,592.9l-0.62-1.9c2.19-.71,4.39-1.48,6.55-2.29l0.7,1.87C378.48,591.4,376.25,592.18,374,592.9Zm-103.83-.53c-2.23-.75-4.46-1.56-6.64-2.4l0.72-1.87c2.15,0.83,4.36,1.63,6.56,2.37Zm117-4.39-0.78-1.84c2.11-.9,4.24-1.85,6.33-2.85l0.86,1.81C391.49,586.1,389.33,587.07,387.19,588ZM257,587.29c-2.14-.93-4.29-1.93-6.4-3l0.88-1.8c2.09,1,4.21,2,6.33,2.92Zm142.84-5.35-0.94-1.77c2-1.08,4.08-2.21,6.07-3.38l1,1.73C404,579.71,401.94,580.86,399.88,581.95Zm-155.51-.84c-2.06-1.12-4.12-2.3-6.12-3.5l1-1.71c2,1.19,4,2.35,6,3.45ZM412,574.85l-1.08-1.68c1.94-1.25,3.88-2.56,5.76-3.89l1.15,1.63C415.95,572.26,414,573.58,412,574.85Zm-179.74-1c-2-1.29-3.9-2.63-5.8-4l1.17-1.62c1.87,1.36,3.8,2.69,5.73,4Zm191.23-7.12-1.22-1.58c1.82-1.41,3.65-2.87,5.41-4.36l1.29,1.53C427.21,563.82,425.36,565.31,423.52,566.73ZM220.86,565.6c-1.83-1.44-3.65-2.95-5.44-4.48l1.3-1.52c1.76,1.51,3.57,3,5.37,4.43Zm213.42-7.93-1.35-1.47c1.7-1.55,3.39-3.17,5-4.81l1.41,1.42C437.71,554.46,436,556.1,434.28,557.67Zm-224.09-1.26c-1.7-1.6-3.4-3.25-5-4.92l1.43-1.4c1.62,1.65,3.29,3.29,5,4.86Zm234.06-8.69-1.47-1.35c1.56-1.7,3.11-3.45,4.6-5.22l1.53,1.29C447.39,544.23,445.83,546,444.25,547.73Zm-243.91-1.37c-1.56-1.74-3.11-3.53-4.59-5.33l1.54-1.27c1.47,1.78,3,3.55,4.54,5.27Zm253-9.39-1.58-1.22c1.41-1.83,2.81-3.71,4.14-5.59l1.63,1.16C456.17,533.21,454.76,535.12,453.33,537Zm-262-1.46c-1.41-1.86-2.79-3.78-4.12-5.7l1.64-1.14c1.31,1.9,2.69,3.79,4.07,5.63Zm270.09-10-1.68-1.09c1.25-1.94,2.48-3.94,3.65-5.93l1.72,1C464,521.49,462.74,523.51,461.47,525.47Zm-278.09-1.53c-1.24-2-2.46-4-3.62-6l1.74-1c1.15,2,2.35,4,3.58,6Zm285.23-10.63-1.77-.94c1.08-2,2.14-4.13,3.13-6.22l1.8,0.86C470.77,509.13,469.71,511.25,468.61,513.32ZM176.4,511.74c-1.07-2.07-2.11-4.19-3.09-6.31l1.81-.84c1,2.09,2,4.19,3.05,6.23Zm298.28-11.15-1.84-.78c0.91-2.13,1.78-4.31,2.59-6.47l1.87,0.7C476.48,496.23,475.6,498.43,474.68,500.59ZM170.49,499c-0.89-2.16-1.75-4.37-2.55-6.56l1.88-.68c0.79,2.17,1.63,4.35,2.51,6.48Zm309.15-11.62-1.9-.62c0.72-2.2,1.4-4.45,2-6.67l1.93,0.54C481.05,482.88,480.36,485.15,479.63,487.38Zm-314-1.61c-0.7-2.23-1.37-4.5-2-6.76l1.93-.52c0.6,2.23,1.25,4.48,1.95,6.68Zm317.75-12-1.95-.46c0.53-2.25,1-4.54,1.44-6.8l2,0.37C484.45,469.21,484,471.53,483.43,473.81ZM162,472.18c-0.51-2.28-1-4.6-1.38-6.9l2-.35c0.41,2.27.87,4.57,1.37,6.82Zm-2.47-13.86c-0.31-2.31-.58-4.67-0.79-7l2-.18c0.21,2.3.47,4.63,0.78,6.91Zm-1.28-14c-0.11-2.33-.18-4.7-0.19-7h2c0,2.31.08,4.65,0.19,7Zm1.91-14-2-.07c0.08-2.34.22-4.7,0.4-7l2,0.15C160.39,425.65,160.26,428,160.18,430.29Zm1.08-13.86-2-.24c0.28-2.32.61-4.67,1-7l2,0.32C161.86,411.82,161.54,414.14,161.26,416.43Zm2.25-13.72-2-.41c0.48-2.29,1-4.6,1.59-6.86l1.94,0.49C164.51,398.17,164,400.45,163.51,402.71Zm3.42-13.48-1.92-.58c0.67-2.24,1.4-4.5,2.18-6.72l1.89,0.66C168.32,384.79,167.6,387,166.94,389.23Zm310.12-5.75c-0.75-2.19-1.55-4.38-2.39-6.53l1.86-.73c0.85,2.18,1.66,4.4,2.42,6.61Zm-305.53-7.42-1.86-.74c0.87-2.18,1.79-4.37,2.75-6.5l1.83,0.82C173.29,371.75,172.38,373.91,171.52,376.06ZM472,370.54c-0.93-2.11-1.92-4.23-2.94-6.29l1.79-.88c1,2.09,2,4.24,3,6.37Zm-294.78-7.19-1.79-.9c1-2.09,2.15-4.19,3.29-6.24l1.75,1C179.34,359.21,178.25,361.28,177.22,363.35Zm288.64-5.27c-1.11-2-2.28-4.05-3.47-6l1.71-1c1.2,2,2.39,4,3.51,6.1ZM184,351.17l-1.71-1c1.23-2,2.51-4,3.81-5.93l1.66,1.12C186.46,347.23,185.19,349.2,184,351.17Zm274.69-5c-1.27-1.92-2.61-3.84-4-5.71l1.62-1.18c1.37,1.89,2.73,3.83,4,5.78Zm-266.92-6.56-1.61-1.19c1.39-1.88,2.83-3.76,4.3-5.58l1.56,1.25C194.55,335.91,193.12,337.76,191.75,339.62Zm258.74-4.68c-1.44-1.81-2.93-3.61-4.44-5.35l1.51-1.31c1.53,1.76,3,3.58,4.49,5.42Zm-250-6.16-1.5-1.32c1.54-1.75,3.14-3.5,4.76-5.19l1.45,1.38C203.58,325.33,202,327.05,200.48,328.78Zm240.92-4.35c-1.59-1.68-3.23-3.35-4.88-5l1.4-1.43c1.67,1.63,3.33,3.32,4.94,5Zm-231.31-5.7-1.39-1.44c1.68-1.62,3.42-3.22,5.18-4.77l1.32,1.5C213.47,315.55,211.75,317.13,210.09,318.73Zm221.34-4c-1.72-1.54-3.5-3.06-5.28-4.53l1.27-1.55c1.81,1.48,3.61,3,5.35,4.58Zm-210.92-5.2L219.25,308c1.81-1.47,3.69-2.92,5.56-4.31l1.19,1.61C224.15,306.64,222.3,308.08,220.51,309.53Zm200.16-3.63c-1.85-1.39-3.75-2.75-5.65-4.06l1.13-1.65c1.93,1.32,3.85,2.71,5.72,4.11Zm-189-4.65-1.12-1.66c1.93-1.31,3.92-2.59,5.9-3.82l1.05,1.7C235.54,298.69,233.58,300,231.67,301.25ZM409.2,298c-2-1.23-4-2.43-6-3.57l1-1.74c2,1.15,4.07,2.37,6.05,3.61ZM243.49,294l-1-1.75c2-1.14,4.12-2.25,6.21-3.3l0.9,1.79C247.56,291.73,245.5,292.83,243.49,294Zm153.61-2.81c-2.06-1.06-4.17-2.08-6.26-3l0.83-1.82c2.12,1,4.26,2,6.34,3.08ZM255.88,287.7l-0.82-1.82c2.12-1,4.29-1.89,6.46-2.76l0.75,1.86C260.12,285.84,258,286.75,255.88,287.7Zm128.57-2.37c-2.14-.87-4.33-1.71-6.5-2.49l0.68-1.88c2.2,0.79,4.42,1.64,6.58,2.53Zm-115.68-2.81-0.67-1.89c2.21-.78,4.46-1.52,6.69-2.2l0.58,1.91C273.17,281,270.95,281.75,268.77,282.52Zm102.57-1.9c-2.2-.68-4.45-1.33-6.7-1.93l0.51-1.93c2.27,0.6,4.55,1.26,6.78,1.95Zm-89.26-2.15-0.5-1.94c2.27-.58,4.57-1.13,6.85-1.61l0.42,2C286.58,277.36,284.31,277.89,282.07,278.47Zm75.81-1.4c-2.25-.49-4.55-0.94-6.82-1.34l0.34-2c2.3,0.4,4.63.86,6.91,1.36Zm-62.21-1.49-0.33-2c2.3-.39,4.64-0.73,7-1l0.25,2C300.25,274.85,297.94,275.19,295.67,275.57Zm48.51-.89c-2.29-.3-4.61-0.55-6.91-0.75l0.17-2c2.33,0.2,4.69.46,7,.76Zm-34.71-.83-0.16-2c2.33-.19,4.69-0.33,7-0.42l0.08,2C314.1,273.52,311.76,273.66,309.47,273.85Zm20.85-.38c-2.31-.1-4.65-0.16-7-0.16v-2c2.33,0,4.7.06,7,.17Z" transform="translate(-141.05 -96.61)"/><path class="cls-2" d="M485.89,460.75h-2v-7h2v7Zm0-14h-2v-7h2v7Zm0-14h-2v-7h2v7Zm0-14h-2v-7h2v7Zm0-14h-2v-7h2v7Zm0-14h-2v-7h2v7Zm0-14h-2v-7h2v7Zm0-14h-2v-7h2v7Zm0-14h-2v-7h2v7Zm0-14h-2v-7h2v7Zm0-14h-2v-7h2v7Zm0-14h-2v-7h2v7Zm0-14h-2v-7h2v7Zm0-14h-2v-7h2v7Zm0-14h-2v-7h2v7Zm0-14h-2v-7h2v7Zm0-14h-2v-7h2v7Zm0-14h-2v-7h2v7Zm0-14h-2v-7h2v7Zm0-14h-2v-7h2v7Zm0-14h-2v-7h2v7Zm0-14h-2v-7h2v7Zm0-14h-2v-7h2v7Zm0-14h-2v-7h2v7Zm0-14h-2v-7h2v7Z" transform="translate(-141.05 -96.61)"/></svg>