<svg id="wifi" xmlns="http://www.w3.org/2000/svg" viewBox="0 0 271.04 203.28"><defs><style>.cls-1{fill:#f06060;}</style></defs><title>cloud</title><g id="_9" data-name="9"><path class="cls-1" d="M195.38,42.59A76.13,76.13,0,0,0,51.1,70.68C21.53,79.11,0,104.94,0,135.52,0,171.6,30,201,67.76,203.08l118.58.2c44.44,0,84.7-36,84.7-80.46A80.4,80.4,0,0,0,195.38,42.59Zm-9,143.75H67.76s-51.13-5.24-50.82-50.82C17.12,109.8,39.7,86.25,67.76,84.7c0-35.08,22.45-67.76,59.29-67.76,29.07,0,48.47,17.75,55.38,42.47,42-1.83,70.35,31.37,71.67,59.17C255.87,156,216.83,186.34,186.34,186.34Z"/></g></svg>