<svg id="wifi" xmlns="http://www.w3.org/2000/svg" viewBox="0 0 270.02 268.98"><defs><style>.cls-1{fill:#333;}.cls-1,.cls-2{fill-rule:evenodd;}.cls-2{fill:#f06060;}</style></defs><title>easyToImplement</title><path class="cls-1" d="M265.94,260.82H252.3c10.35-8.37,4.37-51.19,4.61-66.3.47-27.85-.41-35.7-23-53.51,7.38-.34,29.58,2.33,22.49-11.68-2.13-4.23-15.7-9.52-20.72-3.67-10.16,11.87-9.07-.9-18.35-14.26-1-2-1.92-3.82-2.82-5.49a12.78,12.78,0,0,1-3.65,2.91l15.43,29.89c-9.41-.06-18.88-.45-28.4-.92-4.63,4.8-12.72,7.58-18,2.54-.87-.77-3.37-2.39-4.69-2.28-1.52,1.24-4.4,6-3.93,8a8,8,0,0,1,.47,2c.71,6.34-4.91,11.47-10.52,13.17-6.4,2.31-14.89.6-17.43-6.41l0-.09c-.38-1.17-1.86-3.87-3.14-4.31-1.88.36-6.53,3.14-7.11,5-1.64,7.15-9.92,9.65-16.41,8.18-6.85-1.32-13.46-7.07-11.72-14.56.21-1.2.26-4.06-.51-5.1-1.94-.56-7.4-.81-8.6.53-4.91,5.62-13.76,3.27-18.63-1.2a17.93,17.93,0,0,1-3.9-5.28c-10.31.53-20.4.88-30.07.7A182.72,182.72,0,0,1,54.8,116.26c.79-1.41,1.49-2.69,2.13-3.89a17.29,17.29,0,0,1-2.82-4.63,204.13,204.13,0,0,0-10.39,18.56c-6.85,13.49-5.61-2.35-14.94-3-4.89-.34-12.38,1.79-14.7,5.19-9.75,14.24,15,12.24,22,12.56-4.5,3.82-21.7,21.87-22.72,26.14-1.15,4.78-1.15,42.92-1.26,51.14-.15,11.06-2.58,36.17,5.57,42.54H4.08a4.08,4.08,0,0,0,0,8.16H265.94a4.08,4.08,0,0,0,0-8.16ZM88.43,192.68a15.26,15.26,0,0,1,15.19-15.21H166.4a15.26,15.26,0,0,1,15.19,15.21v10.48a15.24,15.24,0,0,1-15.19,15.2H103.62a15.25,15.25,0,0,1-15.19-15.2Zm-65.91-4.34c10.69-2.11,45.51.34,54.88,5.87a18.61,18.61,0,0,1-8.3,9C59.28,207.88,17.69,216.68,22.51,188.35Zm23.6,72.48c4.46-3.14,3.24-9.8,3.56-17.47,30-2.09,140.73-2.09,170.62,0,.32,7.45-.92,14.26,3.58,17.47Zm154.81-57.61a18.62,18.62,0,0,1-8.3-9c9.37-5.53,44.19-8,54.88-5.87C252.33,216.68,210.74,207.88,200.92,203.21Z"/><path class="cls-2" d="M149.2,85.12a1.65,1.65,0,0,0-2.35,0l-1.45,1.43C143,84.16,141,82.18,139,80.21l7-7,2.92-2.93a11.17,11.17,0,0,0,14.94-13.37l-.32-1.11L156,63.41l-6.32-6.32,7.58-7.6-1.09-.3A11.14,11.14,0,0,0,142.8,64.11l-2.92,2.95v0l-7,7c-3.52-3.48-7.77-7.71-14.08-14a.07.07,0,0,0,0,0l-3-5.19a.66.66,0,0,0-.19-.23L110.4,51a.71.71,0,0,0-.9.08l-2.28,2.29a.68.68,0,0,0-.08.9l3.54,5.13a1.15,1.15,0,0,0,.23.21l5.19,3h0c6.1,6.11,10.43,10.44,14.08,14.05l-7,7h0l-2.92,2.93A11.15,11.15,0,0,0,105.37,100l.3,1.11,7.6-7.6,6.32,6.32-7.6,7.6,1.11.3a11.15,11.15,0,0,0,13.36-14.93l2.92-2.95,7-7c2.07,2,4.1,4.06,6.38,6.36l-1.43,1.43a1.65,1.65,0,0,0,0,2.35l16.09,16.1a1.64,1.64,0,0,0,2.35,0l5.51-5.51a1.66,1.66,0,0,0,0-2.35Zm8.22,20.35L145,93l1.32-1.3,12.44,12.45Zm2.95-3L147.92,90.05l1.3-1.32,12.46,12.47Z"/><path class="cls-2" d="M209.24,85.06c-4.08-.77-7.45-8-7.83-10.46-.17-2.63,3-5.4,6.91-6.92,4.29-1.3,6.17-6.92,4.29-12.49-1.88-5.81-6.7-9.14-10.63-7.84-4.1,1.11-10.82-3.35-12.31-5.25-1.47-2.22-.17-6.32,2.8-9.5s1.66-9.16-2.8-13.07c-4.31-3.93-10.24-4.65-13.25-1.52-2.8,3.2-10.82,2.84-12.85,1.71-2.26-1-3.56-5.42-2.65-9.55,1.13-4.08-3.16-8.58-8.75-9.89C146.42-.83,141,1.39,139.87,5.71c-.75,4.29-8,7.67-10.43,7.84-2.45,0-5.42-2.78-6.91-7.09-1.32-4.1-6.89-5.79-12.5-4.1s-9.13,6.51-7.83,10.83c1.11,4.1-3.16,10.44-5.42,11.94-2,1.52-6.15.36-9.32-2.61-3.16-2.8-9.13-1.49-13,2.61-3.93,4.48-4.7,10.66-1.49,13.26,3.16,3,2.79,10.83,1.86,13.24-1.32,2.26-5.42,3.18-9.69,2.43-4.12-.92-8.58,3-9.73,9-1.3,5.62,1,11,5.06,11.94,4.46.94,7.64,8.22,7.83,10.66.36,2.41-2.6,5.59-6.72,6.7-4.27,1.52-6,7.28-4.27,12.88s6.68,9.16,10.8,7.86c3.9-1.5,8.41-.75,9.52,1.5,1.3,1.86,2.77,9.69-.19,13-2.6,3.18-1.47,8.95,2.82,12.88s10.43,4.68,13.23,1.5,10.63-2.41,13.06-1.5c2.24.94,3.37,5.25,2.6,9.33-1.11,4.48,2.8,9,8.77,10.08,5.61,1.3,11-1.11,11.95-5.4,1.13-4.1,8.21-7.64,10.62-7.84s5.61,3,6.92,6.92c1.49,4.1,7.08,6.13,12.68,4.1,5.59-1.69,9.13-6.56,7.64-10.46-1.3-4.29,3.37-10.85,5.42-12.32,1.86-1.49,6.17-.19,9.32,2.61,3.16,3,8.94,1.88,13-2.61,3.76-4.48,4.5-10.27,1.34-13.24s-2.45-10.83-1.34-13.09,5.06-3.35,9.15-2.41c4.48.94,9-3.16,10.09-8.78C216,91.38,213.56,86,209.24,85.06ZM135,126.93a46.82,46.82,0,1,1,46.82-46.82A46.82,46.82,0,0,1,135,126.93Z"/></svg>