<svg id="wifi" xmlns="http://www.w3.org/2000/svg" xmlns:xlink="http://www.w3.org/1999/xlink" viewBox="0 0 286.78 33.55">
    <defs>
        <style>
        .cls-1 {
            fill: url(#radial-gradient);
        }
        
        .cls-2 {
            fill: #333;
        }
        
        .cls-3 {
            fill: #89c41e;
        }
        
        .cls-4 {
            fill: #8ac41f;
        }
        
        .cls-5 {
            fill: #8ac420;
        }
        </style>
        <radialGradient id="radial-gradient" cx="82.72" cy="-302.91" r="347.21" gradientTransform="translate(32.88 287.86) scale(1.11 1.56)" gradientUnits="userSpaceOnUse">
            <stop offset="0" stop-color="#fff" />

        </radialGradient>
    </defs>
    <title>kickstarter</title>
    <rect class="cls-1" x="-176.61" y="-511.53" width="640" height="800" />
    <path class="cls-2" d="M61.37,33.55H55.63c-.4-.48-1-.42-1.54-.56A16.73,16.73,0,0,1,41.83,17.64a16.9,16.9,0,0,1,11-16.7c1-.36,2-.63,3.06-.94h5.74c.17.49.65.32,1,.4a17.81,17.81,0,0,1,7.78,4.36A8.86,8.86,0,0,1,72.9,8.38a5.23,5.23,0,0,1-2.19,6.36,5,5,0,0,1-6.49-1c-.54-.54-1-1.14-1.59-1.65a6.07,6.07,0,0,0-7.3-.61,6.35,6.35,0,0,0-2.55,7.17,6,6,0,0,0,5.82,4.25,6.55,6.55,0,0,0,4.78-2.25c1-1.06,2-2.18,3.63-2.36a5.25,5.25,0,0,1,5.42,2.44,5.1,5.1,0,0,1-.13,5.69,15.58,15.58,0,0,1-6.68,5.66C64.27,32.8,62.76,33,61.37,33.55Z" />
    <path class="cls-2" d="M85.61,22l.31-.08c2.38,3,4.89,5.84,7.1,8.94a5.26,5.26,0,1,0,8.2-6.58c-1.8-2.29-3.57-4.61-5.43-6.85a1.34,1.34,0,0,1-.07-2c1.59-2.21,3.14-4.45,4.63-6.72A5.11,5.11,0,0,0,99,1.6a5.15,5.15,0,0,0-7.17,1c-.59.75-1.1,1.56-1.65,2.34l-4.27,6.16a33.38,33.38,0,0,1-.28-5.2A4.92,4.92,0,0,0,85,3.13,5.44,5.44,0,0,0,79.17.7a5.14,5.14,0,0,0-4,4.51,9.23,9.23,0,0,0-.07,1.29c0,6.79,0,13.57,0,20.36,0,3.07,1.26,5.11,3.48,5.83,3.72,1.2,6.86-1.08,7-5.16C85.67,25.67,85.61,23.81,85.61,22Z" />
    <path class="cls-3" d="M286.78,29.54c-.95,1.36-1.87,2.72-3.64,3.2a5.07,5.07,0,0,1-6-2.2c-.69-1.08-1.34-2.2-2-3.3A18.86,18.86,0,0,0,272.83,24c0,1.33.06,2.67,0,4a5.14,5.14,0,0,1-7.42,4.49c-2.35-1.09-3-3.2-3-5.57,0-6.11,0-12.23,0-18.34,0-.67,0-1.34,0-2,.05-3.25,1.56-5.26,4.75-5.58a39.11,39.11,0,0,1,10.15,0c4.94.8,8,4,9.22,8.84.07.26,0,.59.3.75v4c-1,1.65-1.42,3.62-2.81,5-.61.61-.48,1.08-.07,1.71a32.88,32.88,0,0,1,2.88,5Z" />
    <path class="cls-2" d="M0,29V4.3c.4-.1.42-.48.56-.76A5.07,5.07,0,0,1,6.36.68c2.07.41,4.24,2.41,4.14,4.8-.08,1.83,0,3.66,0,5.49,2.22-2.67,4.06-5.43,6-8.12a5.11,5.11,0,0,1,7.32-1.29A5.16,5.16,0,0,1,25,9c-1.48,2.17-2.93,4.35-4.47,6.47a1.26,1.26,0,0,0,.08,1.84c2,2.45,4,4.91,5.84,7.43A5.2,5.2,0,0,1,25.2,32a5.11,5.11,0,0,1-7-.9c-.51-.63-1-1.27-1.51-1.91l-6-7.48c-.21,2.48.09,4.67-.26,6.84a5.07,5.07,0,0,1-6.24,4.34C1.87,32.45.88,30.79,0,29Z" />
    <path class="cls-4" d="M112.7,33.55c-.61-.6-1.48-.54-2.21-.84a10.61,10.61,0,0,1-5.28-4c-2-3.18-.79-7,2.51-7.93a5.29,5.29,0,0,1,4.59,1c1,.68,1.94,1.38,3,2,.7.42,1.51.57,2-.33a1.42,1.42,0,0,0-.82-2.11c-1.8-.76-3.67-1.36-5.47-2.11A9.66,9.66,0,0,1,106.68,4.6,10.86,10.86,0,0,1,113.39.29c.26-.06.59,0,.75-.29h5.16c1.79.7,3.71,1.11,5.25,2.37,1.88,1.54,2.84,3.44,2.25,5.91a4,4,0,0,1-5.16,3,10.46,10.46,0,0,1-3.59-2c-.73-.55-1.51-1.08-2.49-.62a.9.9,0,0,0-.49,1c.15,1,1,1.34,1.78,1.67a51.65,51.65,0,0,1,6.08,2.47,10.51,10.51,0,0,1,2.81,16,11,11,0,0,1-6.39,3.53c-.31.06-.68-.05-.91.28Z" />
    <path class="cls-4" d="M195.62,24.07c0,1.19,0,2.39,0,3.58a5.19,5.19,0,0,1-10.32.89,13.36,13.36,0,0,1-.2-2.42q0-9.38,0-18.77c0-4.56,2-6.52,6.58-6.49,2.86,0,5.77-.38,8.58.16A11.34,11.34,0,0,1,207,19.31a1.71,1.71,0,0,0-.05,2.44,25.67,25.67,0,0,1,1.94,3.17,5.3,5.3,0,0,1-6.29,7.78,5,5,0,0,1-2.75-2.36c-1.29-2.15-2.61-4.27-3.92-6.4Z" />
    <path class="cls-3" d="M167.42.57a4.94,4.94,0,0,1,4.68,2.85c3.47,7.32,6.95,14.64,10.33,22a5.2,5.2,0,0,1-2.35,7,5.08,5.08,0,0,1-7-2.36,2.34,2.34,0,0,0-2.55-1.43c-2.05.09-4.11.09-6.16,0a2.27,2.27,0,0,0-2.54,1.46,5.21,5.21,0,0,1-9.64-.77,6,6,0,0,1,.43-4.46q4.95-10.55,9.9-21.1A5.14,5.14,0,0,1,167.42.57Z" />
    <path class="cls-5" d="M239,16.48c.13-3.67-.18-7.35.16-11A4.75,4.75,0,0,1,243.94.9c4-.09,7.93-.1,11.89,0a4.72,4.72,0,0,1,4.69,4.66,4.71,4.71,0,0,1-4.38,5.08,37.14,37.14,0,0,1-5.43.13c-.82,0-1.06.29-1.07,1.08s.35,1.06,1.12,1c1.14,0,2.29,0,3.44,0A3.66,3.66,0,0,1,258,16.55c.08,2.22-1.15,3.6-3.53,3.83a33.11,33.11,0,0,1-3.86.13c-1,0-.92.54-.93,1.2s.11,1.07.93,1.07a42.45,42.45,0,0,1,5.29.13c2.91.34,4.62,2.21,4.56,5a4.54,4.54,0,0,1-4.73,4.69q-5.8.16-11.6,0c-3-.09-4.71-1.84-5-4.85C238.83,24,239.1,20.25,239,16.48Z" />
    <path class="cls-3" d="M142.44.91c2.86,0,5.73-.06,8.59,0A4.42,4.42,0,0,1,155.42,4a4.87,4.87,0,0,1-1.06,5.18c-1.15,1.29-2.72,1.46-4.32,1.48-2.39,0-2.36,0-2.4,2.41-.08,5,.27,9.93-.18,14.88-.29,3.2-2.43,5.1-5.34,5s-5-2.19-5-5.48q-.11-7.66,0-15.32c0-1.19-.29-1.6-1.5-1.51a8.17,8.17,0,0,1-3.54-.32,4.77,4.77,0,0,1-3.2-4.9,4.59,4.59,0,0,1,4-4.34C136,.6,139.24,1,142.44.91Z" />
    <path class="cls-3" d="M223.88.91c2.86,0,5.73-.06,8.59,0A4.42,4.42,0,0,1,236.86,4a4.87,4.87,0,0,1-1.06,5.18c-1.15,1.29-2.72,1.46-4.33,1.47-2.39,0-2.35,0-2.39,2.42-.09,5.06.29,10.12-.21,15.17a5.18,5.18,0,0,1-10.33-.64q-.1-7.73,0-15.47c0-1.19-.3-1.6-1.5-1.5a8.17,8.17,0,0,1-3.54-.32,4.75,4.75,0,0,1-3.19-4.9,4.59,4.59,0,0,1,4-4.34C217.48.6,220.69,1,223.88.91Z" />
    <path class="cls-2" d="M85.61,22c0,1.86.06,3.72,0,5.57-.16,4.07-3.31,6.36-7,5.16-2.22-.71-3.47-2.76-3.48-5.83,0-6.79,0-13.57,0-20.36a9.23,9.23,0,0,1,.07-1.29,5.14,5.14,0,0,1,4-4.51A5.44,5.44,0,0,1,85,3.13a4.92,4.92,0,0,1,.62,2.75,33.38,33.38,0,0,0,.28,5.2l4.27-6.16c.54-.78,1.06-1.59,1.65-2.34A5.15,5.15,0,0,1,99,1.6a5.11,5.11,0,0,1,1.37,7.1c-1.49,2.27-3,4.51-4.63,6.72a1.34,1.34,0,0,0,.07,2c1.86,2.24,3.63,4.56,5.43,6.85A5.26,5.26,0,1,1,93,30.81c-2.21-3.09-4.72-6-7.1-8.94Z" />
    <path class="cls-2" d="M39.86,16.81c0,3.54.05,7.07,0,10.61a5.27,5.27,0,0,1-3.07,5.1,5.16,5.16,0,0,1-5.64-.81,5.45,5.45,0,0,1-1.81-4.5c0-6.83-.06-13.67,0-20.5,0-3.21,1.26-5.1,3.48-5.84,3.7-1.22,6.95,1.18,7,5.33C39.92,9.73,39.86,13.27,39.86,16.81Z" />
</svg>
