<svg id="stroke" xmlns="http://www.w3.org/2000/svg" xmlns:xlink="http://www.w3.org/1999/xlink" viewBox="0 0 148.6 46.44"><defs><style>.cls-1{fill:#1d1d1b;}</style><symbol id="New_Symbol_1" data-name="New Symbol 1" viewBox="0 0 898.53 280.79"><path class="cls-1" d="M174.62,10.88a10.36,10.36,0,0,1,3.25-7.72A10.79,10.79,0,0,1,185.67,0a10.5,10.5,0,0,1,7.72,3.16,10.5,10.5,0,0,1,3.16,7.72V182.51q0,40.72-28.78,69.49t-69.5,28.78q-40.72,0-69.49-28.78T0,182.51Q0,141.8,28.78,113T98.28,84.24q40.71,0,69.5,28.78l6.84,6.84v-109Zm0,171.63q0-31.76-22.29-54.05Q129.86,106,98.28,106T44.23,128.46q-22.47,22.47-22.46,54.05t22.46,54.05Q66.69,259,98.28,259t54.05-22.46Q174.61,214.28,174.62,182.51Z"/><path class="cls-1" d="M225.16,95.12a10.88,10.88,0,1,1,21.76,0v24.74q35.62-35.62,76.51-35.62,21.94,0,37.56,6.84a14.27,14.27,0,0,1,5.09,3.33,11,11,0,0,1-7.9,18.6,10.86,10.86,0,0,1-4.91-1.05q-12.29-6-29.84-6-31.59,0-54.05,22.46-22.47,22.29-22.46,54.05v87.39a10.88,10.88,0,1,1-21.76,0V95.12Z"/><path class="cls-1" d="M434.34,36.85a14.58,14.58,0,0,1-24.83,10.36,13.93,13.93,0,0,1-4.3-10.36,14,14,0,0,1,4.3-10.27,14.51,14.51,0,0,1,20.62,0A14.16,14.16,0,0,1,434.34,36.85ZM408.9,95.12a10.78,10.78,0,0,1,10.88-10.88,10.8,10.8,0,0,1,7.81,3.16,10.37,10.37,0,0,1,3.25,7.72V269.91a10.36,10.36,0,0,1-3.25,7.72,10.8,10.8,0,0,1-7.81,3.16,10.78,10.78,0,0,1-10.88-10.88V95.12Z"/><path class="cls-1" d="M652,10.88a10.36,10.36,0,0,1,3.25-7.72A10.79,10.79,0,0,1,663,0a10.5,10.5,0,0,1,7.72,3.16,10.5,10.5,0,0,1,3.16,7.72V182.51q0,40.72-28.78,69.49t-69.5,28.78q-40.72,0-69.49-28.78t-28.78-69.49q0-40.71,28.78-69.5t69.49-28.78q40.71,0,69.5,28.78l6.84,6.84v-109Zm0,171.63q0-31.76-22.29-54.05Q607.2,106,575.62,106t-54.05,22.46q-22.47,22.47-22.46,54.05t22.46,54.05Q544,259,575.62,259t54.05-22.46Q652,214.28,652,182.51Z"/><path class="cls-1" d="M856.23,238.49a10.37,10.37,0,0,1,7.72,3.25,10.81,10.81,0,0,1,3.16,7.81,10.58,10.58,0,0,1-2.81,7.55q-27.38,23.69-64.06,23.69-40.72,0-69.49-28.78T702,182.51q0-40.71,28.78-69.5t69.49-28.78q40.71,0,69.5,28.78t28.78,69.5a10.79,10.79,0,0,1-10.88,10.88H724.09q5.26,26.32,22.11,43.17Q768.66,259,800.25,259A73.13,73.13,0,0,0,849.39,241,10.47,10.47,0,0,1,856.23,238.49Zm20-66.86q-4.91-26.15-21.94-43.17Q831.84,106,800.25,106T746.2,128.46q-16.85,16.85-22.11,43.17H876.24Z"/></symbol></defs><title>logo</title><use id="New_Symbol_1-3" data-name="New Symbol 1" width="898.53" height="280.79" transform="translate(0 0) scale(0.17)" xlink:href="#New_Symbol_1"/></svg>