<svg id="wifi" xmlns="http://www.w3.org/2000/svg" viewBox="0 0 321.54 297.77"><defs><style>.cls-1,.cls-7{fill:#f06060;}.cls-1,.cls-4,.cls-5,.cls-8{fill-rule:evenodd;}.cls-2,.cls-5{fill:#72c6ce;}.cls-3,.cls-8{fill:#f3b562;}.cls-4,.cls-6{fill:#b3b31c;}</style></defs><title>noMaintnence</title><path class="cls-1" d="M250,0H207.73a3.38,3.38,0,0,0-3.44,3.41V83.16a3.51,3.51,0,0,0,3.44,3.58H250a3.53,3.53,0,0,0,3.44-3.58V3.41A3.4,3.4,0,0,0,250,0ZM221.43,7.27h0a.42.42,0,0,1,0,.84.37.37,0,0,1-.42-.42.37.37,0,0,1,.42-.42Zm-3-.56h0a.93.93,0,0,1,.84,1,.87.87,0,0,1-.84.8.89.89,0,0,1-.94-.8.94.94,0,0,1,.94-1Zm-3.83-.42h0a1.22,1.22,0,0,1,1.22,1.25,1.17,1.17,0,0,1-1.22,1.08,1.07,1.07,0,0,1-1.11-1.08,1.14,1.14,0,0,1,1.11-1.25Zm-4.1-.14h0a1.28,1.28,0,0,1,1.22,1.39,1.23,1.23,0,0,1-1.22,1.22,1.28,1.28,0,0,1-1.39-1.22,1.31,1.31,0,0,1,1.39-1.39Zm13.7,1.11H233a.6.6,0,0,1,.66.56.62.62,0,0,1-.66.66h-8.8a.65.65,0,0,1-.7-.66.64.64,0,0,1,.7-.56Zm25.25,65.6H208.25V13.7h41.18Zm-11.3,4.9h4.28a1,1,0,0,1,.94,1v3a.94.94,0,0,1-.94,1h-4.28a.94.94,0,0,1-.94-1v-3a1,1,0,0,1,.94-1Zm-13.29-1.22h6.5A1.43,1.43,0,0,1,232.77,78v4.56A1.43,1.43,0,0,1,231.35,84h-6.5a1.44,1.44,0,0,1-1.46-1.43V78a1.44,1.44,0,0,1,1.46-1.43Zm-11.1,1.22H218a1,1,0,0,1,1,1v3a1,1,0,0,1-1,1h-4.28a.94.94,0,0,1-.94-1v-3a1,1,0,0,1,.94-1Z"/><path class="cls-2" d="M44.49.44H5.84A5.88,5.88,0,0,0,0,6.32V81.26a5.85,5.85,0,0,0,5.84,5.87H44.49a5.88,5.88,0,0,0,5.87-5.84v-75A5.91,5.91,0,0,0,44.49.44ZM19,4.67H31.35a.71.71,0,0,1,.71.71.74.74,0,0,1-.71.71H19a.7.7,0,0,1-.67-.71A.68.68,0,0,1,19,4.67Zm6.21,79.54h0a2.94,2.94,0,1,1,2.92-3,2.94,2.94,0,0,1-2.92,3Zm21.1-7.93H4.08V9.72h42.2Z"/><path class="cls-3" d="M180.27.44H141.62a5.88,5.88,0,0,0-5.84,5.87V81.26a5.85,5.85,0,0,0,5.84,5.87h38.65a5.88,5.88,0,0,0,5.87-5.84v-75A5.91,5.91,0,0,0,180.27.44ZM154.76,4.67h12.38a.71.71,0,0,1,.71.71.74.74,0,0,1-.71.71H154.76a.7.7,0,0,1-.67-.71.68.68,0,0,1,.67-.71ZM161,84.21h0a2.94,2.94,0,1,1,2.92-3,2.94,2.94,0,0,1-2.92,3Zm21.1-7.93h-42.2V9.72h42.2Z"/><path class="cls-4" d="M114.41,77.41H71V8.6h44.15V77.41Zm3.42,4.29V5.83a5.2,5.2,0,0,0-5.2-5.17H73.49a5.17,5.17,0,0,0-5.17,5.17V81.71a5.21,5.21,0,0,0,5.17,5.21h39.14a5.24,5.24,0,0,0,5.2-5.21ZM101.19,5.14H86.4V1.31h14.78ZM99.51,78.59m0,7.75-13.26-.87L86.33,79l1.14-.76,11.66.08a1.41,1.41,0,0,1,.38.27l.38.87-.11,6.46a1.57,1.57,0,0,1-.26.42l-.88.34L87,86.61Z"/><path class="cls-5" d="M250,105.54H207.73a3.38,3.38,0,0,0-3.44,3.41V188.7a3.51,3.51,0,0,0,3.44,3.58H250a3.53,3.53,0,0,0,3.44-3.58V108.95a3.4,3.4,0,0,0-3.44-3.41Zm-28.55,7.27h0a.42.42,0,0,1,0,.84.42.42,0,0,1,0-.84Zm-3-.56h0a.93.93,0,0,1,.84,1,.87.87,0,0,1-.84.8.89.89,0,0,1-.94-.8.94.94,0,0,1,.94-1Zm-3.83-.42h0a1.22,1.22,0,0,1,1.22,1.25,1.17,1.17,0,0,1-1.22,1.08,1.07,1.07,0,0,1-1.11-1.08,1.14,1.14,0,0,1,1.11-1.25Zm-4.1-.14h0a1.28,1.28,0,0,1,1.22,1.39,1.23,1.23,0,0,1-1.22,1.22,1.28,1.28,0,0,1-1.39-1.22,1.31,1.31,0,0,1,1.39-1.39Zm13.7,1.11H233a.6.6,0,0,1,.66.56.62.62,0,0,1-.66.66h-8.8a.65.65,0,0,1-.7-.66.64.64,0,0,1,.7-.56Zm25.25,65.6H208.25V119.24h41.18Zm-11.3,4.9h4.28a1,1,0,0,1,.94,1v3a.94.94,0,0,1-.94,1h-4.28a.94.94,0,0,1-.94-1v-3a1,1,0,0,1,.94-1Zm-13.29-1.22h6.5a1.43,1.43,0,0,1,1.43,1.43v4.56a1.43,1.43,0,0,1-1.43,1.43h-6.5a1.44,1.44,0,0,1-1.46-1.43v-4.56a1.44,1.44,0,0,1,1.46-1.43Zm-11.1,1.22H218a1,1,0,0,1,1,1v3a1,1,0,0,1-1,1h-4.28a.94.94,0,0,1-.94-1v-3a1,1,0,0,1,.94-1Z"/><path class="cls-6" d="M44.49,106H5.84A5.88,5.88,0,0,0,0,111.86V186.8a5.85,5.85,0,0,0,5.84,5.87H44.49a5.88,5.88,0,0,0,5.87-5.84v-75A5.91,5.91,0,0,0,44.49,106ZM19,110.21H31.35a.71.71,0,0,1,.71.71.74.74,0,0,1-.71.71H19a.7.7,0,0,1-.67-.71.68.68,0,0,1,.67-.71Zm6.21,79.54h0a2.94,2.94,0,1,1,2.92-3,2.94,2.94,0,0,1-2.92,3Zm21.1-7.93H4.08V115.26h42.2Z"/><path class="cls-7" d="M180.27,106H141.62a5.88,5.88,0,0,0-5.84,5.87V186.8a5.85,5.85,0,0,0,5.84,5.87h38.65a5.88,5.88,0,0,0,5.87-5.84v-75a5.91,5.91,0,0,0-5.87-5.87Zm-25.52,4.23h12.38a.71.71,0,0,1,.71.71.74.74,0,0,1-.71.71H154.76a.7.7,0,0,1-.67-.71.68.68,0,0,1,.67-.71ZM161,189.75h0a2.94,2.94,0,1,1,2.92-3,2.94,2.94,0,0,1-2.92,3Zm21.1-7.93h-42.2V115.26h42.2Z"/><path class="cls-8" d="M114.41,183H71V114.14h44.15V183Zm3.42,4.29V111.37a5.2,5.2,0,0,0-5.2-5.17H73.49a5.17,5.17,0,0,0-5.17,5.17v75.88a5.21,5.21,0,0,0,5.17,5.21h39.14a5.24,5.24,0,0,0,5.2-5.21Zm-16.64-76.56H86.4v-3.84h14.78Zm-1.67,73.45,0,7.75M86.25,191l.08-6.46,1.14-.76,11.66.08a1.41,1.41,0,0,1,.38.27l.38.87-.11,6.46a1.57,1.57,0,0,1-.26.42l-.88.34L87,192.15Z"/><path class="cls-4" d="M250,210.63H207.73a3.38,3.38,0,0,0-3.44,3.41v79.75a3.51,3.51,0,0,0,3.44,3.58H250a3.53,3.53,0,0,0,3.44-3.58V214a3.4,3.4,0,0,0-3.44-3.41Zm-28.55,7.27h0a.42.42,0,0,1,0,.84.42.42,0,0,1,0-.84Zm-3-.56h0a.93.93,0,0,1,.84,1,.87.87,0,0,1-.84.8.89.89,0,0,1-.94-.8.94.94,0,0,1,.94-1Zm-3.83-.42h0a1.22,1.22,0,0,1,1.22,1.25,1.17,1.17,0,0,1-1.22,1.08,1.07,1.07,0,0,1-1.11-1.08,1.14,1.14,0,0,1,1.11-1.25Zm-4.1-.14h0a1.28,1.28,0,0,1,1.22,1.39,1.23,1.23,0,0,1-1.22,1.22,1.28,1.28,0,0,1-1.39-1.22,1.31,1.31,0,0,1,1.39-1.39Zm13.7,1.11H233a.6.6,0,0,1,.66.56.62.62,0,0,1-.66.66h-8.8a.65.65,0,0,1-.7-.66.64.64,0,0,1,.7-.56Zm25.25,65.6H208.25V224.34h41.18Zm-11.3,4.9h4.28a1,1,0,0,1,.94,1v3a.94.94,0,0,1-.94,1h-4.28a.94.94,0,0,1-.94-1v-3a1,1,0,0,1,.94-1Zm-13.29-1.22h6.5a1.43,1.43,0,0,1,1.43,1.43v4.56a1.43,1.43,0,0,1-1.43,1.43h-6.5a1.44,1.44,0,0,1-1.46-1.43v-4.56a1.44,1.44,0,0,1,1.46-1.43Zm-11.1,1.22H218a1,1,0,0,1,1,1v3a1,1,0,0,1-1,1h-4.28a.94.94,0,0,1-.94-1v-3a1,1,0,0,1,.94-1Z"/><path class="cls-3" d="M44.49,211.08H5.84A5.88,5.88,0,0,0,0,217v74.94a5.85,5.85,0,0,0,5.84,5.87H44.49a5.88,5.88,0,0,0,5.87-5.84V217a5.91,5.91,0,0,0-5.87-5.87ZM19,215.3H31.35a.71.71,0,0,1,.71.71.74.74,0,0,1-.71.71H19a.7.7,0,0,1-.67-.71.68.68,0,0,1,.67-.71Zm6.21,79.54h0a2.94,2.94,0,1,1,2.92-3,2.94,2.94,0,0,1-2.92,3Zm21.1-7.93H4.08V220.36h42.2Z"/><path class="cls-2" d="M180.27,211.08H141.62a5.88,5.88,0,0,0-5.84,5.87v74.94a5.85,5.85,0,0,0,5.84,5.87h38.65a5.88,5.88,0,0,0,5.87-5.84V217a5.91,5.91,0,0,0-5.87-5.87Zm-25.52,4.23h12.38a.71.71,0,0,1,.71.71.74.74,0,0,1-.71.71H154.76a.7.7,0,0,1-.67-.71.68.68,0,0,1,.67-.71ZM161,294.85h0a2.94,2.94,0,1,1,2.92-3,2.94,2.94,0,0,1-2.92,3Zm21.1-7.93h-42.2V220.36h42.2Z"/><path class="cls-2" d="M315.67.44H277a5.88,5.88,0,0,0-5.84,5.87V81.26A5.85,5.85,0,0,0,277,87.13h38.65a5.88,5.88,0,0,0,5.87-5.84v-75A5.91,5.91,0,0,0,315.67.44ZM290.15,4.67h12.38a.71.71,0,0,1,.71.71.74.74,0,0,1-.71.71H290.15a.7.7,0,0,1-.67-.71.68.68,0,0,1,.67-.71Zm6.21,79.54h0a2.94,2.94,0,1,1,2.92-3,2.94,2.94,0,0,1-2.92,3Zm21.1-7.93h-42.2V9.72h42.2Z"/><path class="cls-6" d="M315.67,106H277a5.88,5.88,0,0,0-5.84,5.87V186.8a5.85,5.85,0,0,0,5.84,5.87h38.65a5.88,5.88,0,0,0,5.87-5.84v-75a5.91,5.91,0,0,0-5.87-5.87Zm-25.52,4.23h12.38a.71.71,0,0,1,.71.71.74.74,0,0,1-.71.71H290.15a.7.7,0,0,1-.67-.71.68.68,0,0,1,.67-.71Zm6.21,79.54h0a2.94,2.94,0,1,1,2.92-3,2.94,2.94,0,0,1-2.92,3Zm21.1-7.93h-42.2V115.26h42.2Z"/><path class="cls-3" d="M315.67,211.08H277a5.88,5.88,0,0,0-5.84,5.87v74.94a5.85,5.85,0,0,0,5.84,5.87h38.65a5.88,5.88,0,0,0,5.87-5.84V217a5.91,5.91,0,0,0-5.87-5.87Zm-25.52,4.23h12.38a.71.71,0,0,1,.71.71.74.74,0,0,1-.71.71H290.15a.7.7,0,0,1-.67-.71.68.68,0,0,1,.67-.71Zm6.21,79.54h0a2.94,2.94,0,1,1,2.92-3,2.94,2.94,0,0,1-2.92,3Zm21.1-7.93h-42.2V220.36h42.2Z"/><path class="cls-1" d="M114.41,288H71V219.24h44.15V288Zm3.42,4.29V216.46a5.2,5.2,0,0,0-5.2-5.17H73.49a5.17,5.17,0,0,0-5.17,5.17v75.88a5.21,5.21,0,0,0,5.17,5.21h39.14a5.24,5.24,0,0,0,5.2-5.21Zm-16.64-76.56H86.4v-3.84h14.78Zm-1.67,73.45,0,7.75-13.26-.87.08-6.46,1.14-.76,11.66.08a1.41,1.41,0,0,1,.38.27l.38.87-.11,6.46a1.57,1.57,0,0,1-.26.42l-.88.34L87,297.24Z"/></svg>