<svg id="wifi" xmlns="http://www.w3.org/2000/svg" viewBox="0 0 65.44 65.06"><defs><style>.cls-1{fill:#333;}.cls-2{fill:#fff;}</style></defs><title>Artboard 9</title><rect class="cls-1" x="-254.56" y="-119.27" width="640" height="207.92"/><circle class="cls-2" cx="32.53" cy="32.53" r="32.53"/><path class="cls-1" d="M32.58,48.67a.59.59,0,0,1-.1-1.16,3.08,3.08,0,0,0,2-1.24c0-.12.07-.28-.14-.54-.41-.51-1.51,0-2.11.42a.59.59,0,1,1-.69-.95c1.22-.89,2.84-1.3,3.72-.21a1.65,1.65,0,0,1,.32,1.69c-.45,1.19-2.13,1.85-2.88,2Z"/><path class="cls-1" d="M33.81,51.82A4.11,4.11,0,0,1,31.53,51a.59.59,0,0,1,.69-.95c.6.44,1.7.94,2.11.42.21-.26.19-.42.14-.54a3.07,3.07,0,0,0-2-1.23.59.59,0,1,1,.21-1.16c.75.13,2.43.79,2.88,2a1.65,1.65,0,0,1-.32,1.69A1.75,1.75,0,0,1,33.81,51.82Z"/><path class="cls-1" d="M41.38,35.69A1.59,1.59,0,0,1,40.26,33,6.7,6.7,0,0,1,50,33a1.59,1.59,0,0,1-2.25,2.25,3.54,3.54,0,0,0-5.25,0A1.59,1.59,0,0,1,41.38,35.69Z"/><ellipse class="cls-1" cx="20.32" cy="33.14" rx="3.43" ry="4.49"/><path class="cls-2" d="M50.07,59.06c-1.82-3-4.31-7.78-4.8-11.24a5,5,0,0,1,1.21-4,4,4,0,0,1,2.86-1.48c2,0,3.27,2.25,3.84,3.59l1,2.39,2.35-1.11a7.63,7.63,0,0,1,3.18-.84,2.94,2.94,0,0,1,3,2.06,5.1,5.1,0,0,1-1.5,5.47C58.56,56.08,53.27,58.05,50.07,59.06Z"/><path class="cls-1" d="M49.34,44.83c.18,0,.87.49,1.54,2.07l2,4.77,4.7-2.21a5.16,5.16,0,0,1,2.11-.6c.35,0,.46,0,.6.42a2.56,2.56,0,0,1-.76,2.7c-1.75,1.47-5.27,3-8.34,4.07-1.46-2.62-3.11-6.06-3.47-8.58a2.57,2.57,0,0,1,.62-2,1.62,1.62,0,0,1,1-.62m0-5c-3.71,0-7.18,3.94-6.55,8.36.8,5.57,5.67,13,6.18,13.81,0,0,9.5-2.57,13.81-6.19,4.56-3.84,3.08-11.94-3.06-11.94a10,10,0,0,0-4.24,1.08c-1.56-3.66-3.89-5.11-6.14-5.11Z"/><path class="cls-1" d="M12.88,24.35h-.07a.92.92,0,0,1-.85-1,8.9,8.9,0,0,1,2.85-5.88,8.75,8.75,0,0,1,6.11-2.3.92.92,0,0,1,.9.93.88.88,0,0,1-.93.9A7.15,7.15,0,0,0,16,18.84a7,7,0,0,0-2.25,4.65A.92.92,0,0,1,12.88,24.35Z"/><path class="cls-1" d="M50,28.52a.91.91,0,0,1-.58-.21c-2.49-2.05-5-2.25-7.38-.57a.92.92,0,1,1-1.07-1.49c3-2.15,6.51-1.91,9.61.65A.92.92,0,0,1,50,28.52Z"/></svg>