<?xml version="1.0" encoding="utf-8"?>
<!-- Generator: Adobe Illustrator 21.0.0, SVG Export Plug-In . SVG Version: 6.00 Build 0)  -->
<svg version="1.1" id="Layer_1" xmlns="http://www.w3.org/2000/svg" xmlns:xlink="http://www.w3.org/1999/xlink" x="0px" y="0px"
	 viewBox="0 0 1258 2152" style="enable-background:new 0 0 1258 2152;" xml:space="preserve">
<style type="text/css">
	.st0{fill:#010003;}
</style>
<title>topIphoneX</title>
<g id="Artboard_1">
	<g id="iPhone">
		<g id="Bezel_Image">
			
				<image style="overflow:visible;enable-background:new    ;" width="1258" height="2550" id="Bezel_Image-2" xlink:href="89033AFE2BB8E189.png"  transform="matrix(1 0 0 0.8439 0 0)">
			</image>
		</g>
		<g id="Bezel">
			<path class="st0" d="M1075.1,9H181C91,9,18,70.4,18,146.2v1857.6c0,75.8,73,137.2,163,137.2h894.1c90,0,162.9-61.4,162.9-137.2
				V146.2C1238,70.4,1165.1,9,1075.1,9z M1202.8,2007.6c0,55.4-53.3,100.3-119.2,100.3H172.4c-65.8,0-119.1-44.9-119.1-100.3V142.4
				c0-55.4,53.3-100.3,119.1-100.3h122.7V43c9.5,0.1,17.1,6.5,17.1,14.4c0,16,7.5,31.4,21.1,42.9c13.4,11.3,31.7,17.7,50.9,17.7
				h484.7c39.8,0,72-27.2,72-60.6c0-3.8,1.8-7.5,5.1-10.2c3.2-2.7,7.5-4.2,12.1-4.2v-0.9h125.8c65.8,0,119.2,44.9,119.2,100.3
				L1202.8,2007.6z"/>
		</g>
	</g>
</g>
</svg>
