<svg xmlns="http://www.w3.org/2000/svg" viewBox="0 0 64 51.97"><defs><style>.cls-1{fill:#fff;}</style></defs><title>3</title><g id="Layer_2" data-name="Layer 2"><g id="wifi"><g id="_7" data-name="7"><path class="cls-1" d="M32,48A22,22,0,0,1,10.83,32h6.5c.62-.6.94-1.41.32-2l-7.51-7.59a1.62,1.62,0,0,0-2.24,0L.45,30c-.89,1-.29,1.41.32,2h6a26,26,0,0,0,47.37,7.64l-3.76-1.5A22,22,0,0,1,32,48ZM63.35,22H57.66A26,26,0,0,0,8.94,14l3.73,1.49a22,22,0,0,1,41,6.52H46.79c-.62.6-1.21,1-.32,2l7.46,7.58a1.62,1.62,0,0,0,2.24,0L63.67,24C64.29,23.4,64,22.59,63.35,22Z"/></g></g></g></svg>