<svg xmlns="http://www.w3.org/2000/svg" viewBox="0 0 59.16 44.37"><defs><style>.cls-1{fill:#fff;}</style></defs><title>4</title><g id="Layer_2" data-name="Layer 2"><g id="wifi"><g id="_9" data-name="9"><path class="cls-1" d="M42.65,9.3a16.62,16.62,0,0,0-31.49,6.13A14.94,14.94,0,0,0,0,29.58c0,7.88,6.54,14.29,14.79,14.75l25.88,0c9.7,0,18.49-7.86,18.49-17.56A17.55,17.55,0,0,0,42.65,9.3Zm-2,31.38H14.79S3.63,39.53,3.7,29.58c0-5.61,5-10.75,11.09-11.09,0-7.66,4.9-14.79,12.94-14.79A12.05,12.05,0,0,1,39.82,13c9.16-.4,15.36,6.85,15.64,12.92C55.85,34,47.33,40.67,40.67,40.67Z"/></g></g></g></svg>