<svg xmlns="http://www.w3.org/2000/svg" viewBox="0 0 39.49 54.95"><defs><style>.cls-1{fill:#fff;}</style></defs><title>5_1</title><g id="Layer_2" data-name="Layer 2"><g id="wifi"><g id="_9" data-name="9"><path class="cls-1" d="M19.75,49.8a2.58,2.58,0,1,0-2.58-2.58A2.58,2.58,0,0,0,19.75,49.8ZM32.62,0H6.87A6.87,6.87,0,0,0,0,6.87V48.08a6.87,6.87,0,0,0,6.87,6.87H32.62a6.87,6.87,0,0,0,6.87-6.87V6.87A6.87,6.87,0,0,0,32.62,0Zm3.43,48.08a3.43,3.43,0,0,1-3.43,3.43H6.87a3.43,3.43,0,0,1-3.43-3.43V42.93H36.06Zm0-8.59H3.43V12H36.06Zm0-30.91H3.43V6.87A3.43,3.43,0,0,1,6.87,3.43H32.62a3.43,3.43,0,0,1,3.43,3.43Z"/></g></g></g></svg>