<svg xmlns="http://www.w3.org/2000/svg" viewBox="0 0 56.7 41.42"><defs><style>.cls-1{fill:#fff;fill-rule:evenodd;}</style></defs><title>6</title><g id="Layer_2" data-name="Layer 2"><g id="wifi"><path class="cls-1" d="M28.35,31.06a5.18,5.18,0,1,0,5.17,5.18,5.18,5.18,0,0,0-5.17-5.18ZM56.09,13A36.17,36.17,0,0,0,.6,13a2.59,2.59,0,0,0,.32,3.65,2.59,2.59,0,0,0,3.64-.31,31,31,0,0,1,47.57,0,2.55,2.55,0,0,0,2,.93,2.59,2.59,0,0,0,2-4.25Zm-27.74-2.6A25.84,25.84,0,0,0,8.54,19.61a2.59,2.59,0,0,0,4,3.34,20.65,20.65,0,0,1,31.7,0,2.59,2.59,0,0,0,2,.92,2.59,2.59,0,0,0,2-4.25,25.84,25.84,0,0,0-19.81-9.25Zm0,10.36a15.5,15.5,0,0,0-11.89,5.55,2.58,2.58,0,0,0,.32,3.64,2.52,2.52,0,0,0,1.66.61,2.6,2.6,0,0,0,2-.92,10.31,10.31,0,0,1,15.84,0,2.6,2.6,0,0,0,2,.92,2.52,2.52,0,0,0,1.66-.61,2.58,2.58,0,0,0,.32-3.64,15.49,15.49,0,0,0-11.89-5.55Zm0,0"/></g></g></svg>