<svg xmlns="http://www.w3.org/2000/svg" viewBox="0 0 97.59 28.17"><defs><style>.cls-1{fill:#333;}.cls-2{fill:#fff;}</style></defs><title>7</title><g id="Layer_2" data-name="Layer 2"><g id="wifi"><rect class="cls-1" x="59.12" y="18.38" width="7.51" height="7.72" rx="1.67" ry="1.67" transform="translate(2.19 49.91) rotate(-43.99)"/><rect class="cls-1" x="89.86" y="20.65" width="7.72" height="7.51" rx="1.67" ry="1.67"/><path class="cls-2" d="M61.16,18.12c.16-3.86,3.12-1.66,2.33-3.92s-2.81-5-1.35-5.71,2.74-1.57,3.5-.21c.55,1,0-3.76,4.69-6.15.85-.43,2.37.27,3.59,0s2.41-1,4.29-1c0,0-4.82,0,0,0h9.25c4,2.92,5.22,9.29,5.22,9.29s4.91,1.46,4.91,8V25H66.69S61,22,61.16,18.12Z"/><rect class="cls-2" x="91.27" y="7.52" width="6.09" height="3.9" rx="1.67" ry="1.67"/><path class="cls-1" d="M69.41,16.74c3-.19,5.93-1,7.48-1H89.15a2.75,2.75,0,1,1,0,1.08H77c-1.16,0-4.64,1.32-7.55,1C68.65,17.43,69.35,16.94,69.41,16.74Z"/><path class="cls-1" d="M64.18,16.82c-.19.79,1.28,1.5,3,1.91s3.18.1,3.38-.69-.48-1.9-2.15-2.31S64.37,16,64.18,16.82Z"/><path class="cls-1" d="M67.56,7.09c1.07-2,2.82-4,4.13-3.65,2.2.59,3.46-.17,6.17-.42S86.14,3,87,3a22.28,22.28,0,0,1,3.55,7.27s-7.78-.57-11.14.08-4.77-3.69-12.34-.07A4.3,4.3,0,0,1,67.56,7.09Z"/><path class="cls-1" d="M85.45,22.72a.3.3,0,0,0,.3.3h0a.3.3,0,0,0,.3-.3V19.33a.3.3,0,0,0-.3-.3h0a.3.3,0,0,0-.3.3Z"/><path class="cls-1" d="M84.17,22.72a.3.3,0,0,0,.3.3h0a.3.3,0,0,0,.3-.3V19.33a.3.3,0,0,0-.3-.3h0a.3.3,0,0,0-.3.3Z"/><path class="cls-1" d="M82.89,22.72a.3.3,0,0,0,.3.3h0a.3.3,0,0,0,.3-.3V19.33a.3.3,0,0,0-.3-.3h0a.3.3,0,0,0-.3.3Z"/><path class="cls-1" d="M81.6,22.72a.3.3,0,0,0,.3.3h0a.3.3,0,0,0,.3-.3V19.33a.3.3,0,0,0-.3-.3h0a.3.3,0,0,0-.3.3Z"/><path class="cls-1" d="M80.32,22.72a.3.3,0,0,0,.3.3h0a.3.3,0,0,0,.3-.3V19.33a.3.3,0,0,0-.3-.3h0a.3.3,0,0,0-.3.3Z"/><path class="cls-1" d="M78.81,22.37a.3.3,0,0,0,.34.26h0a.3.3,0,0,0,.26-.34L79,18.93a.3.3,0,0,0-.34-.26h0a.3.3,0,0,0-.26.34Z"/><path class="cls-1" d="M77.46,22.37a.3.3,0,0,0,.34.26h0a.3.3,0,0,0,.26-.34l-.46-3.36a.3.3,0,0,0-.34-.26h0A.3.3,0,0,0,77,19Z"/><path class="cls-1" d="M76.18,23a.3.3,0,0,0,.37.22h0a.3.3,0,0,0,.22-.37l-.85-3.29a.3.3,0,0,0-.37-.22h0a.3.3,0,0,0-.22.37Z"/><path class="cls-1" d="M74.78,22.65a.3.3,0,0,0,.37.22h0a.3.3,0,0,0,.22-.37l-.85-3.29a.3.3,0,0,0-.37-.22h0a.3.3,0,0,0-.22.37Z"/><path class="cls-1" d="M73.74,23.42a.3.3,0,0,0,.39.17h0a.3.3,0,0,0,.17-.39L73.09,20a.3.3,0,0,0-.39-.17h0a.3.3,0,0,0-.17.39Z"/><path class="cls-2" d="M7.65,16A33.75,33.75,0,0,1,2.53,14.1c-1-.65-3-1.69-2.45-3.34S.66,7.33,2.74,7.47c-.83-.79-.08-5.84,2.35-5.7s2.88.58,8.39-.59S36,.34,40.11,3.36C43,5.52,44.95,6.91,45.83,7.53A17.34,17.34,0,0,0,49.4,8.89s3.51-6.12,4.12-5.94,4,2,4.07,1.2L58,0l1.11.12a47.92,47.92,0,0,1-.67,5.74c-.29.49-4.25-1.45-4.73-1.62S51,8.46,50.71,9s1.12,3.34,1.12,3.34,4.47.12,4.06.6.5,2.54.23,3.14,1.22,1.46,1.69,2.41-.34,7.09-.82,7.75S54,26,54,26s.49-7.3-2.62-7.06-4.57,4.91-4.57,4.91l-2.55-1-4.51.26L19,18.76Z"/><circle class="cls-1" cx="13.36" cy="14.57" r="5.87" transform="translate(-2.52 26.33) rotate(-83.99)"/><path class="cls-1" d="M17.64,5.47l13.68,3A15.51,15.51,0,0,0,33,2.68C20.62.67,17.64,5.47,17.64,5.47Z"/><path class="cls-1" d="M34.8,3.36c-.18,1.75-1.26,5.95-1.26,5.95s6.94.63,10.36,1.94,5.33,1.74,5.78.08c-.79-1.16-1.27-.93-3.72-2.38S38.71,4.52,34.8,3.36Z"/><path class="cls-2" d="M12.83,19.65a5.11,5.11,0,0,1,.53-10.2l.54,0a5.11,5.11,0,0,1-.53,10.2Zm-2.2-5.37a2.75,2.75,0,0,0,2.44,3l.29,0a2.75,2.75,0,0,0,.28-5.48l-.29,0A2.74,2.74,0,0,0,10.63,14.28Z"/><path class="cls-2" d="M45.55,23.6c-.69-2.29.9-3.1,1.95-3.65a8.6,8.6,0,0,0,1.79-1.14,4,4,0,0,1,2.61-1.06,3.67,3.67,0,0,1,3.43,2.87,5.11,5.11,0,1,1-9.78,3Zm5.29-3a10.71,10.71,0,0,1-2.26,1.45,4.58,4.58,0,0,0-.83.49,1.21,1.21,0,0,0,.07.36,2.74,2.74,0,0,0,3.42,1.83,2.75,2.75,0,0,0,1.83-3.42c-.11-.36-.44-1.19-1.17-1.19A1.71,1.71,0,0,0,50.83,20.61Z"/></g></g></svg>