<svg id="wifi_copy" data-name="wifi copy" xmlns="http://www.w3.org/2000/svg" viewBox="0 0 32 28"><title>camera</title><g id="_4" data-name="4"><path d="M115.33,345.67h-3l-1-2c-0.59-1.16-.9-2-2-2h-12c-1.1,0-1.47,1-2,2l-1,2h-3a4,4,0,0,0-4,4v16a4,4,0,0,0,4,4h24a4,4,0,0,0,4-4v-16A4,4,0,0,0,115.33,345.67Zm2,20a2,2,0,0,1-2,2h-24a2,2,0,0,1-2-2v-16a2,2,0,0,1,2-2h4l1-2c0.71-1.16.9-2,2-2h10c1.1,0,1.29.84,2,2l1,2h4a2,2,0,0,1,2,2v16Zm-14-16a8,8,0,1,0,8,8A8,8,0,0,0,103.33,349.67Zm0,14a6,6,0,1,1,6-6A6,6,0,0,1,103.33,363.67Z" transform="translate(-87.33 -341.67)"/></g></svg>