<svg id="wifi_copy" data-name="wifi copy" xmlns="http://www.w3.org/2000/svg" viewBox="0 0 32 24"><defs><style>.cls-1{font-size:14px;stroke:#000;stroke-miterlimit:10;stroke-width:0.5px;font-family:Comfortaa;font-weight:700;}.cls-2{fill:none;}</style></defs><title>docs</title><text class="cls-1" transform="translate(1.11 14.07)">&lt;</text><g id="_6" data-name="6"><rect class="cls-2" x="2" y="2" width="28" height="20" rx="2" ry="2"/><path d="M355,658H331a4,4,0,0,0-4,4v16a4,4,0,0,0,4,4h24a4,4,0,0,0,4-4V662A4,4,0,0,0,355,658Zm2,20a2,2,0,0,1-2,2H331a2,2,0,0,1-2-2V662a2,2,0,0,1,2-2h24a2,2,0,0,1,2,2v16Z" transform="translate(-327 -658)"/></g><rect x="12" y="13" width="7" height="2" rx="0.94" ry="0.94"/></svg>