<svg id="wifi_copy" data-name="wifi copy" xmlns="http://www.w3.org/2000/svg" xmlns:xlink="http://www.w3.org/1999/xlink" viewBox="0 0 34.19 24.98"><defs><style>.cls-1{fill:none;}.cls-2{clip-path:url(#clip-path);}.cls-3{fill:#f06060;fill-rule:evenodd;}</style><clipPath id="clip-path" transform="translate(-85.48 -498.91)"><rect class="cls-1" x="85.48" y="498.91" width="34.97" height="26.02"/></clipPath></defs><title>wifi</title><g class="cls-2"><path class="cls-3" d="M102.58,517.64a3.12,3.12,0,1,0,3.12,3.13,3.13,3.13,0,0,0-3.12-3.13h0Zm16.73-10.91a21.81,21.81,0,0,0-33.46,0,1.56,1.56,0,0,0,.19,2.2,1.56,1.56,0,0,0,2.19-.19,18.69,18.69,0,0,1,28.68,0,1.53,1.53,0,0,0,1.19.56,1.56,1.56,0,0,0,1.19-2.57h0Zm-16.73-1.57a15.58,15.58,0,0,0-11.95,5.58,1.56,1.56,0,0,0,2.39,2,12.45,12.45,0,0,1,19.12,0,1.56,1.56,0,0,0,1.19.55,1.56,1.56,0,0,0,1.19-2.57,15.58,15.58,0,0,0-11.95-5.58h0Zm0,6.25a9.34,9.34,0,0,0-7.17,3.35,1.56,1.56,0,0,0,.19,2.19,1.52,1.52,0,0,0,1,.37,1.57,1.57,0,0,0,1.2-.55,6.22,6.22,0,0,1,9.55,0,1.57,1.57,0,0,0,1.2.55,1.52,1.52,0,0,0,1-.37,1.56,1.56,0,0,0,.19-2.19,9.34,9.34,0,0,0-7.17-3.35h0Zm0,0" transform="translate(-85.48 -498.91)"/></g></svg>