<svg xmlns="http://www.w3.org/2000/svg" viewBox="0 0 398.09 374.9"><defs><style>.cls-1{fill:#72c6ce;}.cls-2{fill:#f06060;}.cls-3{fill:#f3b562;}.cls-4{fill:#93b331;}</style></defs><title>cars</title><g id="Layer_2" data-name="Layer 2"><g id="wifi"><path class="cls-1" d="M75.13,365.63h-.25c.31-3.26-2.08-8.79-3.73-11.25a31.36,31.36,0,0,0-16-11.9c-5.38-1.66-19.29-1.54-22.54,0-4.35,2.06-9.34,9.73-9.32,9.92,0,0-18.83.14-18.9.17a2.07,2.07,0,0,0-2,2.07,1.89,1.89,0,0,0,.58,1.65v.09A8.58,8.58,0,0,0,1.82,361c0,1.7,0,3.29.83,4.63H2a2,2,0,0,0-2,2v.33c0,1.09.89,2.48,2,2.48H7c.09,2.76,2.34,4.47,5.12,4.47a4.92,4.92,0,0,0,5.12-4.72l34.43-.74c.09,2.76,1.65,5.46,5.12,5.46s5-2.7,5.12-5.46H75.13c1.09,0,2-.4,2-1.49v-.33A2,2,0,0,0,75.13,365.63ZM43,348.68a3.8,3.8,0,0,1-3.79,3.79H29.57c-2.09,0-2.74-1.35-1.46-3l1.66-2.12a8.81,8.81,0,0,1,6.12-3h3.29A3.8,3.8,0,0,1,43,348.17ZM56,352.48H48.67a3.8,3.8,0,0,1-3.79-3.79v-.52a3.8,3.8,0,0,1,3.79-3.79h1.05c2.09,0,6.57.61,8.8,3,.42.44,1.47,1.94,1.47,1.94C61.27,351.52,60.65,352.48,56,352.48Z"/><path class="cls-2" d="M75.13,316.88h-.25c.31-3.26-2.08-8.79-3.73-11.25a31.36,31.36,0,0,0-16-11.9c-5.38-1.66-19.29-1.54-22.54,0-4.35,2.06-9.34,9.73-9.32,9.92,0,0-18.83.14-18.9.17a2.07,2.07,0,0,0-2,2.07,1.89,1.89,0,0,0,.58,1.65v.09a8.58,8.58,0,0,0-1.07,4.63c0,1.7,0,3.29.83,4.63H2a2,2,0,0,0-2,2v.33c0,1.09.89,2.48,2,2.48H7c.09,2.76,2.34,4.47,5.12,4.47a4.92,4.92,0,0,0,5.12-4.72l34.43-.74c.09,2.76,1.65,5.46,5.12,5.46s5-2.7,5.12-5.46H75.13c1.09,0,2-.4,2-1.49v-.33A2,2,0,0,0,75.13,316.88ZM43,299.93a3.8,3.8,0,0,1-3.79,3.79H29.57c-2.09,0-2.74-1.35-1.46-3l1.66-2.12a8.81,8.81,0,0,1,6.12-3h3.29A3.8,3.8,0,0,1,43,299.41ZM56,303.72H48.67a3.8,3.8,0,0,1-3.79-3.79v-.52a3.8,3.8,0,0,1,3.79-3.79h1.05c2.09,0,6.57.61,8.8,3,.42.44,1.47,1.94,1.47,1.94C61.27,302.77,60.65,303.72,56,303.72Z"/><path class="cls-3" d="M75.13,268.12h-.25c.31-3.26-2.08-8.79-3.73-11.25a31.36,31.36,0,0,0-16-11.9c-5.38-1.66-19.29-1.54-22.54,0-4.35,2.06-9.34,9.73-9.32,9.92,0,0-18.83.14-18.9.17a2.07,2.07,0,0,0-2,2.07,1.89,1.89,0,0,0,.58,1.65v.09a8.58,8.58,0,0,0-1.07,4.63c0,1.7,0,3.29.83,4.63H2a2,2,0,0,0-2,2v.33c0,1.09.89,2.48,2,2.48H7c.09,2.76,2.34,4.47,5.12,4.47a4.92,4.92,0,0,0,5.12-4.72l34.43-.74c.09,2.76,1.65,5.46,5.12,5.46s5-2.7,5.12-5.46H75.13c1.09,0,2-.4,2-1.49v-.33A2,2,0,0,0,75.13,268.12ZM43,251.18A3.8,3.8,0,0,1,39.17,255H29.57c-2.09,0-2.74-1.35-1.46-3l1.66-2.12a8.81,8.81,0,0,1,6.12-3h3.29A3.8,3.8,0,0,1,43,250.66ZM56,255H48.67a3.8,3.8,0,0,1-3.79-3.79v-.52a3.8,3.8,0,0,1,3.79-3.79h1.05c2.09,0,6.57.61,8.8,3,.42.44,1.47,1.94,1.47,1.94C61.27,254,60.65,255,56,255Z"/><path class="cls-1" d="M75.13,219.37h-.25c.31-3.26-2.08-8.79-3.73-11.25a31.36,31.36,0,0,0-16-11.9c-5.38-1.66-19.29-1.54-22.54,0-4.35,2.06-9.34,9.73-9.32,9.92,0,0-18.83.14-18.9.17a2.07,2.07,0,0,0-2,2.07A1.89,1.89,0,0,0,2.9,210v.09a8.58,8.58,0,0,0-1.07,4.63c0,1.7,0,3.29.83,4.63H2a2,2,0,0,0-2,2v.33c0,1.09.89,2.48,2,2.48H7c.09,2.76,2.34,4.47,5.12,4.47a4.92,4.92,0,0,0,5.12-4.72l34.43-.74c.09,2.76,1.65,5.46,5.12,5.46s5-2.7,5.12-5.46H75.13c1.09,0,2-.4,2-1.49v-.33A2,2,0,0,0,75.13,219.37ZM43,202.42a3.8,3.8,0,0,1-3.79,3.79H29.57c-2.09,0-2.74-1.35-1.46-3l1.66-2.12a8.81,8.81,0,0,1,6.12-3h3.29A3.8,3.8,0,0,1,43,201.91ZM56,206.22H48.67a3.8,3.8,0,0,1-3.79-3.79v-.52a3.8,3.8,0,0,1,3.79-3.79h1.05c2.09,0,6.57.61,8.8,3,.42.44,1.47,1.94,1.47,1.94C61.27,205.26,60.65,206.22,56,206.22Z"/><path class="cls-4" d="M75.13,170.62h-.25c.31-3.26-2.08-8.79-3.73-11.25a31.36,31.36,0,0,0-16-11.9c-5.38-1.66-19.29-1.54-22.54,0-4.35,2.06-9.34,9.73-9.32,9.92,0,0-18.83.14-18.9.17a2.07,2.07,0,0,0-2,2.07,1.89,1.89,0,0,0,.58,1.65v.09A8.58,8.58,0,0,0,1.82,166c0,1.7,0,3.29.83,4.63H2a2,2,0,0,0-2,2v.33c0,1.09.89,2.48,2,2.48H7c.09,2.76,2.34,4.47,5.12,4.47a4.92,4.92,0,0,0,5.12-4.72l34.43-.74c.09,2.76,1.65,5.46,5.12,5.46s5-2.7,5.12-5.46H75.13c1.09,0,2-.4,2-1.49v-.33A2,2,0,0,0,75.13,170.62ZM43,153.67a3.8,3.8,0,0,1-3.79,3.79H29.57c-2.09,0-2.74-1.35-1.46-3l1.66-2.12a8.81,8.81,0,0,1,6.12-3h3.29A3.8,3.8,0,0,1,43,153.15ZM56,157.47H48.67a3.8,3.8,0,0,1-3.79-3.79v-.52a3.8,3.8,0,0,1,3.79-3.79h1.05c2.09,0,6.57.61,8.8,3,.42.44,1.47,1.94,1.47,1.94C61.27,156.51,60.65,157.47,56,157.47Z"/><path class="cls-2" d="M75.13,121.87h-.25c.31-3.26-2.08-8.79-3.73-11.25a31.36,31.36,0,0,0-16-11.9c-5.38-1.66-19.29-1.54-22.54,0-4.35,2.06-9.34,9.73-9.32,9.92,0,0-18.83.14-18.9.17a2.07,2.07,0,0,0-2,2.07,1.89,1.89,0,0,0,.58,1.65v.09a8.58,8.58,0,0,0-1.07,4.63c0,1.7,0,3.29.83,4.63H2a2,2,0,0,0-2,2v.33c0,1.09.89,2.48,2,2.48H7c.09,2.76,2.34,4.47,5.12,4.47a4.92,4.92,0,0,0,5.12-4.72l34.43-.74c.09,2.76,1.65,5.46,5.12,5.46s5-2.7,5.12-5.46H75.13c1.09,0,2-.4,2-1.49v-.33A2,2,0,0,0,75.13,121.87ZM43,104.92a3.8,3.8,0,0,1-3.79,3.79H29.57c-2.09,0-2.74-1.35-1.46-3l1.66-2.12a8.81,8.81,0,0,1,6.12-3h3.29A3.8,3.8,0,0,1,43,104.4ZM56,108.71H48.67a3.8,3.8,0,0,1-3.79-3.79v-.52a3.8,3.8,0,0,1,3.79-3.79h1.05c2.09,0,6.57.61,8.8,3,.42.44,1.47,1.94,1.47,1.94C61.27,107.76,60.65,108.71,56,108.71Z"/><path class="cls-3" d="M75.13,73.11h-.25c.31-3.26-2.08-8.79-3.73-11.25A31.36,31.36,0,0,0,55.1,50c-5.38-1.66-19.29-1.54-22.54,0-4.35,2.06-9.34,9.73-9.32,9.92,0,0-18.83.14-18.9.17a2.07,2.07,0,0,0-2,2.07,1.89,1.89,0,0,0,.58,1.65v.09a8.58,8.58,0,0,0-1.07,4.63c0,1.7,0,3.29.83,4.63H2a2,2,0,0,0-2,2v.33c0,1.09.89,2.48,2,2.48H7c.09,2.76,2.34,4.47,5.12,4.47a4.92,4.92,0,0,0,5.12-4.72l34.43-.74c.09,2.76,1.65,5.46,5.12,5.46s5-2.7,5.12-5.46H75.13c1.09,0,2-.4,2-1.49V75.1A2,2,0,0,0,75.13,73.11ZM43,56.17A3.8,3.8,0,0,1,39.17,60H29.57c-2.09,0-2.74-1.35-1.46-3l1.66-2.12a8.81,8.81,0,0,1,6.12-3h3.29A3.8,3.8,0,0,1,43,55.65ZM56,60H48.67a3.8,3.8,0,0,1-3.79-3.79v-.52a3.8,3.8,0,0,1,3.79-3.79h1.05c2.09,0,6.57.61,8.8,3,.42.44,1.47,1.94,1.47,1.94C61.27,59,60.65,60,56,60Z"/><path class="cls-1" d="M75.13,24.36h-.25c.31-3.26-2.08-8.79-3.73-11.25a31.36,31.36,0,0,0-16-11.9C49.72-.46,35.81-.34,32.56,1.2c-4.35,2.06-9.34,9.73-9.32,9.92,0,0-18.83.14-18.9.17a2.07,2.07,0,0,0-2,2.07A1.89,1.89,0,0,0,2.9,15v.09a8.58,8.58,0,0,0-1.07,4.63c0,1.7,0,3.29.83,4.63H2a2,2,0,0,0-2,2v.33c0,1.09.89,2.48,2,2.48H7c.09,2.76,2.34,4.47,5.12,4.47a4.92,4.92,0,0,0,5.12-4.72l34.43-.74c.09,2.76,1.65,5.46,5.12,5.46s5-2.7,5.12-5.46H75.13c1.09,0,2-.4,2-1.49v-.33A2,2,0,0,0,75.13,24.36ZM43,7.41a3.8,3.8,0,0,1-3.79,3.79H29.57c-2.09,0-2.74-1.35-1.46-3l1.66-2.12a8.81,8.81,0,0,1,6.12-3h3.29A3.8,3.8,0,0,1,43,6.89ZM56,11.21H48.67a3.8,3.8,0,0,1-3.79-3.79V6.89A3.8,3.8,0,0,1,48.67,3.1h1.05c2.09,0,6.57.61,8.8,3C58.93,6.54,60,8,60,8,61.27,10.25,60.65,11.21,56,11.21Z"/><path class="cls-1" d="M182.12,365.63h-.25c.31-3.26-2.08-8.79-3.73-11.25a31.36,31.36,0,0,0-16-11.9c-5.38-1.66-19.29-1.54-22.54,0-4.35,2.06-9.34,9.73-9.32,9.92,0,0-18.83.14-18.9.17a2.07,2.07,0,0,0-2,2.07,1.89,1.89,0,0,0,.58,1.65v.09a8.58,8.58,0,0,0-1.07,4.63c0,1.7,0,3.29.83,4.63H109a2,2,0,0,0-2,2v.33c0,1.09.89,2.48,2,2.48h5c.09,2.76,2.34,4.47,5.12,4.47a4.92,4.92,0,0,0,5.12-4.72l34.43-.74c.09,2.76,1.65,5.46,5.12,5.46s5-2.7,5.12-5.46h13.25c1.09,0,2-.4,2-1.49v-.33A2,2,0,0,0,182.12,365.63ZM150,348.68a3.8,3.8,0,0,1-3.79,3.79h-9.61c-2.09,0-2.74-1.35-1.46-3l1.66-2.12a8.81,8.81,0,0,1,6.12-3h3.29a3.8,3.8,0,0,1,3.79,3.79ZM163,352.48h-7.38a3.8,3.8,0,0,1-3.79-3.79v-.52a3.8,3.8,0,0,1,3.79-3.79h1.05c2.09,0,6.57.61,8.8,3,.42.44,1.47,1.94,1.47,1.94C168.26,351.52,167.64,352.48,163,352.48Z"/><path class="cls-2" d="M182.12,316.88h-.25c.31-3.26-2.08-8.79-3.73-11.25a31.36,31.36,0,0,0-16-11.9c-5.38-1.66-19.29-1.54-22.54,0-4.35,2.06-9.34,9.73-9.32,9.92,0,0-18.83.14-18.9.17a2.07,2.07,0,0,0-2,2.07,1.89,1.89,0,0,0,.58,1.65v.09a8.58,8.58,0,0,0-1.07,4.63c0,1.7,0,3.29.83,4.63H109a2,2,0,0,0-2,2v.33c0,1.09.89,2.48,2,2.48h5c.09,2.76,2.34,4.47,5.12,4.47a4.92,4.92,0,0,0,5.12-4.72l34.43-.74c.09,2.76,1.65,5.46,5.12,5.46s5-2.7,5.12-5.46h13.25c1.09,0,2-.4,2-1.49v-.33A2,2,0,0,0,182.12,316.88ZM150,299.93a3.8,3.8,0,0,1-3.79,3.79h-9.61c-2.09,0-2.74-1.35-1.46-3l1.66-2.12a8.81,8.81,0,0,1,6.12-3h3.29a3.8,3.8,0,0,1,3.79,3.79ZM163,303.72h-7.38a3.8,3.8,0,0,1-3.79-3.79v-.52a3.8,3.8,0,0,1,3.79-3.79h1.05c2.09,0,6.57.61,8.8,3,.42.44,1.47,1.94,1.47,1.94C168.26,302.77,167.64,303.72,163,303.72Z"/><path class="cls-3" d="M182.12,268.12h-.25c.31-3.26-2.08-8.79-3.73-11.25a31.36,31.36,0,0,0-16-11.9c-5.38-1.66-19.29-1.54-22.54,0-4.35,2.06-9.34,9.73-9.32,9.92,0,0-18.83.14-18.9.17a2.07,2.07,0,0,0-2,2.07,1.89,1.89,0,0,0,.58,1.65v.09a8.58,8.58,0,0,0-1.07,4.63c0,1.7,0,3.29.83,4.63H109a2,2,0,0,0-2,2v.33c0,1.09.89,2.48,2,2.48h5c.09,2.76,2.34,4.47,5.12,4.47a4.92,4.92,0,0,0,5.12-4.72l34.43-.74c.09,2.76,1.65,5.46,5.12,5.46s5-2.7,5.12-5.46h13.25c1.09,0,2-.4,2-1.49v-.33A2,2,0,0,0,182.12,268.12ZM150,251.18a3.8,3.8,0,0,1-3.79,3.79h-9.61c-2.09,0-2.74-1.35-1.46-3l1.66-2.12a8.81,8.81,0,0,1,6.12-3h3.29a3.8,3.8,0,0,1,3.79,3.79ZM163,255h-7.38a3.8,3.8,0,0,1-3.79-3.79v-.52a3.8,3.8,0,0,1,3.79-3.79h1.05c2.09,0,6.57.61,8.8,3,.42.44,1.47,1.94,1.47,1.94C168.26,254,167.64,255,163,255Z"/><path class="cls-1" d="M182.12,219.37h-.25c.31-3.26-2.08-8.79-3.73-11.25a31.36,31.36,0,0,0-16-11.9c-5.38-1.66-19.29-1.54-22.54,0-4.35,2.06-9.34,9.73-9.32,9.92,0,0-18.83.14-18.9.17a2.07,2.07,0,0,0-2,2.07,1.89,1.89,0,0,0,.58,1.65v.09a8.58,8.58,0,0,0-1.07,4.63c0,1.7,0,3.29.83,4.63H109a2,2,0,0,0-2,2v.33c0,1.09.89,2.48,2,2.48h5c.09,2.76,2.34,4.47,5.12,4.47a4.92,4.92,0,0,0,5.12-4.72l34.43-.74c.09,2.76,1.65,5.46,5.12,5.46s5-2.7,5.12-5.46h13.25c1.09,0,2-.4,2-1.49v-.33A2,2,0,0,0,182.12,219.37ZM150,202.42a3.8,3.8,0,0,1-3.79,3.79h-9.61c-2.09,0-2.74-1.35-1.46-3l1.66-2.12a8.81,8.81,0,0,1,6.12-3h3.29a3.8,3.8,0,0,1,3.79,3.79ZM163,206.22h-7.38a3.8,3.8,0,0,1-3.79-3.79v-.52a3.8,3.8,0,0,1,3.79-3.79h1.05c2.09,0,6.57.61,8.8,3,.42.44,1.47,1.94,1.47,1.94C168.26,205.26,167.64,206.22,163,206.22Z"/><path class="cls-4" d="M182.12,170.62h-.25c.31-3.26-2.08-8.79-3.73-11.25a31.36,31.36,0,0,0-16-11.9c-5.38-1.66-19.29-1.54-22.54,0-4.35,2.06-9.34,9.73-9.32,9.92,0,0-18.83.14-18.9.17a2.07,2.07,0,0,0-2,2.07,1.89,1.89,0,0,0,.58,1.65v.09a8.58,8.58,0,0,0-1.07,4.63c0,1.7,0,3.29.83,4.63H109a2,2,0,0,0-2,2v.33c0,1.09.89,2.48,2,2.48h5c.09,2.76,2.34,4.47,5.12,4.47a4.92,4.92,0,0,0,5.12-4.72l34.43-.74c.09,2.76,1.65,5.46,5.12,5.46s5-2.7,5.12-5.46h13.25c1.09,0,2-.4,2-1.49v-.33A2,2,0,0,0,182.12,170.62ZM150,153.67a3.8,3.8,0,0,1-3.79,3.79h-9.61c-2.09,0-2.74-1.35-1.46-3l1.66-2.12a8.81,8.81,0,0,1,6.12-3h3.29a3.8,3.8,0,0,1,3.79,3.79ZM163,157.47h-7.38a3.8,3.8,0,0,1-3.79-3.79v-.52a3.8,3.8,0,0,1,3.79-3.79h1.05c2.09,0,6.57.61,8.8,3,.42.44,1.47,1.94,1.47,1.94C168.26,156.51,167.64,157.47,163,157.47Z"/><path class="cls-2" d="M182.12,121.87h-.25c.31-3.26-2.08-8.79-3.73-11.25a31.36,31.36,0,0,0-16-11.9c-5.38-1.66-19.29-1.54-22.54,0-4.35,2.06-9.34,9.73-9.32,9.92,0,0-18.83.14-18.9.17a2.07,2.07,0,0,0-2,2.07,1.89,1.89,0,0,0,.58,1.65v.09a8.58,8.58,0,0,0-1.07,4.63c0,1.7,0,3.29.83,4.63H109a2,2,0,0,0-2,2v.33c0,1.09.89,2.48,2,2.48h5c.09,2.76,2.34,4.47,5.12,4.47a4.92,4.92,0,0,0,5.12-4.72l34.43-.74c.09,2.76,1.65,5.46,5.12,5.46s5-2.7,5.12-5.46h13.25c1.09,0,2-.4,2-1.49v-.33A2,2,0,0,0,182.12,121.87ZM150,104.92a3.8,3.8,0,0,1-3.79,3.79h-9.61c-2.09,0-2.74-1.35-1.46-3l1.66-2.12a8.81,8.81,0,0,1,6.12-3h3.29A3.8,3.8,0,0,1,150,104.4ZM163,108.71h-7.38a3.8,3.8,0,0,1-3.79-3.79v-.52a3.8,3.8,0,0,1,3.79-3.79h1.05c2.09,0,6.57.61,8.8,3,.42.44,1.47,1.94,1.47,1.94C168.26,107.76,167.64,108.71,163,108.71Z"/><path class="cls-3" d="M182.12,73.11h-.25c.31-3.26-2.08-8.79-3.73-11.25a31.36,31.36,0,0,0-16-11.9c-5.38-1.66-19.29-1.54-22.54,0-4.35,2.06-9.34,9.73-9.32,9.92,0,0-18.83.14-18.9.17a2.07,2.07,0,0,0-2,2.07,1.89,1.89,0,0,0,.58,1.65v.09a8.58,8.58,0,0,0-1.07,4.63c0,1.7,0,3.29.83,4.63H109a2,2,0,0,0-2,2v.33c0,1.09.89,2.48,2,2.48h5c.09,2.76,2.34,4.47,5.12,4.47a4.92,4.92,0,0,0,5.12-4.72l34.43-.74c.09,2.76,1.65,5.46,5.12,5.46s5-2.7,5.12-5.46h13.25c1.09,0,2-.4,2-1.49V75.1A2,2,0,0,0,182.12,73.11ZM150,56.17A3.8,3.8,0,0,1,146.17,60h-9.61c-2.09,0-2.74-1.35-1.46-3l1.66-2.12a8.81,8.81,0,0,1,6.12-3h3.29A3.8,3.8,0,0,1,150,55.65ZM163,60h-7.38a3.8,3.8,0,0,1-3.79-3.79v-.52a3.8,3.8,0,0,1,3.79-3.79h1.05c2.09,0,6.57.61,8.8,3,.42.44,1.47,1.94,1.47,1.94C168.26,59,167.64,60,163,60Z"/><path class="cls-1" d="M182.12,24.36h-.25c.31-3.26-2.08-8.79-3.73-11.25a31.36,31.36,0,0,0-16-11.9c-5.38-1.66-19.29-1.54-22.54,0-4.35,2.06-9.34,9.73-9.32,9.92,0,0-18.83.14-18.9.17a2.07,2.07,0,0,0-2,2.07,1.89,1.89,0,0,0,.58,1.65v.09a8.58,8.58,0,0,0-1.07,4.63c0,1.7,0,3.29.83,4.63H109a2,2,0,0,0-2,2v.33c0,1.09.89,2.48,2,2.48h5c.09,2.76,2.34,4.47,5.12,4.47a4.92,4.92,0,0,0,5.12-4.72l34.43-.74c.09,2.76,1.65,5.46,5.12,5.46s5-2.7,5.12-5.46h13.25c1.09,0,2-.4,2-1.49v-.33A2,2,0,0,0,182.12,24.36ZM150,7.41a3.8,3.8,0,0,1-3.79,3.79h-9.61c-2.09,0-2.74-1.35-1.46-3l1.66-2.12a8.81,8.81,0,0,1,6.12-3h3.29A3.8,3.8,0,0,1,150,6.89ZM163,11.21h-7.38a3.8,3.8,0,0,1-3.79-3.79V6.89a3.8,3.8,0,0,1,3.79-3.79h1.05c2.09,0,6.57.61,8.8,3C165.92,6.54,167,8,167,8,168.26,10.25,167.64,11.21,163,11.21Z"/><path class="cls-1" d="M289.11,365.63h-.25c.31-3.26-2.08-8.79-3.73-11.25a31.36,31.36,0,0,0-16-11.9c-5.38-1.66-19.29-1.54-22.54,0-4.35,2.06-9.34,9.73-9.32,9.92,0,0-18.83.14-18.9.17a2.07,2.07,0,0,0-2,2.07,1.89,1.89,0,0,0,.58,1.65v.09a8.58,8.58,0,0,0-1.07,4.63c0,1.7,0,3.29.83,4.63H216a2,2,0,0,0-2,2v.33c0,1.09.89,2.48,2,2.48h5c.09,2.76,2.34,4.47,5.12,4.47a4.92,4.92,0,0,0,5.12-4.72l34.43-.74c.09,2.76,1.65,5.46,5.12,5.46s5-2.7,5.12-5.46h13.25c1.09,0,2-.4,2-1.49v-.33A2,2,0,0,0,289.11,365.63ZM257,348.68a3.8,3.8,0,0,1-3.79,3.79h-9.61c-2.09,0-2.74-1.35-1.46-3l1.66-2.12a8.81,8.81,0,0,1,6.12-3h3.29a3.8,3.8,0,0,1,3.79,3.79ZM270,352.48h-7.38a3.8,3.8,0,0,1-3.79-3.79v-.52a3.8,3.8,0,0,1,3.79-3.79h1.05c2.09,0,6.57.61,8.8,3,.42.44,1.47,1.94,1.47,1.94C275.25,351.52,274.63,352.48,270,352.48Z"/><path class="cls-2" d="M289.11,316.88h-.25c.31-3.26-2.08-8.79-3.73-11.25a31.36,31.36,0,0,0-16-11.9c-5.38-1.66-19.29-1.54-22.54,0-4.35,2.06-9.34,9.73-9.32,9.92,0,0-18.83.14-18.9.17a2.07,2.07,0,0,0-2,2.07,1.89,1.89,0,0,0,.58,1.65v.09a8.58,8.58,0,0,0-1.07,4.63c0,1.7,0,3.29.83,4.63H216a2,2,0,0,0-2,2v.33c0,1.09.89,2.48,2,2.48h5c.09,2.76,2.34,4.47,5.12,4.47a4.92,4.92,0,0,0,5.12-4.72l34.43-.74c.09,2.76,1.65,5.46,5.12,5.46s5-2.7,5.12-5.46h13.25c1.09,0,2-.4,2-1.49v-.33A2,2,0,0,0,289.11,316.88ZM257,299.93a3.8,3.8,0,0,1-3.79,3.79h-9.61c-2.09,0-2.74-1.35-1.46-3l1.66-2.12a8.81,8.81,0,0,1,6.12-3h3.29a3.8,3.8,0,0,1,3.79,3.79ZM270,303.72h-7.38a3.8,3.8,0,0,1-3.79-3.79v-.52a3.8,3.8,0,0,1,3.79-3.79h1.05c2.09,0,6.57.61,8.8,3,.42.44,1.47,1.94,1.47,1.94C275.25,302.77,274.63,303.72,270,303.72Z"/><path class="cls-3" d="M289.11,268.12h-.25c.31-3.26-2.08-8.79-3.73-11.25a31.36,31.36,0,0,0-16-11.9c-5.38-1.66-19.29-1.54-22.54,0-4.35,2.06-9.34,9.73-9.32,9.92,0,0-18.83.14-18.9.17a2.07,2.07,0,0,0-2,2.07,1.89,1.89,0,0,0,.58,1.65v.09a8.58,8.58,0,0,0-1.07,4.63c0,1.7,0,3.29.83,4.63H216a2,2,0,0,0-2,2v.33c0,1.09.89,2.48,2,2.48h5c.09,2.76,2.34,4.47,5.12,4.47a4.92,4.92,0,0,0,5.12-4.72l34.43-.74c.09,2.76,1.65,5.46,5.12,5.46s5-2.7,5.12-5.46h13.25c1.09,0,2-.4,2-1.49v-.33A2,2,0,0,0,289.11,268.12ZM257,251.18a3.8,3.8,0,0,1-3.79,3.79h-9.61c-2.09,0-2.74-1.35-1.46-3l1.66-2.12a8.81,8.81,0,0,1,6.12-3h3.29a3.8,3.8,0,0,1,3.79,3.79ZM270,255h-7.38a3.8,3.8,0,0,1-3.79-3.79v-.52a3.8,3.8,0,0,1,3.79-3.79h1.05c2.09,0,6.57.61,8.8,3,.42.44,1.47,1.94,1.47,1.94C275.25,254,274.63,255,270,255Z"/><path class="cls-1" d="M289.11,219.37h-.25c.31-3.26-2.08-8.79-3.73-11.25a31.36,31.36,0,0,0-16-11.9c-5.38-1.66-19.29-1.54-22.54,0-4.35,2.06-9.34,9.73-9.32,9.92,0,0-18.83.14-18.9.17a2.07,2.07,0,0,0-2,2.07,1.89,1.89,0,0,0,.58,1.65v.09a8.58,8.58,0,0,0-1.07,4.63c0,1.7,0,3.29.83,4.63H216a2,2,0,0,0-2,2v.33c0,1.09.89,2.48,2,2.48h5c.09,2.76,2.34,4.47,5.12,4.47a4.92,4.92,0,0,0,5.12-4.72l34.43-.74c.09,2.76,1.65,5.46,5.12,5.46s5-2.7,5.12-5.46h13.25c1.09,0,2-.4,2-1.49v-.33A2,2,0,0,0,289.11,219.37ZM257,202.42a3.8,3.8,0,0,1-3.79,3.79h-9.61c-2.09,0-2.74-1.35-1.46-3l1.66-2.12a8.81,8.81,0,0,1,6.12-3h3.29a3.8,3.8,0,0,1,3.79,3.79ZM270,206.22h-7.38a3.8,3.8,0,0,1-3.79-3.79v-.52a3.8,3.8,0,0,1,3.79-3.79h1.05c2.09,0,6.57.61,8.8,3,.42.44,1.47,1.94,1.47,1.94C275.25,205.26,274.63,206.22,270,206.22Z"/><path class="cls-4" d="M289.11,170.62h-.25c.31-3.26-2.08-8.79-3.73-11.25a31.36,31.36,0,0,0-16-11.9c-5.38-1.66-19.29-1.54-22.54,0-4.35,2.06-9.34,9.73-9.32,9.92,0,0-18.83.14-18.9.17a2.07,2.07,0,0,0-2,2.07,1.89,1.89,0,0,0,.58,1.65v.09a8.58,8.58,0,0,0-1.07,4.63c0,1.7,0,3.29.83,4.63H216a2,2,0,0,0-2,2v.33c0,1.09.89,2.48,2,2.48h5c.09,2.76,2.34,4.47,5.12,4.47a4.92,4.92,0,0,0,5.12-4.72l34.43-.74c.09,2.76,1.65,5.46,5.12,5.46s5-2.7,5.12-5.46h13.25c1.09,0,2-.4,2-1.49v-.33A2,2,0,0,0,289.11,170.62ZM257,153.67a3.8,3.8,0,0,1-3.79,3.79h-9.61c-2.09,0-2.74-1.35-1.46-3l1.66-2.12a8.81,8.81,0,0,1,6.12-3h3.29a3.8,3.8,0,0,1,3.79,3.79ZM270,157.47h-7.38a3.8,3.8,0,0,1-3.79-3.79v-.52a3.8,3.8,0,0,1,3.79-3.79h1.05c2.09,0,6.57.61,8.8,3,.42.44,1.47,1.94,1.47,1.94C275.25,156.51,274.63,157.47,270,157.47Z"/><path class="cls-2" d="M289.11,121.87h-.25c.31-3.26-2.08-8.79-3.73-11.25a31.36,31.36,0,0,0-16-11.9c-5.38-1.66-19.29-1.54-22.54,0-4.35,2.06-9.34,9.73-9.32,9.92,0,0-18.83.14-18.9.17a2.07,2.07,0,0,0-2,2.07,1.89,1.89,0,0,0,.58,1.65v.09a8.58,8.58,0,0,0-1.07,4.63c0,1.7,0,3.29.83,4.63H216a2,2,0,0,0-2,2v.33c0,1.09.89,2.48,2,2.48h5c.09,2.76,2.34,4.47,5.12,4.47a4.92,4.92,0,0,0,5.12-4.72l34.43-.74c.09,2.76,1.65,5.46,5.12,5.46s5-2.7,5.12-5.46h13.25c1.09,0,2-.4,2-1.49v-.33A2,2,0,0,0,289.11,121.87ZM257,104.92a3.8,3.8,0,0,1-3.79,3.79h-9.61c-2.09,0-2.74-1.35-1.46-3l1.66-2.12a8.81,8.81,0,0,1,6.12-3h3.29A3.8,3.8,0,0,1,257,104.4ZM270,108.71h-7.38a3.8,3.8,0,0,1-3.79-3.79v-.52a3.8,3.8,0,0,1,3.79-3.79h1.05c2.09,0,6.57.61,8.8,3,.42.44,1.47,1.94,1.47,1.94C275.25,107.76,274.63,108.71,270,108.71Z"/><path class="cls-3" d="M289.11,73.11h-.25c.31-3.26-2.08-8.79-3.73-11.25a31.36,31.36,0,0,0-16-11.9c-5.38-1.66-19.29-1.54-22.54,0-4.35,2.06-9.34,9.73-9.32,9.92,0,0-18.83.14-18.9.17a2.07,2.07,0,0,0-2,2.07,1.89,1.89,0,0,0,.58,1.65v.09a8.58,8.58,0,0,0-1.07,4.63c0,1.7,0,3.29.83,4.63H216a2,2,0,0,0-2,2v.33c0,1.09.89,2.48,2,2.48h5c.09,2.76,2.34,4.47,5.12,4.47a4.92,4.92,0,0,0,5.12-4.72l34.43-.74c.09,2.76,1.65,5.46,5.12,5.46s5-2.7,5.12-5.46h13.25c1.09,0,2-.4,2-1.49V75.1A2,2,0,0,0,289.11,73.11ZM257,56.17A3.8,3.8,0,0,1,253.16,60h-9.61c-2.09,0-2.74-1.35-1.46-3l1.66-2.12a8.81,8.81,0,0,1,6.12-3h3.29A3.8,3.8,0,0,1,257,55.65ZM270,60h-7.38a3.8,3.8,0,0,1-3.79-3.79v-.52a3.8,3.8,0,0,1,3.79-3.79h1.05c2.09,0,6.57.61,8.8,3,.42.44,1.47,1.94,1.47,1.94C275.25,59,274.63,60,270,60Z"/><path class="cls-1" d="M289.11,24.36h-.25c.31-3.26-2.08-8.79-3.73-11.25a31.36,31.36,0,0,0-16-11.9c-5.38-1.66-19.29-1.54-22.54,0-4.35,2.06-9.34,9.73-9.32,9.92,0,0-18.83.14-18.9.17a2.07,2.07,0,0,0-2,2.07,1.89,1.89,0,0,0,.58,1.65v.09a8.58,8.58,0,0,0-1.07,4.63c0,1.7,0,3.29.83,4.63H216a2,2,0,0,0-2,2v.33c0,1.09.89,2.48,2,2.48h5c.09,2.76,2.34,4.47,5.12,4.47a4.92,4.92,0,0,0,5.12-4.72l34.43-.74c.09,2.76,1.65,5.46,5.12,5.46s5-2.7,5.12-5.46h13.25c1.09,0,2-.4,2-1.49v-.33A2,2,0,0,0,289.11,24.36ZM257,7.41a3.8,3.8,0,0,1-3.79,3.79h-9.61c-2.09,0-2.74-1.35-1.46-3l1.66-2.12a8.81,8.81,0,0,1,6.12-3h3.29A3.8,3.8,0,0,1,257,6.89ZM270,11.21h-7.38a3.8,3.8,0,0,1-3.79-3.79V6.89a3.8,3.8,0,0,1,3.79-3.79h1.05c2.09,0,6.57.61,8.8,3C272.92,6.54,274,8,274,8,275.25,10.25,274.63,11.21,270,11.21Z"/><path class="cls-1" d="M396.11,365.63h-.25c.31-3.26-2.08-8.79-3.73-11.25a31.36,31.36,0,0,0-16-11.9c-5.38-1.66-19.29-1.54-22.54,0-4.35,2.06-9.34,9.73-9.32,9.92,0,0-18.83.14-18.9.17a2.07,2.07,0,0,0-2,2.07,1.89,1.89,0,0,0,.58,1.65v.09A8.58,8.58,0,0,0,322.8,361c0,1.7,0,3.29.83,4.63H323a2,2,0,0,0-2,2v.33c0,1.09.89,2.48,2,2.48h5c.09,2.76,2.34,4.47,5.12,4.47a4.92,4.92,0,0,0,5.12-4.72l34.43-.74c.09,2.76,1.65,5.46,5.12,5.46s5-2.7,5.12-5.46h13.25c1.09,0,2-.4,2-1.49v-.33A2,2,0,0,0,396.11,365.63Zm-32.16-16.95a3.8,3.8,0,0,1-3.79,3.79h-9.61c-2.09,0-2.74-1.35-1.46-3l1.66-2.12a8.81,8.81,0,0,1,6.12-3h3.29a3.8,3.8,0,0,1,3.79,3.79ZM377,352.48h-7.38a3.8,3.8,0,0,1-3.79-3.79v-.52a3.8,3.8,0,0,1,3.79-3.79h1.05c2.09,0,6.57.61,8.8,3,.42.44,1.47,1.94,1.47,1.94C382.25,351.52,381.62,352.48,377,352.48Z"/><path class="cls-2" d="M396.11,316.88h-.25c.31-3.26-2.08-8.79-3.73-11.25a31.36,31.36,0,0,0-16-11.9c-5.38-1.66-19.29-1.54-22.54,0-4.35,2.06-9.34,9.73-9.32,9.92,0,0-18.83.14-18.9.17a2.07,2.07,0,0,0-2,2.07,1.89,1.89,0,0,0,.58,1.65v.09a8.58,8.58,0,0,0-1.07,4.63c0,1.7,0,3.29.83,4.63H323a2,2,0,0,0-2,2v.33c0,1.09.89,2.48,2,2.48h5c.09,2.76,2.34,4.47,5.12,4.47a4.92,4.92,0,0,0,5.12-4.72l34.43-.74c.09,2.76,1.65,5.46,5.12,5.46s5-2.7,5.12-5.46h13.25c1.09,0,2-.4,2-1.49v-.33A2,2,0,0,0,396.11,316.88Zm-32.16-16.95a3.8,3.8,0,0,1-3.79,3.79h-9.61c-2.09,0-2.74-1.35-1.46-3l1.66-2.12a8.81,8.81,0,0,1,6.12-3h3.29a3.8,3.8,0,0,1,3.79,3.79ZM377,303.72h-7.38a3.8,3.8,0,0,1-3.79-3.79v-.52a3.8,3.8,0,0,1,3.79-3.79h1.05c2.09,0,6.57.61,8.8,3,.42.44,1.47,1.94,1.47,1.94C382.25,302.77,381.62,303.72,377,303.72Z"/><path class="cls-3" d="M396.11,268.12h-.25c.31-3.26-2.08-8.79-3.73-11.25a31.36,31.36,0,0,0-16-11.9c-5.38-1.66-19.29-1.54-22.54,0-4.35,2.06-9.34,9.73-9.32,9.92,0,0-18.83.14-18.9.17a2.07,2.07,0,0,0-2,2.07,1.89,1.89,0,0,0,.58,1.65v.09a8.58,8.58,0,0,0-1.07,4.63c0,1.7,0,3.29.83,4.63H323a2,2,0,0,0-2,2v.33c0,1.09.89,2.48,2,2.48h5c.09,2.76,2.34,4.47,5.12,4.47a4.92,4.92,0,0,0,5.12-4.72l34.43-.74c.09,2.76,1.65,5.46,5.12,5.46s5-2.7,5.12-5.46h13.25c1.09,0,2-.4,2-1.49v-.33A2,2,0,0,0,396.11,268.12Zm-32.16-16.95a3.8,3.8,0,0,1-3.79,3.79h-9.61c-2.09,0-2.74-1.35-1.46-3l1.66-2.12a8.81,8.81,0,0,1,6.12-3h3.29a3.8,3.8,0,0,1,3.79,3.79ZM377,255h-7.38a3.8,3.8,0,0,1-3.79-3.79v-.52a3.8,3.8,0,0,1,3.79-3.79h1.05c2.09,0,6.57.61,8.8,3,.42.44,1.47,1.94,1.47,1.94C382.25,254,381.62,255,377,255Z"/><path class="cls-1" d="M396.11,219.37h-.25c.31-3.26-2.08-8.79-3.73-11.25a31.36,31.36,0,0,0-16-11.9c-5.38-1.66-19.29-1.54-22.54,0-4.35,2.06-9.34,9.73-9.32,9.92,0,0-18.83.14-18.9.17a2.07,2.07,0,0,0-2,2.07,1.89,1.89,0,0,0,.58,1.65v.09a8.58,8.58,0,0,0-1.07,4.63c0,1.7,0,3.29.83,4.63H323a2,2,0,0,0-2,2v.33c0,1.09.89,2.48,2,2.48h5c.09,2.76,2.34,4.47,5.12,4.47a4.92,4.92,0,0,0,5.12-4.72l34.43-.74c.09,2.76,1.65,5.46,5.12,5.46s5-2.7,5.12-5.46h13.25c1.09,0,2-.4,2-1.49v-.33A2,2,0,0,0,396.11,219.37Zm-32.16-16.95a3.8,3.8,0,0,1-3.79,3.79h-9.61c-2.09,0-2.74-1.35-1.46-3l1.66-2.12a8.81,8.81,0,0,1,6.12-3h3.29a3.8,3.8,0,0,1,3.79,3.79ZM377,206.22h-7.38a3.8,3.8,0,0,1-3.79-3.79v-.52a3.8,3.8,0,0,1,3.79-3.79h1.05c2.09,0,6.57.61,8.8,3,.42.44,1.47,1.94,1.47,1.94C382.25,205.26,381.62,206.22,377,206.22Z"/><path class="cls-4" d="M396.11,170.62h-.25c.31-3.26-2.08-8.79-3.73-11.25a31.36,31.36,0,0,0-16-11.9c-5.38-1.66-19.29-1.54-22.54,0-4.35,2.06-9.34,9.73-9.32,9.92,0,0-18.83.14-18.9.17a2.07,2.07,0,0,0-2,2.07,1.89,1.89,0,0,0,.58,1.65v.09A8.58,8.58,0,0,0,322.8,166c0,1.7,0,3.29.83,4.63H323a2,2,0,0,0-2,2v.33c0,1.09.89,2.48,2,2.48h5c.09,2.76,2.34,4.47,5.12,4.47a4.92,4.92,0,0,0,5.12-4.72l34.43-.74c.09,2.76,1.65,5.46,5.12,5.46s5-2.7,5.12-5.46h13.25c1.09,0,2-.4,2-1.49v-.33A2,2,0,0,0,396.11,170.62Zm-32.16-16.95a3.8,3.8,0,0,1-3.79,3.79h-9.61c-2.09,0-2.74-1.35-1.46-3l1.66-2.12a8.81,8.81,0,0,1,6.12-3h3.29a3.8,3.8,0,0,1,3.79,3.79ZM377,157.47h-7.38a3.8,3.8,0,0,1-3.79-3.79v-.52a3.8,3.8,0,0,1,3.79-3.79h1.05c2.09,0,6.57.61,8.8,3,.42.44,1.47,1.94,1.47,1.94C382.25,156.51,381.62,157.47,377,157.47Z"/><path class="cls-2" d="M396.11,121.87h-.25c.31-3.26-2.08-8.79-3.73-11.25a31.36,31.36,0,0,0-16-11.9c-5.38-1.66-19.29-1.54-22.54,0-4.35,2.06-9.34,9.73-9.32,9.92,0,0-18.83.14-18.9.17a2.07,2.07,0,0,0-2,2.07,1.89,1.89,0,0,0,.58,1.65v.09a8.58,8.58,0,0,0-1.07,4.63c0,1.7,0,3.29.83,4.63H323a2,2,0,0,0-2,2v.33c0,1.09.89,2.48,2,2.48h5c.09,2.76,2.34,4.47,5.12,4.47a4.92,4.92,0,0,0,5.12-4.72l34.43-.74c.09,2.76,1.65,5.46,5.12,5.46s5-2.7,5.12-5.46h13.25c1.09,0,2-.4,2-1.49v-.33A2,2,0,0,0,396.11,121.87Zm-32.16-16.95a3.8,3.8,0,0,1-3.79,3.79h-9.61c-2.09,0-2.74-1.35-1.46-3l1.66-2.12a8.81,8.81,0,0,1,6.12-3h3.29a3.8,3.8,0,0,1,3.79,3.79ZM377,108.71h-7.38a3.8,3.8,0,0,1-3.79-3.79v-.52a3.8,3.8,0,0,1,3.79-3.79h1.05c2.09,0,6.57.61,8.8,3,.42.44,1.47,1.94,1.47,1.94C382.25,107.76,381.62,108.71,377,108.71Z"/><path class="cls-3" d="M396.11,73.11h-.25c.31-3.26-2.08-8.79-3.73-11.25a31.36,31.36,0,0,0-16-11.9c-5.38-1.66-19.29-1.54-22.54,0-4.35,2.06-9.34,9.73-9.32,9.92,0,0-18.83.14-18.9.17a2.07,2.07,0,0,0-2,2.07,1.89,1.89,0,0,0,.58,1.65v.09a8.58,8.58,0,0,0-1.07,4.63c0,1.7,0,3.29.83,4.63H323a2,2,0,0,0-2,2v.33c0,1.09.89,2.48,2,2.48h5c.09,2.76,2.34,4.47,5.12,4.47a4.92,4.92,0,0,0,5.12-4.72l34.43-.74c.09,2.76,1.65,5.46,5.12,5.46s5-2.7,5.12-5.46h13.25c1.09,0,2-.4,2-1.49V75.1A2,2,0,0,0,396.11,73.11ZM363.94,56.17A3.8,3.8,0,0,1,360.15,60h-9.61c-2.09,0-2.74-1.35-1.46-3l1.66-2.12a8.81,8.81,0,0,1,6.12-3h3.29a3.8,3.8,0,0,1,3.79,3.79ZM377,60h-7.38a3.8,3.8,0,0,1-3.79-3.79v-.52a3.8,3.8,0,0,1,3.79-3.79h1.05c2.09,0,6.57.61,8.8,3,.42.44,1.47,1.94,1.47,1.94C382.25,59,381.62,60,377,60Z"/><path class="cls-1" d="M396.11,24.36h-.25c.31-3.26-2.08-8.79-3.73-11.25a31.36,31.36,0,0,0-16-11.9c-5.38-1.66-19.29-1.54-22.54,0-4.35,2.06-9.34,9.73-9.32,9.92,0,0-18.83.14-18.9.17a2.07,2.07,0,0,0-2,2.07,1.89,1.89,0,0,0,.58,1.65v.09a8.58,8.58,0,0,0-1.07,4.63c0,1.7,0,3.29.83,4.63H323a2,2,0,0,0-2,2v.33c0,1.09.89,2.48,2,2.48h5c.09,2.76,2.34,4.47,5.12,4.47a4.92,4.92,0,0,0,5.12-4.72l34.43-.74c.09,2.76,1.65,5.46,5.12,5.46s5-2.7,5.12-5.46h13.25c1.09,0,2-.4,2-1.49v-.33A2,2,0,0,0,396.11,24.36ZM363.94,7.41a3.8,3.8,0,0,1-3.79,3.79h-9.61c-2.09,0-2.74-1.35-1.46-3l1.66-2.12a8.81,8.81,0,0,1,6.12-3h3.29a3.8,3.8,0,0,1,3.79,3.79ZM377,11.21h-7.38a3.8,3.8,0,0,1-3.79-3.79V6.89a3.8,3.8,0,0,1,3.79-3.79h1.05c2.09,0,6.57.61,8.8,3C379.91,6.54,381,8,381,8,382.25,10.25,381.62,11.21,377,11.21Z"/></g></g></svg>