<svg xmlns="http://www.w3.org/2000/svg" viewBox="0 0 417.5 120.5"><defs><style>.cls-1{fill:#333;}.cls-2{fill:#f06060;}.cls-3{fill:#fff;}.cls-4{fill:#72c6ce;}.cls-5{fill:#f4f4f4;}</style></defs><title>hit</title><g id="Layer_2" data-name="Layer 2"><g id="wifi"><path class="cls-1" d="M251.09,89.48a7.15,7.15,0,0,0-.18,10.1l13,13.49a7.15,7.15,0,0,0,10.1.18l12.85-12.41a7.14,7.14,0,0,0,.18-10.1L274,77.25a7.15,7.15,0,0,0-10.1-.18Z"/><rect class="cls-1" x="384.46" y="88.35" width="33.04" height="32.15" rx="7.14" ry="7.14"/><path class="cls-2" d="M261.66,77.5c.68-16.52,13.36-7.1,10-16.78s-12-21.32-5.8-24.45,11.72-6.7,15-.89c2.37,4.22-.15-16.08,20-26.29,3.62-1.83,10.14,1.15,15.38,0,5.71-1.25,10.33-4.36,18.36-4.36,0,0-20.64,0,0,0h39.59c17,12.5,22.33,39.74,22.33,39.74s21,6.25,21,34.08v28.58H285.29S261,94,261.66,77.5Z"/><rect class="cls-2" x="390.46" y="32.19" width="26.05" height="16.67" rx="7.14" ry="7.14"/><path class="cls-3" d="M296.94,71.62c12.85-.82,25.35-4.32,32-4.32h52.47a11.76,11.76,0,1,1,0,4.61H329.24c-5,0-19.85,5.63-32.3,4.32C293.71,74.58,296.68,72.46,296.94,71.62Z"/><path class="cls-3" d="M274.57,71.95c-.83,3.39,5.49,6.4,12.63,8.16s13.61.42,14.44-3-2-8.14-9.18-9.89S275.41,68.56,274.57,71.95Z"/><path class="cls-3" d="M289.05,30.32c4.58-8.52,12-17.14,17.66-15.63,9.42,2.53,14.78-.74,26.39-1.79s35.42,0,39.14,0C382.82,26.15,387.43,44,387.43,44s-33.27-2.45-47.66.32S319.37,28.57,287,44C285.57,41.46,286.53,35,289.05,30.32Z"/><path class="cls-3" d="M365.59,97.2a1.3,1.3,0,0,0,1.3,1.3h0a1.3,1.3,0,0,0,1.3-1.3V82.68a1.3,1.3,0,0,0-1.3-1.3h0a1.3,1.3,0,0,0-1.3,1.3Z"/><path class="cls-3" d="M360.1,97.2a1.3,1.3,0,0,0,1.3,1.3h0a1.3,1.3,0,0,0,1.3-1.3V82.68a1.3,1.3,0,0,0-1.3-1.3h0a1.3,1.3,0,0,0-1.3,1.3Z"/><path class="cls-3" d="M354.6,97.2a1.3,1.3,0,0,0,1.3,1.3h0a1.3,1.3,0,0,0,1.3-1.3V82.68a1.3,1.3,0,0,0-1.3-1.3h0a1.3,1.3,0,0,0-1.3,1.3Z"/><path class="cls-3" d="M349.11,97.2a1.3,1.3,0,0,0,1.3,1.3h0a1.3,1.3,0,0,0,1.3-1.3V82.68a1.3,1.3,0,0,0-1.3-1.3h0a1.3,1.3,0,0,0-1.3,1.3Z"/><path class="cls-3" d="M343.62,97.2a1.3,1.3,0,0,0,1.3,1.3h0a1.3,1.3,0,0,0,1.3-1.3V82.68a1.3,1.3,0,0,0-1.3-1.3h0a1.3,1.3,0,0,0-1.3,1.3Z"/><path class="cls-3" d="M337.18,95.72a1.3,1.3,0,0,0,1.46,1.13h0a1.3,1.3,0,0,0,1.13-1.46L337.89,81a1.3,1.3,0,0,0-1.46-1.13h0a1.3,1.3,0,0,0-1.13,1.46Z"/><path class="cls-3" d="M331.4,95.72a1.3,1.3,0,0,0,1.47,1.11h0A1.3,1.3,0,0,0,334,95.37L332,81a1.3,1.3,0,0,0-1.47-1.11h0a1.3,1.3,0,0,0-1.11,1.47Z"/><path class="cls-3" d="M325.91,98.4a1.3,1.3,0,0,0,1.59.94h0a1.3,1.3,0,0,0,.94-1.59l-3.63-14.06a1.3,1.3,0,0,0-1.59-.94h0a1.3,1.3,0,0,0-.94,1.59Z"/><path class="cls-3" d="M319.93,96.9a1.3,1.3,0,0,0,1.59.93h0a1.3,1.3,0,0,0,.93-1.59L318.8,82.19a1.3,1.3,0,0,0-1.59-.93h0a1.3,1.3,0,0,0-.93,1.59Z"/><path class="cls-3" d="M315.48,100.18a1.3,1.3,0,0,0,1.69.75h0a1.3,1.3,0,0,0,.75-1.69l-5.24-13.55a1.3,1.3,0,0,0-1.69-.75h0a1.3,1.3,0,0,0-.75,1.69Z"/><path class="cls-4" d="M32.74,68.29s-17.84-5.19-21.91-8S-1.87,53.1.36,46,2.81,31.34,11.72,32c-3.54-3.36-.34-25,10-24.38s12.31,2.49,35.88-2.51,96.46-3.62,114,9.31c12.51,9.24,20.69,15.17,24.46,17.83S211.33,38,211.33,38s15-26.17,17.64-25.4,17.07,8.47,17.42,5.14L248.25,0,253,.5S251.35,22.93,250.11,25s-18.17-6.22-20.22-6.92S218,36.18,217,38.61s4.78,14.27,4.78,14.27,19.1.49,17.39,2.57,2.15,10.88,1,13.44,5.22,6.23,7.24,10.33-1.45,30.34-3.49,33.14S231.18,111,231.18,111,233.27,79.81,220,80.82s-19.57,21-19.57,21l-10.92-4.3-19.27,1.13L81.47,80.27Z"/><circle class="cls-5" cx="57.17" cy="62.31" r="25.13" transform="translate(-10.79 112.65) rotate(-83.99)"/><path class="cls-3" d="M75.48,23.42,134,36.17s5.47-9.3,7.09-24.7C88.21,2.85,75.48,23.42,75.48,23.42Z"/><path class="cls-3" d="M148.86,14.38c-.79,7.47-5.37,25.44-5.37,25.44s29.68,2.7,44.32,8.3,22.78,7.46,24.73.33c-3.4-5-5.41-4-15.91-10.17S165.62,19.35,148.86,14.38Z"/><path class="cls-1" d="M54.88,84.06a21.87,21.87,0,0,1,2.27-43.62,22.24,22.24,0,0,1,2.31.12,21.87,21.87,0,0,1-2.27,43.62A22,22,0,0,1,54.88,84.06Zm-9.4-23A11.75,11.75,0,0,0,55.94,74a12,12,0,0,0,1.25.07A11.75,11.75,0,0,0,58.4,50.63a12.23,12.23,0,0,0-1.25-.07A11.71,11.71,0,0,0,45.48,61.08Z"/><path class="cls-1" d="M194.86,101c-3-9.79,3.83-13.28,8.33-15.6a36.77,36.77,0,0,0,7.67-4.86A17.16,17.16,0,0,1,222,76c6.77,0,12.4,4.71,14.69,12.3A21.87,21.87,0,1,1,194.86,101Zm22.61-12.78a45.83,45.83,0,0,1-9.65,6.19,19.61,19.61,0,0,0-3.56,2.1,5.18,5.18,0,0,0,.29,1.56,11.73,11.73,0,0,0,14.65,7.84A11.75,11.75,0,0,0,227,91.21c-.47-1.54-1.88-5.11-5-5.11A7.3,7.3,0,0,0,217.47,88.17Z"/></g></g></svg>