<svg xmlns="http://www.w3.org/2000/svg" viewBox="0 0 690.38 600.73"><defs><style>.cls-1{fill:#666;opacity:0.2;}.cls-2{fill:none;stroke:#fff;stroke-linecap:round;stroke-linejoin:round;stroke-width:2px;stroke-dasharray:12 25.16;}.cls-3{fill:#333;}.cls-4{fill:#72cad2;}.cls-5{fill:#fff;}.cls-6{fill:#93b331;}.cls-7{fill:#f06060;}.cls-8{fill:#f3b562;}.cls-9{fill:#72c6ce;}</style></defs><title>road</title><g id="Layer_2" data-name="Layer 2"><g id="wifi"><path class="cls-1" d="M1,600.73c20.89-2.32,208.77-1.82,229.76-1.83,27.77,0,169.92-.58,197.69-.05,28,.53,55.85,1.28,83.83.9,13.85-.19,27.7-.45,41.55-.6,6.47-.07,12.93-.08,19.4-.11,7.83,0,15.51-1.2,23.26-2.27,23.69-3.26,47.87-16.33,62.7-35.19,14.67-18.65,25.13-40.86,28.89-64.42,3.51-22,3.65-45-4.26-66.19-8.54-22.87-23.06-42.14-44.32-54.66-22.22-13.08-49.25-15.71-74.46-17.19-19.54-1.14-39.11-.5-58.67-.53-14.16,0-28.32.23-42.48.41-24.49-.13-47.4-.26-69.37-.32l-3.26,0c-1,0-1.89,0-2.8,0l-12.4,0c-15.79,0-145.93.08-161.72.48-13.42.33-26.88.41-40.24-1a109.64,109.64,0,0,1-18.66-4.75,72.6,72.6,0,0,1-7.36-4.21q-1.88-1.74-3.58-3.65a82.41,82.41,0,0,1-5.79-10.16A115.47,115.47,0,0,1,133.35,315a133.39,133.39,0,0,1,0-25.3,110.74,110.74,0,0,1,5-19,80.32,80.32,0,0,1,5.56-9.72,62.24,62.24,0,0,1,4.49-4.55q2-1.31,4.13-2.43a97.68,97.68,0,0,1,15.24-3.47c20.89-2.32,42-1.82,63-1.83,27.77,0,20-.58,47.79-.05,28,.53,55.85,1.28,83.83.9,13.85-.19,27.7-.45,41.55-.6,6.47-.07,12.93-.08,19.4-.11,7.83,0,15.51-1.2,23.26-2.27,23.69-3.26,47.87-16.33,62.7-35.19C524,192.72,534.43,170.52,538.19,147c3.51-22,3.65-45-4.26-66.19-8.54-22.87-23.06-42.14-44.32-54.66C467.38,13,440.35,10.39,415.14,8.91c-19.54-1.14-39.11-.5-58.67-.53-17.69,0-35.37.37-53.06.54-20.7.19-41.36-.23-62.06-.48-47.68-.59-59.87.69-107.56.71-46.5,0-86.3.13-132.79,1,.24.35,0,1,0,1.5,0,22.12,0,44,0,66.08,49.8-.87,94.69-1,144.49-1,51.94,0,68.33-1.16,120.27-.24,27.84.5,55.69-.29,83.53-.5,27.54-.21,55.34-1.21,82.76,1.93a114.07,114.07,0,0,1,19.89,4.64,70.5,70.5,0,0,1,7.25,4.23,67.68,67.68,0,0,1,5.52,5.56,73.07,73.07,0,0,1,4.58,7.9,86.44,86.44,0,0,1,3.44,12.84,106.11,106.11,0,0,1-.11,18.24,120.55,120.55,0,0,1-5.91,21.37,103,103,0,0,1-8,14.24,71.41,71.41,0,0,1-6,6,72.15,72.15,0,0,1-7.7,4.46,87.88,87.88,0,0,1-13,3.44c-10.42.89-21,.46-31.39.58-13.86.16-27.72.42-41.58.6-28,.37-55.87-.52-83.84-1-27.61-.48-55.22.13-82.82.11-25.15,0-14.33.3-39.29,3.75-20.71,2.86-39.76,11-54.71,25.9C84.72,224.43,75.66,242.6,70.54,261,60.4,297.55,64.33,339,81.88,372.54a102.94,102.94,0,0,0,16.46,22.59c10,10.62,22.68,16.71,35.89,22.23,11.72,4.89,24.36,6.46,36.85,8.05a236,236,0,0,0,31,1.5c22.64-.1,159.63-.69,182.28-.67H396c3.75.13,9.83.28,19.64.45,27.84.5,55.69-.29,83.53-.5,27.54-.21,55.34-1.21,82.76,1.93a114,114,0,0,1,19.89,4.64,70.49,70.49,0,0,1,7.25,4.23,67.76,67.76,0,0,1,5.52,5.56,73.16,73.16,0,0,1,4.58,7.9,86.44,86.44,0,0,1,3.44,12.84,106.11,106.11,0,0,1-.11,18.24,120.52,120.52,0,0,1-5.91,21.37,103,103,0,0,1-8,14.24,71.33,71.33,0,0,1-6,6,72.16,72.16,0,0,1-7.7,4.47,87.94,87.94,0,0,1-13,3.44c-10.42.89-21,.46-31.39.58-13.86.16-27.72.42-41.58.6-28,.37-55.87-.52-83.84-1-27.61-.48-394.12.13-421.72.11"/><path class="cls-2" d="M18.58,27.72C65,27.1,103.86,27.1,148,27.1c48.63,0,90.8-1.6,139.37-.33,26.63.69,76.86-.49,96.71-.42,24.08.08,68.42-2.11,100.09,6.76,53.21,16.47,61.05,81.83,33.18,130-15.2,26.61-41.12,36.15-69,36.15-41.81,0-84.13,1.89-126.79.28-34.28-1.3-67.57-.42-101.78-.42-24.07,0-57.86-.87-81.93,5.47-57,13.94-62,116.3-22.7,153,29.14,25.34,78.55,19,114,19,46.88,0,94.51.29,141.38-1,44.34-1.27,89.11-1.27,134.72-1.27,35.47,0,74.33,2.11,109.81,2.11,19.74,0,34.41.47,51.53.7"/><path class="cls-3" d="M1,592.5c20.89-2.32,208.77-1.82,229.76-1.83,27.77,0,169.92-.58,197.69-.05,28,.53,55.85,1.28,83.83.9,13.85-.19,27.7-.45,41.55-.6,6.47-.07,12.93-.08,19.4-.11,7.83,0,15.51-1.2,23.26-2.27,23.69-3.26,47.87-16.33,62.7-35.19,14.67-18.65,25.13-40.86,28.89-64.42,3.51-22,3.65-45-4.26-66.19-8.54-22.87-23.06-42.14-44.32-54.66C617.27,355,590.24,352.37,565,350.89c-19.54-1.14-39.11-.5-58.67-.53-14.16,0-28.32.23-42.48.41-24.49-.13-47.4-.26-69.37-.32l-3.26,0c-1,0-1.89,0-2.8,0l-12.4,0c-15.79,0-145.93.08-161.72.48-13.42.33-26.88.41-40.24-1a109.64,109.64,0,0,1-18.66-4.75,72.6,72.6,0,0,1-7.36-4.21q-1.88-1.74-3.58-3.65a82.41,82.41,0,0,1-5.79-10.16,115.47,115.47,0,0,1-5.36-20.33,133.39,133.39,0,0,1,0-25.3,110.74,110.74,0,0,1,5-19,80.32,80.32,0,0,1,5.56-9.72,62.24,62.24,0,0,1,4.49-4.55q2-1.31,4.13-2.43a97.68,97.68,0,0,1,15.24-3.47c20.89-2.32,42-1.82,63-1.83,27.77,0,20-.58,47.79-.05,28,.53,55.85,1.28,83.83.9,13.85-.19,27.7-.45,41.55-.6,6.47-.07,12.93-.08,19.4-.11,7.83,0,15.51-1.2,23.26-2.27,23.69-3.26,47.87-16.33,62.7-35.19,14.67-18.65,25.13-40.86,28.89-64.42,3.51-22,3.65-45-4.26-66.19-8.54-22.87-23.06-42.14-44.32-54.66C467.38,4.79,440.35,2.16,415.14.68,395.6-.46,376,.18,356.48.16c-17.69,0-35.37.37-53.06.54-20.7.19-41.36-.23-62.06-.48C193.68-.38,181.49.9,133.81.92c-46.5,0-86.3.13-132.79,1,.24.35,0,1,0,1.5,0,22.12,0,44,0,66.08,49.8-.87,94.69-1,144.49-1,51.94,0,68.33-1.16,120.27-.24,27.84.5,55.69-.29,83.53-.5,27.54-.21,55.34-1.21,82.76,1.93a114.07,114.07,0,0,1,19.89,4.64,70.5,70.5,0,0,1,7.25,4.23,67.68,67.68,0,0,1,5.52,5.56,73.07,73.07,0,0,1,4.58,7.9,86.44,86.44,0,0,1,3.44,12.84,106.11,106.11,0,0,1-.11,18.24,120.55,120.55,0,0,1-5.91,21.37,103,103,0,0,1-8,14.24,71.41,71.41,0,0,1-6,6,72.15,72.15,0,0,1-7.7,4.46,87.88,87.88,0,0,1-13,3.44c-10.42.89-21,.46-31.39.58-13.86.16-27.72.42-41.58.6-28,.37-55.87-.52-83.84-1-27.61-.48-55.22.13-82.82.11-25.15,0-14.33.3-39.29,3.75-20.71,2.86-39.76,11-54.71,25.9-13.66,13.66-22.72,31.83-27.85,50.28-10.14,36.5-6.21,77.91,11.35,111.49a102.94,102.94,0,0,0,16.46,22.59c10,10.62,22.68,16.71,35.89,22.23,11.72,4.89,24.36,6.46,36.85,8.05a236,236,0,0,0,31,1.5c22.64-.1,159.63-.69,182.28-.67H396c3.75.13,9.83.28,19.64.45,27.84.5,55.69-.29,83.53-.5,27.54-.21,55.34-1.21,82.76,1.93a114,114,0,0,1,19.89,4.64,70.49,70.49,0,0,1,7.25,4.23,67.76,67.76,0,0,1,5.52,5.56,73.16,73.16,0,0,1,4.58,7.9,86.44,86.44,0,0,1,3.44,12.84,106.11,106.11,0,0,1-.11,18.24,120.52,120.52,0,0,1-5.91,21.37,103,103,0,0,1-8,14.24,71.33,71.33,0,0,1-6,6,72.16,72.16,0,0,1-7.7,4.47,87.94,87.94,0,0,1-13,3.44c-10.42.89-21,.46-31.39.58-13.86.16-27.72.42-41.58.6-28,.37-55.87-.52-83.84-1-27.61-.48-394.12.13-421.72.11"/><path class="cls-4" d="M242.86,28.61v.22c0,.73.6,1,1.33,1H253c.06,1.84,1.14,3.65,3.42,3.65s3.36-1.81,3.42-3.65l23,.5a3.28,3.28,0,0,0,3.42,3.15,3.15,3.15,0,0,0,3.42-3H293c.73,0,1.33-.93,1.33-1.66v-.22A1.33,1.33,0,0,0,293,27.28h-.44a5.65,5.65,0,0,0,.55-3.09,5.73,5.73,0,0,0-.72-3.09V21a1.26,1.26,0,0,0,.39-1.1,1.38,1.38,0,0,0-1.35-1.38s-12.62-.11-12.62-.11-3.32-5.25-6.23-6.62c-2.17-1-11.46-1.11-15.05,0a20.94,20.94,0,0,0-10.72,7.95c-1.1,1.65-2.69,5.33-2.49,7.51h-.17A1.33,1.33,0,0,0,242.86,28.61Zm22.8-13a2.54,2.54,0,0,1,2.53-2.53h2.2a5.88,5.88,0,0,1,4.09,2l1.11,1.42c.86,1.1.42,2-1,2H268.2A2.54,2.54,0,0,1,265.66,16Zm-11.36.76s.7-1,1-1.3c1.48-1.59,4.48-2,5.87-2h.7a2.54,2.54,0,0,1,2.53,2.53V16a2.54,2.54,0,0,1-2.53,2.53h-4.92C253.86,18.5,253.44,17.86,254.3,16.38Z"/><path class="cls-5" d="M52.86,28.61v.22c0,.73.6,1,1.33,1H63c.06,1.84,1.14,3.65,3.42,3.65s3.36-1.81,3.42-3.65l23,.5a3.28,3.28,0,0,0,3.42,3.15,3.15,3.15,0,0,0,3.42-3H103c.73,0,1.33-.93,1.33-1.66v-.22A1.33,1.33,0,0,0,103,27.28h-.44a5.65,5.65,0,0,0,.55-3.09,5.73,5.73,0,0,0-.72-3.09V21a1.26,1.26,0,0,0,.39-1.1,1.38,1.38,0,0,0-1.35-1.38s-12.62-.11-12.62-.11-3.32-5.25-6.23-6.62c-2.17-1-11.46-1.11-15.05,0a20.94,20.94,0,0,0-10.72,7.95c-1.1,1.65-2.69,5.33-2.49,7.51h-.17A1.33,1.33,0,0,0,52.86,28.61Zm22.8-13a2.54,2.54,0,0,1,2.53-2.53h2.2a5.88,5.88,0,0,1,4.09,2l1.11,1.42c.86,1.1.42,2-1,2H78.2A2.54,2.54,0,0,1,75.66,16Zm-11.36.76s.7-1,1-1.3c1.48-1.59,4.48-2,5.87-2h.7a2.54,2.54,0,0,1,2.53,2.53V16a2.54,2.54,0,0,1-2.53,2.53H66.93C63.86,18.5,63.44,17.86,64.3,16.38Z"/><path class="cls-6" d="M209.31,378.44v.22c0,.73.6,1,1.33,1h8.85c.06,1.84,1.14,3.65,3.42,3.65s3.36-1.81,3.42-3.65l23,.5a3.28,3.28,0,0,0,3.42,3.15,3.15,3.15,0,0,0,3.42-3h3.33c.73,0,1.33-.93,1.33-1.66v-.22a1.33,1.33,0,0,0-1.33-1.33H259a5.65,5.65,0,0,0,.55-3.09,5.73,5.73,0,0,0-.72-3.09v-.06a1.26,1.26,0,0,0,.39-1.1,1.38,1.38,0,0,0-1.35-1.38s-12.62-.11-12.62-.11-3.32-5.25-6.23-6.62c-2.17-1-11.46-1.11-15.05,0a20.94,20.94,0,0,0-10.72,7.95c-1.1,1.65-2.69,5.33-2.49,7.51h-.17A1.33,1.33,0,0,0,209.31,378.44Zm22.8-13a2.54,2.54,0,0,1,2.53-2.53h2.2a5.88,5.88,0,0,1,4.09,2l1.11,1.42c.86,1.1.42,2-1,2h-6.42a2.54,2.54,0,0,1-2.53-2.53Zm-11.36.76s.7-1,1-1.3c1.48-1.59,4.48-2,5.87-2h.7a2.54,2.54,0,0,1,2.53,2.53v.35a2.54,2.54,0,0,1-2.53,2.53h-4.92C220.31,368.33,219.89,367.69,220.75,366.22Z"/><path class="cls-4" d="M324.5,378.44v.22c0,.73.6,1,1.33,1h8.85c.06,1.84,1.14,3.65,3.42,3.65s3.36-1.81,3.42-3.65l23,.5a3.28,3.28,0,0,0,3.42,3.15,3.15,3.15,0,0,0,3.42-3h3.33c.73,0,1.33-.93,1.33-1.66v-.22a1.33,1.33,0,0,0-1.33-1.33h-.44a5.65,5.65,0,0,0,.55-3.09,5.73,5.73,0,0,0-.72-3.09v-.06a1.26,1.26,0,0,0,.39-1.1,1.38,1.38,0,0,0-1.35-1.38s-12.62-.11-12.62-.11-3.32-5.25-6.23-6.62c-2.17-1-11.46-1.11-15.05,0a20.94,20.94,0,0,0-10.72,7.95c-1.1,1.65-2.69,5.33-2.49,7.51h-.17A1.33,1.33,0,0,0,324.5,378.44Zm22.8-13a2.54,2.54,0,0,1,2.53-2.53H352a5.88,5.88,0,0,1,4.09,2l1.11,1.42c.86,1.1.42,2-1,2h-6.42a2.54,2.54,0,0,1-2.53-2.53Zm-11.36.76s.7-1,1-1.3c1.48-1.59,4.48-2,5.87-2h.7a2.54,2.54,0,0,1,2.53,2.53v.35a2.54,2.54,0,0,1-2.53,2.53h-4.92C335.5,368.33,335.08,367.69,335.94,366.22Z"/><path class="cls-7" d="M400,378.44v.22c0,.73.6,1,1.33,1h8.85c.06,1.84,1.14,3.65,3.42,3.65s3.36-1.81,3.42-3.65l23,.5a3.28,3.28,0,0,0,3.42,3.15,3.15,3.15,0,0,0,3.42-3h3.33c.73,0,1.33-.93,1.33-1.66v-.22a1.33,1.33,0,0,0-1.33-1.33h-.44a5.65,5.65,0,0,0,.55-3.09,5.73,5.73,0,0,0-.72-3.09v-.06a1.26,1.26,0,0,0,.39-1.1,1.38,1.38,0,0,0-1.35-1.38s-12.62-.11-12.62-.11-3.32-5.25-6.23-6.62c-2.17-1-11.46-1.11-15.05,0A20.94,20.94,0,0,0,404,369.6c-1.1,1.65-2.69,5.33-2.49,7.51h-.17A1.33,1.33,0,0,0,400,378.44Zm22.8-13a2.54,2.54,0,0,1,2.53-2.53h2.2a5.88,5.88,0,0,1,4.09,2l1.11,1.42c.86,1.1.42,2-1,2h-6.42a2.54,2.54,0,0,1-2.53-2.53Zm-11.36.76s.7-1,1-1.3c1.48-1.59,4.48-2,5.87-2h.7a2.54,2.54,0,0,1,2.53,2.53v.35a2.54,2.54,0,0,1-2.53,2.53h-4.92C411,368.33,410.56,367.69,411.42,366.22Z"/><path class="cls-8" d="M479.09,378.44v.22c0,.73.6,1,1.33,1h8.85c.06,1.84,1.14,3.65,3.42,3.65s3.36-1.81,3.42-3.65l23,.5a3.28,3.28,0,0,0,3.42,3.15,3.15,3.15,0,0,0,3.42-3h3.33c.73,0,1.33-.93,1.33-1.66v-.22a1.33,1.33,0,0,0-1.33-1.33h-.44a5.65,5.65,0,0,0,.55-3.09,5.73,5.73,0,0,0-.72-3.09v-.06a1.26,1.26,0,0,0,.39-1.1,1.38,1.38,0,0,0-1.35-1.38s-12.62-.11-12.62-.11-3.32-5.25-6.23-6.62c-2.17-1-11.46-1.11-15.05,0a20.94,20.94,0,0,0-10.72,7.95c-1.1,1.65-2.69,5.33-2.49,7.51h-.17A1.33,1.33,0,0,0,479.09,378.44Zm22.8-13a2.54,2.54,0,0,1,2.53-2.53h2.2a5.88,5.88,0,0,1,4.09,2l1.11,1.42c.86,1.1.42,2-1,2h-6.42a2.54,2.54,0,0,1-2.53-2.53Zm-11.36.76s.7-1,1-1.3c1.48-1.59,4.48-2,5.87-2h.7a2.54,2.54,0,0,1,2.53,2.53v.35a2.54,2.54,0,0,1-2.53,2.53h-4.92C490.09,368.33,489.67,367.69,490.53,366.22Z"/><path class="cls-7" d="M277,199.7h-.17c.21-2.18-1.39-5.87-2.49-7.51a20.94,20.94,0,0,0-10.72-7.95c-3.6-1.11-12.88-1-15.05,0-2.9,1.38-6.24,6.5-6.23,6.62s-12.58.09-12.62.11a1.38,1.38,0,0,0-1.35,1.38,1.26,1.26,0,0,0,.39,1.1v.06a5.73,5.73,0,0,0-.72,3.09,5.65,5.65,0,0,0,.55,3.09h-.44a1.33,1.33,0,0,0-1.33,1.33v.22c0,.73.6,1.66,1.33,1.66h3.33a3.15,3.15,0,0,0,3.42,3,3.28,3.28,0,0,0,3.42-3.15l23-.5c.06,1.84,1.1,3.65,3.42,3.65s3.36-1.81,3.42-3.65H277c.73,0,1.33-.27,1.33-1V201A1.33,1.33,0,0,0,277,199.7Zm-21.48-11.32a2.54,2.54,0,0,1-2.53,2.53h-6.42c-1.39,0-1.83-.9-1-2l1.11-1.42a5.88,5.88,0,0,1,4.09-2H253a2.54,2.54,0,0,1,2.53,2.53Zm8.73,2.53h-4.92a2.54,2.54,0,0,1-2.53-2.53V188a2.54,2.54,0,0,1,2.53-2.53h.7c1.39,0,4.39.41,5.87,2,.28.3,1,1.3,1,1.3C267.79,190.28,267.38,190.91,264.3,190.91Z"/><path class="cls-8" d="M366,199.7h-.17c.21-2.18-1.39-5.87-2.49-7.51a20.94,20.94,0,0,0-10.72-7.95c-3.6-1.11-12.88-1-15.05,0-2.9,1.38-6.24,6.5-6.23,6.62s-12.58.09-12.62.11a1.38,1.38,0,0,0-1.35,1.38,1.26,1.26,0,0,0,.39,1.1v.06a5.73,5.73,0,0,0-.72,3.09,5.65,5.65,0,0,0,.55,3.09h-.44a1.33,1.33,0,0,0-1.33,1.33v.22c0,.73.6,1.66,1.33,1.66h3.33a3.15,3.15,0,0,0,3.42,3,3.28,3.28,0,0,0,3.42-3.15l23-.5c.06,1.84,1.1,3.65,3.42,3.65s3.36-1.81,3.42-3.65H366c.73,0,1.33-.27,1.33-1V201A1.33,1.33,0,0,0,366,199.7Zm-21.48-11.32a2.54,2.54,0,0,1-2.53,2.53h-6.42c-1.39,0-1.83-.9-1-2l1.11-1.42a5.88,5.88,0,0,1,4.09-2H342a2.54,2.54,0,0,1,2.53,2.53Zm8.73,2.53h-4.92a2.54,2.54,0,0,1-2.53-2.53V188a2.54,2.54,0,0,1,2.53-2.53h.7c1.39,0,4.39.41,5.87,2,.28.3,1,1.3,1,1.3C356.79,190.28,356.38,190.91,353.3,190.91Z"/><path class="cls-5" d="M277,549.22h-.17c.21-2.18-1.39-5.87-2.49-7.51a20.94,20.94,0,0,0-10.72-7.95c-3.6-1.11-12.88-1-15.05,0-2.9,1.38-6.24,6.5-6.23,6.62s-12.58.09-12.62.11a1.38,1.38,0,0,0-1.35,1.38,1.26,1.26,0,0,0,.39,1.1V543a5.73,5.73,0,0,0-.72,3.09,5.65,5.65,0,0,0,.55,3.09h-.44a1.33,1.33,0,0,0-1.33,1.33v.22c0,.73.6,1.66,1.33,1.66h3.33a3.15,3.15,0,0,0,3.42,3,3.28,3.28,0,0,0,3.42-3.15l23-.5c.06,1.84,1.1,3.65,3.42,3.65s3.36-1.81,3.42-3.65H277c.73,0,1.33-.27,1.33-1v-.22A1.33,1.33,0,0,0,277,549.22Zm-21.48-11.32a2.54,2.54,0,0,1-2.53,2.53h-6.42c-1.39,0-1.83-.9-1-2l1.11-1.42a5.88,5.88,0,0,1,4.09-2H253a2.54,2.54,0,0,1,2.53,2.53Zm8.73,2.53h-4.92a2.54,2.54,0,0,1-2.53-2.53v-.35a2.54,2.54,0,0,1,2.53-2.53h.7c1.39,0,4.39.41,5.87,2,.28.3,1,1.3,1,1.3C267.79,539.81,267.38,540.44,264.3,540.44Z"/><path class="cls-9" d="M136.59,549.22h-.17c.21-2.18-1.39-5.87-2.49-7.51a20.94,20.94,0,0,0-10.72-7.95c-3.6-1.11-12.88-1-15.05,0-2.9,1.38-6.24,6.5-6.23,6.62s-12.58.09-12.62.11A1.38,1.38,0,0,0,88,541.88a1.26,1.26,0,0,0,.39,1.1V543a5.73,5.73,0,0,0-.72,3.09,5.65,5.65,0,0,0,.55,3.09h-.44a1.33,1.33,0,0,0-1.33,1.33v.22c0,.73.6,1.66,1.33,1.66h3.33a3.15,3.15,0,0,0,3.42,3,3.28,3.28,0,0,0,3.42-3.15l23-.5c.06,1.84,1.1,3.65,3.42,3.65s3.36-1.81,3.42-3.65h8.85c.73,0,1.33-.27,1.33-1v-.22A1.33,1.33,0,0,0,136.59,549.22Zm-21.48-11.32a2.54,2.54,0,0,1-2.53,2.53h-6.42c-1.39,0-1.83-.9-1-2L106.3,537a5.88,5.88,0,0,1,4.09-2h2.2a2.54,2.54,0,0,1,2.53,2.53Zm8.73,2.53h-4.92a2.54,2.54,0,0,1-2.53-2.53v-.35a2.54,2.54,0,0,1,2.53-2.53h.7c1.39,0,4.39.41,5.87,2,.28.3,1,1.3,1,1.3C127.34,539.81,126.92,540.44,123.85,540.44Z"/><path class="cls-6" d="M366,549.22h-.17c.21-2.18-1.39-5.87-2.49-7.51a20.94,20.94,0,0,0-10.72-7.95c-3.6-1.11-12.88-1-15.05,0-2.9,1.38-6.24,6.5-6.23,6.62s-12.58.09-12.62.11a1.38,1.38,0,0,0-1.35,1.38,1.26,1.26,0,0,0,.39,1.1V543a5.73,5.73,0,0,0-.72,3.09,5.65,5.65,0,0,0,.55,3.09h-.44a1.33,1.33,0,0,0-1.33,1.33v.22c0,.73.6,1.66,1.33,1.66h3.33a3.15,3.15,0,0,0,3.42,3,3.28,3.28,0,0,0,3.42-3.15l23-.5c.06,1.84,1.1,3.65,3.42,3.65s3.36-1.81,3.42-3.65H366c.73,0,1.33-.27,1.33-1v-.22A1.33,1.33,0,0,0,366,549.22Zm-21.48-11.32a2.54,2.54,0,0,1-2.53,2.53h-6.42c-1.39,0-1.83-.9-1-2l1.11-1.42a5.88,5.88,0,0,1,4.09-2H342a2.54,2.54,0,0,1,2.53,2.53Zm8.73,2.53h-4.92a2.54,2.54,0,0,1-2.53-2.53v-.35a2.54,2.54,0,0,1,2.53-2.53h.7c1.39,0,4.39.41,5.87,2,.28.3,1,1.3,1,1.3C356.79,539.81,356.38,540.44,353.3,540.44Z"/><path class="cls-7" d="M543.76,549.22h-.17c.21-2.18-1.39-5.87-2.49-7.51a20.94,20.94,0,0,0-10.72-7.95c-3.6-1.11-12.88-1-15.05,0-2.9,1.38-6.24,6.5-6.23,6.62s-12.58.09-12.62.11a1.38,1.38,0,0,0-1.35,1.38,1.26,1.26,0,0,0,.39,1.1V543a5.73,5.73,0,0,0-.72,3.09,5.65,5.65,0,0,0,.55,3.09h-.44a1.33,1.33,0,0,0-1.33,1.33v.22c0,.73.6,1.66,1.33,1.66h3.33a3.15,3.15,0,0,0,3.42,3,3.28,3.28,0,0,0,3.42-3.15l23-.5c.06,1.84,1.1,3.65,3.42,3.65s3.36-1.81,3.42-3.65h8.85c.73,0,1.33-.27,1.33-1v-.22A1.33,1.33,0,0,0,543.76,549.22Zm-21.48-11.32a2.54,2.54,0,0,1-2.53,2.53h-6.42c-1.39,0-1.83-.9-1-2l1.11-1.42a5.88,5.88,0,0,1,4.09-2h2.2a2.54,2.54,0,0,1,2.53,2.53Zm8.73,2.53h-4.92a2.54,2.54,0,0,1-2.53-2.53v-.35a2.54,2.54,0,0,1,2.53-2.53h.7c1.39,0,4.39.41,5.87,2,.28.3,1,1.3,1,1.3C534.51,539.81,534.09,540.44,531,540.44Z"/><path class="cls-2" d="M18.58,35.84c46.38-.62,85.28-.62,129.41-.62,48.63,0,90.8-1.6,139.37-.33,26.63.69,50.86-.49,70.71-.42,24.08.08,68.42-2.11,100.09,6.76,53.21,16.47,61.05,81.83,33.18,130-15.2,26.61-41.12,36.15-69,36.15-41.81,0-84.13,1.89-126.79.28-34.28-1.3-41.57-.42-75.78-.42-24.07,0-51.86-.87-75.93,5.47-57,13.94-62,116.3-22.7,153,29.14,25.34,72.55,19,108,19,46.88,0,94.51.29,141.38-1l139.22-.13"/><path class="cls-2" d="M509.78,383.6c24.08.08,68.42-2.11,100.09,6.76,53.21,16.47,61.05,81.83,33.18,130-15.2,26.61-41.12,36.15-69,36.15-41.81,0-84.13,1.89-126.79.28C413,555.46,35.21,556.34,1,556.34"/></g></g></svg>