<svg xmlns="http://www.w3.org/2000/svg" viewBox="0 0 241.67 276.07"><defs><style>.cls-1,.cls-2{fill:#72c6ce;}.cls-2{stroke:#fff;stroke-miterlimit:10;stroke-width:3px;}.cls-3{fill:#fff;}</style></defs><title>security</title><g id="Layer_2" data-name="Layer 2"><g id="wifi"><path class="cls-1" d="M240.1,59.63,120.84,0,1.57,59.63C-16.1,244,120.84,276.07,120.84,276.07S257.77,244,240.1,59.63Z"/><path class="cls-2" d="M224.83,69.67l-104-52-104,52c-15.41,160.81,104,188.74,104,188.74S240.24,230.48,224.83,69.67Z"/><path class="cls-3" d="M95.44,146.76a5,5,0,0,1-5-5V92c0-13.53,13-24.13,29.5-24.13h1.55c16.29,0,28.58,10.37,28.58,24.13V111a5,5,0,0,1-9.94,0V92c0-8.09-8-14.19-18.64-14.19H120c-10.79,0-19.56,6.36-19.56,14.19v49.75A5,5,0,0,1,95.44,146.76Z"/><path class="cls-3" d="M159.86,179.2c0,6.21-5.2,11.59-12.52,11.59H93.23c-7.32,0-13.59-5.38-13.59-11.59V133.29c0-6.21,6.27-11.16,13.59-11.16h54.11c7.32,0,12.52,4.95,12.52,11.16Z"/><rect class="cls-1" x="113.94" y="140.61" width="14.36" height="14.36" rx="6.99" ry="6.99"/><path class="cls-1" d="M124.43,170.43a3.31,3.31,0,0,1-3.31,3.31h0a3.31,3.31,0,0,1-3.31-3.31V151.66a3.31,3.31,0,0,1,3.31-3.31h0a3.31,3.31,0,0,1,3.31,3.31Z"/></g></g></svg>