<?xml version="1.0" standalone="no"?>
<!DOCTYPE svg PUBLIC "-//W3C//DTD SVG 1.1//EN" "http://www.w3.org/Graphics/SVG/1.1/DTD/svg11.dtd" >
<svg xmlns="http://www.w3.org/2000/svg">
<metadata>Generated by IcoMoon</metadata>
<defs>
<font id="icomoon" horiz-adv-x="1024">
<font-face units-per-em="1024" ascent="960" descent="-64" />
<missing-glyph horiz-adv-x="1024" />
<glyph unicode="&#x20;" horiz-adv-x="512" d="" />
<glyph unicode="&#xe900;" glyph-name="bigD" horiz-adv-x="762" d="M694.957 901.38c-6.25 6.445-14.99 10.445-24.663 10.445-0.24 0-0.48-0.002-0.719-0.007-0.136 0.004-0.34 0.005-0.543 0.005-9.734 0-18.535-3.996-24.851-10.437-6.401-6.171-10.373-14.813-10.373-24.383 0-0.397 0.007-0.793 0.020-1.187l-0.002-359.979-22.871 22.604q-95.099 95.081-229.776 95.081t-229.634-95.081q-95.099-95.099-95.117-229.58t94.974-229.58q95.081-95.099 229.58-95.081c89.666 0 165.884 31.688 229.277 95.081s94.76 139.914 94.76 229.58v566.995c0.013 0.351 0.020 0.764 0.020 1.179 0 9.508-3.854 18.115-10.084 24.346zM657.961 404.832l0.748-2.191-3.366-1.14-0.748 2.155zM648.699 428.113c1.781-3.794 3.349-7.677 4.881-11.524l-3.313-1.318c-1.514 3.812-3.135 7.641-4.827 11.4zM624.35 471.842c2.333-3.456 4.613-7 6.786-10.527l-3.028-1.781c-2.155 3.562-4.4 7-6.715 10.402zM609.441 491.987c2.618-3.242 5.201-6.573 7.677-9.921l-2.868-2.12c-2.44 3.295-4.987 6.59-7.57 9.797zM592.858 510.797c2.886-2.992 5.735-6.11 8.496-9.227l-2.672-2.351c-2.725 3.081-5.54 6.145-8.39 9.12zM574.725 528.128c3.135-2.743 6.252-5.593 9.244-8.479l-2.458-2.583c-2.975 2.832-6.038 5.646-9.138 8.372zM555.132 543.856c3.349-2.458 6.697-5.041 9.939-7.659l-2.209-2.761c-3.206 2.583-6.519 5.13-9.814 7.552zM534.363 557.856c3.562-2.173 7.125-4.453 10.563-6.769l-1.995-2.957c-3.42 2.298-6.929 4.542-10.438 6.697zM512.401 570.022c3.741-1.781 7.481-3.83 11.115-5.842l-1.781-3.117c-3.562 1.995-7.285 3.936-10.972 5.771zM489.459 580.246c3.883-1.532 7.766-3.171 11.578-4.863l-1.443-3.26c-3.758 1.674-7.606 3.295-11.435 4.809zM465.715 588.44c4.008-1.193 8.033-2.494 11.97-3.847l-1.158-3.366c-3.883 1.336-7.855 2.618-11.809 3.794zM441.366 594.549c4.079-0.837 8.194-1.781 12.237-2.779l-0.873-3.456c-3.99 0.997-8.051 1.924-12.077 2.743zM416.607 598.521c4.15-0.481 8.318-1.069 12.468-1.781l-0.57-3.562c-4.043 0.659-8.176 1.229-12.273 1.781zM391.67 600.302c4.15-0.125 8.372-0.356 12.468-0.659l-0.267-3.562c-4.097 0.303-8.265 0.517-12.379 0.641zM379.202 600.427v-3.562c-4.132 0-8.3-0.178-12.468-0.41l-0.196 3.562c4.097 0.267 8.318 0.41 12.486 0.463zM354.158 599.073l0.338-3.562c-4.097-0.392-8.229-0.891-12.308-1.461l-0.499 3.562c3.972 0.623 8.158 1.122 12.308 1.514zM329.328 595.511l0.641-3.562c-4.043-0.748-8.122-1.585-12.13-2.512l-0.962 3.634c4.061 0.98 8.194 1.781 12.29 2.583zM304.89 589.9l0.944-3.438c-3.954-1.087-7.962-2.28-11.863-3.562l-1.087 3.384c3.776 1.443 7.82 2.654 11.845 3.758zM280.861 582.383l1.247-3.349c-3.847-1.425-7.695-2.957-11.489-4.542l-1.389 3.277c3.83 1.585 7.748 3.135 11.631 4.613zM257.812 572.676l1.532-3.224c-3.723-1.781-7.428-3.562-11.061-5.522l-1.657 3.153c3.651 1.888 7.41 3.776 11.186 5.557zM235.654 561.009l1.781-3.081c-3.562-2.066-7.125-4.239-10.545-6.466l-1.924 2.992c3.491 2.227 7.089 4.417 10.687 6.555zM214.582 547.472l2.048-2.903c-3.366-2.369-6.715-4.845-9.957-7.339l-2.173 2.814c3.277 2.494 6.68 4.934 10.082 7.392zM194.722 532.171l2.298-2.725c-3.153-2.654-6.288-5.344-9.298-8.176l-2.476 2.601c3.117 2.814 6.288 5.593 9.476 8.283zM176.233 515.232l2.512-2.529c-2.903-2.903-5.789-5.914-8.585-8.906l-2.618 2.405c2.85 3.028 5.771 6.074 8.71 9.013zM159.258 496.778l2.725-2.298c-2.654-3.153-5.344-6.395-7.784-9.636l-2.797 2.137c2.529 3.295 5.183 6.59 7.873 9.761zM143.922 476.9l2.903-2.048c-2.369-3.349-4.702-6.822-6.929-10.278l-2.992 1.924c2.262 3.491 4.631 7 7.018 10.402zM118.611 433.581l3.224-1.532c-1.781-3.723-3.473-7.535-5.076-11.328l-3.295 1.354c1.639 3.883 3.366 7.748 5.148 11.507zM108.832 410.425l3.349-1.247c-1.443-3.865-2.814-7.82-4.079-11.738l-3.384 1.104c1.265 3.936 2.654 7.962 4.115 11.881zM101.101 386.45l3.438-0.944c-1.087-3.972-2.12-8.015-3.028-12.005l-3.545 0.873c0.997 4.061 2.031 8.14 3.135 12.077zM95.491 362.012l3.562-0.641c-0.748-4.043-1.425-8.158-1.995-12.219l-3.562 0.499c0.552 4.186 1.229 8.3 1.995 12.451zM91.928 337.182l3.562-0.338c-0.392-4.097-0.712-8.247-0.926-12.344l-3.562 0.196c0.267 4.221 0.588 8.425 0.997 12.575zM90.557 308.683q0 1.781 0 3.562h3.562q0-1.781 0-3.456c0-2.939 0-5.949 0.142-8.906l-3.562-0.107c-0.036 2.957-0.089 5.967-0.071 8.959zM91.34 287.13l3.562 0.267c0.303-4.115 0.695-8.265 1.176-12.326l-3.562-0.41c-0.41 4.132-0.802 8.336-1.104 12.504zM94.244 262.193l3.562 0.57c0.659-4.061 1.407-8.176 2.227-12.183l-3.562-0.712c-0.748 4.132-1.514 8.336-2.173 12.397zM102.58 225.536c-1.176 3.99-2.298 8.051-3.313 12.094l3.509 0.98c0.997-3.99 2.102-8.015 3.26-11.952zM110.738 201.828c-1.514 3.865-2.975 7.82-4.346 11.774l3.366 1.158c1.336-3.901 2.779-7.802 4.293-11.613zM120.891 178.975c-1.781 3.723-3.562 7.535-5.344 11.328l3.26 1.443c1.674-3.741 3.438-7.517 5.344-11.186zM130.278 455.739l3.081-1.781c-2.084-3.562-4.115-7.125-6.038-10.848l-3.153 1.657c2.013 3.741 4.079 7.428 6.163 11.026zM133.056 157.119c-2.155 3.562-4.275 7.125-6.288 10.83l3.117 1.781c1.977-3.562 4.079-7.125 6.216-10.687zM147.003 136.315c-2.458 3.349-4.881 6.804-7.125 10.26l2.957 1.977c2.298-3.42 4.685-6.822 7.125-10.135zM162.678 116.722c-2.743 3.135-5.451 6.359-8.051 9.601l2.779 2.227c2.565-3.206 5.237-6.395 7.944-9.494zM179.902 98.589c-2.992 2.886-5.967 5.878-8.906 8.906l2.583 2.458c2.832-2.975 5.771-5.931 8.728-8.781zM198.694 81.97c-3.242 2.636-6.466 5.344-9.565 8.105l2.369 2.672c3.081-2.725 6.252-5.344 9.458-8.015zM128.247 308.861q0 104.308 74.241 178.566t178.566 74.205q104.361 0 178.566-74.205 73.617-73.635 73.635-178.566t-73.653-178.566q-74.223-74.205-178.566-74.205t-178.549 74.205q-74.241 74.205-74.241 178.566zM218.911 67.026c-3.456 2.333-6.893 4.774-10.242 7.267l2.12 2.868c3.295-2.458 6.697-4.863 10.117-7.125zM240.285 53.845c-3.562 2.031-7.285 4.168-10.83 6.359l1.781 3.028c3.562-2.155 7.125-4.275 10.687-6.288zM262.729 42.552c-3.794 1.781-7.606 3.562-11.346 5.344l1.603 3.188c3.687-1.781 7.463-3.651 11.204-5.344zM286.062 33.236c-3.936 1.372-7.909 2.868-11.774 4.4l1.318 3.313c3.83-1.532 7.748-2.992 11.631-4.346zM310.109 25.987c-4.026 1.033-8.087 2.155-12.077 3.366l1.033 3.42c3.936-1.193 7.962-2.298 11.934-3.313zM334.654 20.857c-4.115 0.677-8.265 1.443-12.326 2.298l0.73 3.562c4.026-0.837 8.122-1.603 12.183-2.28zM359.591 17.847c-4.168 0.321-8.354 0.73-12.468 1.229l0.427 3.562c4.061-0.499 8.211-0.908 12.326-1.229zM382.444 16.956c-3.42 0-6.893 0-10.331 0.178l0.125 3.562c3.384-0.125 6.822-0.178 10.206-0.178h2.191v-3.562h-2.209zM397.192 17.33l-0.178 3.562c4.115 0.214 8.265 0.499 12.362 0.873l0.321-3.562c-4.204-0.374-8.407-0.659-12.486-0.873zM422.129 19.646l-0.481 3.562c4.079 0.552 8.194 1.211 12.237 1.942l0.623-3.562c-4.115-0.73-8.283-1.389-12.362-1.942zM446.799 24.099l-0.784 3.562c4.008 0.908 8.051 1.906 12.023 2.975l0.926-3.438c-4.026-1.176-8.122-2.191-12.183-3.099zM471.005 30.671l-1.087 3.402c3.901 1.247 7.837 2.583 11.685 4.008l1.229-3.349c-3.919-1.461-7.891-2.743-11.845-4.079zM494.5 39.275l-1.372 3.295c3.776 1.567 7.588 3.26 11.311 5.005l1.514-3.224c-3.812-1.781-7.659-3.456-11.489-5.076zM517.174 49.962l-1.639 3.153c3.562 1.888 7.285 3.901 10.848 5.949l1.781-3.081c-3.651-2.155-7.339-4.186-11.026-6.181zM538.87 62.43l-1.906 3.010c3.456 2.209 6.929 4.524 10.295 6.875l2.048-2.921c-3.456-2.405-6.965-4.756-10.474-6.982zM559.3 76.769l-2.155 2.832c3.26 2.494 6.519 5.094 9.672 7.73l2.28-2.743c-3.117-2.725-6.43-5.308-9.797-7.82zM578.555 92.8l-2.405 2.636c3.028 2.761 6.056 5.629 8.906 8.532l2.743-2.512c-3.046-2.939-6.11-5.842-9.173-8.639zM596.367 110.452l-2.618 2.422c2.797 3.028 5.575 6.145 8.229 9.262l2.707-2.298c-2.636-3.153-5.415-6.305-8.247-9.369zM612.736 129.582l-2.85 2.155c2.529 3.242 5.023 6.59 7.41 9.939l2.903-2.066c-2.44-3.366-4.952-6.751-7.463-10.028zM627.289 150.012l-2.992 1.942c2.244 3.456 4.435 7 6.537 10.545l3.064-1.781c-2.155-3.616-4.382-7.196-6.644-10.705zM637.46 450.574c2.031-3.562 3.99-7.356 5.86-11.079l-3.188-1.603c-1.781 3.669-3.794 7.339-5.789 10.937zM640.007 171.725l-3.135 1.674c1.942 3.562 3.812 7.356 5.593 11.061l3.206-1.532c-1.799-3.847-3.705-7.624-5.664-11.293zM650.854 194.382l-3.277 1.407c1.621 3.794 3.171 7.677 4.631 11.524l3.331-1.265c-1.478-3.99-3.046-7.909-4.685-11.756zM659.76 217.894l-3.384 1.104c1.282 3.919 2.494 7.909 3.562 11.881l3.438-0.962c-1.14-4.097-2.369-8.14-3.669-12.112zM666.547 242.065l-3.473 0.819c0.926 3.99 1.781 8.069 2.565 12.112l3.562-0.659c-0.908-4.186-1.781-8.318-2.725-12.362zM671.32 266.7h-3.562v5.344h3.562v-5.344zM671.32 284.512h-3.562v12.468h3.562v-12.468zM671.32 309.449h-3.562v12.468h3.562v-12.468zM671.32 334.385h-3.562v12.468h3.562v-12.468zM671.32 359.322h-3.562v12.468h3.562v-12.468zM671.32 384.259h-3.562v12.468h3.562v-12.468zM671.32 409.196h-3.562v12.468h3.562v-12.468zM671.32 434.133h-3.562v12.468h3.562v-12.468zM671.32 459.070h-3.562v12.468h3.562v-12.468zM671.32 484.007h-3.562v12.468h3.562v-12.468zM671.32 508.944h-3.562v12.468h3.562v-12.468zM671.32 533.881h-3.562v12.468h3.562v-12.468zM671.32 558.818h-3.562v12.468h3.562v-12.468zM671.32 583.755h-3.562v12.468h3.562v-12.468zM671.32 608.692h-3.562v12.468h3.562v-12.468zM671.32 633.629h-3.562v12.468h3.562v-12.468zM671.32 658.566h-3.562v12.468h3.562v-12.468zM671.32 683.503h-3.562v12.468h3.562v-12.468zM671.32 708.44h-3.562v12.468h3.562v-12.468zM671.32 733.377h-3.562v12.468h3.562v-12.468zM671.32 758.314h-3.562v12.468h3.562v-12.468zM671.32 783.251h-3.562v12.468h3.562v-12.468zM671.32 808.187h-3.562v12.468h3.562v-12.468zM671.32 833.124h-3.562v12.468h3.562v-12.468zM671.32 858.061h-3.562v12.468h3.562v-12.468z" />
<glyph unicode="&#xe901;" glyph-name="app-full" horiz-adv-x="1147" d="M361.339 189.602c0-40.755 33.038-73.793 73.793-73.793h278.199c40.755 0 73.793 33.038 73.793 73.793v55.345h-425.785zM573.863 226.498c15.351 0 27.795-12.444 27.795-27.795s-12.444-27.795-27.795-27.795c-15.351 0-27.795 12.444-27.795 27.795s12.444 27.795 27.795 27.795zM361.339 281.843h425.785v295.172h-425.785zM713.332 706.89h-278.199c-40.755 0-73.793-33.038-73.793-73.793v-17.464h425.785v17.218c0 0.073 0 0.159 0 0.246 0 40.755-33.038 73.793-73.793 73.793 0 0 0 0 0 0z" />
<glyph unicode="&#xe902;" glyph-name="app" horiz-adv-x="749" d="M366.806 58.269c-22.925 0-45.851 22.925-45.851 45.851s22.925 45.851 45.851 45.851 45.851-22.925 45.851-45.851c0-30.567-15.284-45.851-45.851-45.851v0zM718.328 822.448v-733.612c0-68.776-53.493-122.269-122.269-122.269h-458.507c-68.776 0-122.269 53.493-122.269 122.269v733.612c0 68.776 53.493 122.269 122.269 122.269h458.507c68.776 0 122.269-53.493 122.269-122.269zM657.194 180.537h-580.776v-91.701c0-30.567 30.567-61.134 61.134-61.134h458.507c30.567 0 61.134 30.567 61.134 61.134v91.701zM657.194 730.746h-580.776v-489.075h580.776v489.075zM657.194 822.448c0 30.567-22.925 61.134-61.134 61.134h-458.507c-30.567 0-61.134-30.567-61.134-61.134v-30.567h580.776v30.567z" />
<glyph unicode="&#xe903;" glyph-name="camera-full" horiz-adv-x="1147" d="M573.863 493.875c-70.37 0-127.416-57.046-127.416-127.416s57.046-127.416 127.416-127.416c70.37 0 127.416 57.046 127.416 127.416s-57.046 127.416-127.416 127.416zM828.449 621.29h-63.708l-21.154 43.538c-12.545 24.598-18.94 42.554-42.554 42.554h-254.586c-24.598 0-31.239-20.17-42.554-42.554l-21.154-42.554h-62.97c-46.868 0-84.862-37.994-84.862-84.862v-339.939c-0.002-0.219-0.003-0.478-0.003-0.738 0-46.868 37.994-84.862 84.862-84.862 0.001 0 0.002 0 0.003 0h508.679c0.001 0 0.002 0 0.003 0 46.868 0 84.862 37.994 84.862 84.862 0 0.259-0.001 0.519-0.003 0.777v338.916c0 46.868-37.994 84.862-84.862 84.862zM573.863 197.473c-93.736 0-169.724 75.988-169.724 169.724s75.988 169.724 169.724 169.724c93.736 0 169.724-75.988 169.724-169.724s-75.988-169.724-169.724-169.724z" />
<glyph unicode="&#xe904;" glyph-name="camera" horiz-adv-x="1147" d="M573.863 528.065c-93.736 0-169.724-75.988-169.724-169.724s75.988-169.724 169.724-169.724c93.736 0 169.724 75.988 169.724 169.724s-75.988 169.724-169.724 169.724zM573.863 231.172c-70.234 0-127.17 56.936-127.17 127.17s56.936 127.17 127.17 127.17c70.234 0 127.17-56.936 127.17-127.17 0 0 0 0 0 0 0-70.283-56.906-127.276-127.156-127.416zM828.203 612.927h-63.462l-21.154 42.308c-12.545 24.598-18.94 42.308-42.308 42.308h-254.832c-24.598 0-31.239-20.17-42.308-42.308l-21.154-42.308h-63.216c-46.868 0-84.862-37.994-84.862-84.862v-339.448c0-46.868 37.994-84.862 84.862-84.862h509.171c46.868 0 84.862 37.994 84.862 84.862v339.448c0 0.001 0 0.002 0 0.003 0 46.868-37.994 84.862-84.862 84.862-0.259 0-0.519-0.001-0.777-0.003zM870.757 188.618c-0.139-23.31-18.998-42.169-42.295-42.308h-508.693c-23.31 0.139-42.169 18.998-42.308 42.295v339.461c0.139 23.31 18.998 42.169 42.295 42.308h84.875l21.154 42.308c15.005 24.598 18.94 42.308 42.308 42.308h212.032c24.598 0 27.549-17.71 42.308-42.308l21.154-42.308h84.862c23.31-0.139 42.169-18.998 42.308-42.295z" />
<glyph unicode="&#xe905;" glyph-name="cloud-full" horiz-adv-x="1147" d="M748.998 579.966c-37.136 74.424-112.727 124.646-200.048 124.646-117.517 0-213.789-90.961-222.25-206.318-85.479-23.602-147.69-99.468-149.593-190.165 3.716-107.876 90.455-194.101 197.981-196.988l347.346-0.006c130.122 0 247.944 105.524 247.944 235.399-0.72 124.466-98.026 225.974-220.723 233.4z" />
<glyph unicode="&#xe906;" glyph-name="cloud" horiz-adv-x="1330" d="M1304.068 347.35c0-210.051-192.547-385.094-402.598-385.094h-560.137c-175.043 8.752-315.077 148.786-323.829 323.829 8.752 148.786 105.026 271.316 245.060 306.325 8.752 131.282 87.521 245.060 201.299 297.573 183.795 87.521 393.846 8.752 481.368-166.291 201.299-8.752 358.838-175.043 358.838-376.342zM1225.299 364.855c-8.752 131.282-140.034 288.821-341.333 280.068-26.256 122.53-140.034 201.299-262.564 201.299-175.043 0-280.068-157.538-280.068-323.829-131.282 0-236.308-105.026-236.308-236.308 0-218.803 245.060-245.060 245.060-245.060h560.137c140.034 0 323.829 148.786 315.077 323.829z" />
<glyph unicode="&#xe907;" glyph-name="docs-full" horiz-adv-x="1147" d="M885.515 702.217h-590.344c-54.361 0-114.871-39.356-114.871-93.717v-393.562c0-54.361 60.756-103.064 114.871-103.064h590.344c54.361 0 81.91 49.195 81.91 103.064v393.562c0 54.361-27.549 93.717-81.91 93.717zM360.847 382.447c-3.357-2.010-7.406-3.198-11.733-3.198-0.026 0-0.052 0-0.078 0-6.473 0.023-12.356 2.546-16.736 6.654-4.386 4.126-7.125 9.985-7.125 16.484 0 0.167 0.002 0.334 0.005 0.501 0.247 8.465 4.759 15.849 11.459 20.086l93.818 57.372-93.471 56.083c-7.031 4.332-11.679 11.94-11.807 20.643 0 0.038 0 0.061 0 0.083 0 3.361 0.725 6.552 2.026 9.426 1.189 2.711 2.845 5.155 4.867 7.242 4.412 4.261 10.435 6.89 17.073 6.89 4.287 0 8.318-1.097 11.827-3.025l127.288-76.68c7.129-4.279 11.869-11.897 12.052-20.636-0.147-8.93-5.004-16.668-12.182-20.871zM628.962 333.252h-117.085c-13.585 0-24.598 11.013-24.598 24.598s11.013 24.598 24.598 24.598h117.085c13.585 0 24.598-11.013 24.598-24.598s-11.013-24.598-24.598-24.598z" />
<glyph unicode="&#xe908;" glyph-name="docs" horiz-adv-x="1147" d="M484.328 499.532c5.503-3.105 9.193-8.853 9.347-15.475 0.001-0.060 0.001-0.106 0.001-0.152 0-6.719-3.741-12.564-9.255-15.565l-127.263-76.299c-2.412-1.396-5.306-2.22-8.392-2.22-0.163 0-0.325 0.002-0.487 0.007-0.121-0.005-0.292-0.007-0.464-0.007-4.696 0-8.954 1.88-12.060 4.929-3.187 3.009-5.172 7.267-5.172 11.989 0 0.195 0.003 0.389 0.010 0.582-0.002 0.031-0.002 0.101-0.002 0.171 0 6.439 3.535 12.053 8.77 15.007l103.396 61.785-103.31 61.002c-5.326 3.059-8.855 8.715-8.855 15.195 0 0.020 0 0.039 0 0.059 0.132 2.163 0.662 4.174 1.518 6.001 1.809 4.105 5.099 7.394 9.19 9.201 2.416 1.175 5.124 1.835 7.986 1.835s5.57-0.66 7.979-1.837zM348.303 383.923c-6.477 0.023-12.361 2.546-16.74 6.654-4.243 4.108-6.885 9.873-6.885 16.255 0 0.248 0.004 0.495 0.012 0.741 0.159 8.548 4.693 16.040 11.459 20.321l93.818 56.388-93.717 55.837c-7.031 4.332-11.679 11.94-11.807 20.643 0 0.053-0.001 0.094-0.001 0.135 0 3.343 0.725 6.516 2.026 9.372 1.19 2.713 2.846 5.157 4.868 7.244 4.412 4.261 10.435 6.89 17.073 6.89 4.287 0 8.318-1.097 11.827-3.025l127.288-76.68c7.129-4.279 11.869-11.897 12.052-20.636-0.093-8.886-4.856-16.613-11.941-20.872l-127.281-76.315c-3.259-1.864-7.164-2.963-11.325-2.963-0.256 0-0.511 0.004-0.765 0.012zM869.035 702.217h-590.344c-0.954 0.034-2.074 0.054-3.199 0.054-52.42 0-94.943-42.37-95.192-94.731v-393.586c-0.001-0.161-0.001-0.352-0.001-0.542 0-54.982 43.679-99.762 98.229-101.534l590.506-0.004c54.713 1.776 98.392 46.556 98.392 101.538 0 0.191-0.001 0.381-0.002 0.572v393.533c-0.249 52.385-42.772 94.755-95.192 94.755-1.125 0-2.245-0.020-3.361-0.058zM918.23 210.264c0-27.17-22.025-49.195-49.195-49.195h-590.344c-27.17 0-49.195 22.025-49.195 49.195v393.562c0 27.17 22.025 49.195 49.195 49.195h590.344c27.17 0 49.195-22.025 49.195-49.195zM511.139 394.008h117.085c12.77 0 23.122-10.352 23.122-23.122v0.246c0-12.77-10.352-23.122-23.122-23.122h-117.085c-12.77 0-23.122 10.352-23.122 23.122v-0.246c0 12.77 10.352 23.122 23.122 23.122z" />
<glyph unicode="&#xe909;" glyph-name="indicator" horiz-adv-x="1147" d="M573.863 704.676c-163.019 0-295.172-132.153-295.172-295.172s132.153-295.172 295.172-295.172c163.019 0 295.172 132.153 295.172 295.172s-132.153 295.172-295.172 295.172zM573.863 153.689c-141.283 0-255.816 114.533-255.816 255.816s114.533 255.816 255.816 255.816c141.283 0 255.816-114.533 255.816-255.816s-114.533-255.816-255.816-255.816c-0.086 0-0.173 0-0.259 0z" />
<glyph unicode="&#xe90a;" glyph-name="indicator.svg-full" horiz-adv-x="1147" d="M573.863 704.676c-163.019 0-295.172-132.153-295.172-295.172s132.153-295.172 295.172-295.172c163.019 0 295.172 132.153 295.172 295.172s-132.153 295.172-295.172 295.172zM573.863 153.689c-141.283 0-255.816 114.533-255.816 255.816s114.533 255.816 255.816 255.816c141.283 0 255.816-114.533 255.816-255.816s-114.533-255.816-255.816-255.816c-0.086 0-0.173 0-0.259 0z" />
<glyph unicode="&#xe90b;" glyph-name="mic-full" horiz-adv-x="1147" d="M793.766 372.362h-40.094c-21.195-80.966-93.7-139.738-179.932-139.738s-158.737 58.772-179.643 138.445l-40.137 1.293c19.961-96.805 100.258-170.003 199.106-179.007l0.872-40.896h-20.17c-11.072 0-20.047-8.975-20.047-20.047s8.975-20.047 20.047-20.047h81.172c11.072 0 20.047 8.975 20.047 20.047s-8.975 20.047-20.047 20.047h-19.924v40.832c99.208 9.597 178.916 82.627 198.499 177.622zM573.863 271.266c77.088 0.278 139.472 62.833 139.472 139.96 0 0.346-0.001 0.692-0.004 1.038v199.926c0 77.298-62.662 139.961-139.961 139.961s-139.961-62.662-139.961-139.961v-199.979c-0.002-0.293-0.003-0.639-0.003-0.985 0-77.298 62.662-139.961 139.961-139.961 0.174 0 0.348 0 0.523 0.001z" />
<glyph unicode="&#xe90c;" glyph-name="mic" horiz-adv-x="1147" d="M793.766 372.362h-40.094c-21.195-80.966-93.7-139.738-179.932-139.738s-158.737 58.772-179.643 138.445l-40.137 1.293c19.961-96.805 100.258-170.003 199.106-179.007l0.872-40.896h-20.17c-11.072 0-20.047-8.975-20.047-20.047s8.975-20.047 20.047-20.047h81.172c11.072 0 20.047 8.975 20.047 20.047s-8.975 20.047-20.047 20.047h-19.924v40.832c99.208 9.597 178.916 82.627 198.499 177.622zM573.863 271.266c77.088 0.278 139.472 62.833 139.472 139.96 0 0.346-0.001 0.692-0.004 1.038v199.926c0 77.298-62.662 139.961-139.961 139.961s-139.961-62.662-139.961-139.961v-199.979c-0.002-0.293-0.003-0.639-0.003-0.985 0-77.298 62.662-139.961 139.961-139.961 0.174 0 0.348 0 0.523 0.001zM473.751 612.189c0 55.223 44.767 99.989 99.989 99.989s99.989-44.767 99.989-99.989v-199.979c0-55.223-44.767-99.989-99.989-99.989s-99.989 44.767-99.989 99.989z" />
<glyph unicode="&#xe90d;" glyph-name="mouse" horiz-adv-x="640" d="M320 960c-176.731 0-320-143.269-320-320v-384c0-176.731 143.269-320 320-320s320 143.269 320 320v384c0 176.731-143.269 320-320 320zM576 256c0-141.385-114.615-256-256-256s-256 114.615-256 256v384c0 141.385 114.615 256 256 256s256-114.615 256-256v-384zM334.72 690.88c-4.604 1.184-9.888 1.864-15.332 1.864-35.346 0-64-28.654-64-64s28.654-64 64-64c30.26 0 55.615 21.001 62.285 49.222 1.121 4.744 1.715 9.692 1.715 14.778 0 29.903-20.508 55.015-48.226 62.041z" />
<glyph unicode="&#xe90e;" glyph-name="twitter" d="M1024 733.6c-37.6-16.8-78.2-28-120.6-33 43.4 26 76.6 67.2 92.4 116.2-40.6-24-85.6-41.6-133.4-51-38.4 40.8-93 66.2-153.4 66.2-116 0-210-94-210-210 0-16.4 1.8-32.4 5.4-47.8-174.6 8.8-329.4 92.4-433 219.6-18-31-28.4-67.2-28.4-105.6 0-72.8 37-137.2 93.4-174.8-34.4 1-66.8 10.6-95.2 26.2 0-0.8 0-1.8 0-2.6 0-101.8 72.4-186.8 168.6-206-17.6-4.8-36.2-7.4-55.4-7.4-13.6 0-26.6 1.4-39.6 3.8 26.8-83.4 104.4-144.2 196.2-146-72-56.4-162.4-90-261-90-17 0-33.6 1-50.2 3 93.2-59.8 203.6-94.4 322.2-94.4 386.4 0 597.8 320.2 597.8 597.8 0 9.2-0.2 18.2-0.6 27.2 41 29.4 76.6 66.4 104.8 108.6z" />
<glyph unicode="&#xe90f;" glyph-name="github" d="M512.008 947.358c-282.738 0-512.008-229.218-512.008-511.998 0-226.214 146.704-418.132 350.136-485.836 25.586-4.738 34.992 11.11 34.992 24.632 0 12.204-0.48 52.542-0.696 95.324-142.448-30.976-172.504 60.41-172.504 60.41-23.282 59.176-56.848 74.916-56.848 74.916-46.452 31.778 3.51 31.124 3.51 31.124 51.4-3.61 78.476-52.766 78.476-52.766 45.672-78.27 119.776-55.64 149.004-42.558 4.588 33.086 17.852 55.68 32.506 68.464-113.73 12.942-233.276 56.85-233.276 253.032 0 55.898 20.004 101.574 52.76 137.428-5.316 12.9-22.854 64.972 4.952 135.5 0 0 43.006 13.752 140.84-52.49 40.836 11.348 84.636 17.036 128.154 17.234 43.502-0.198 87.336-5.886 128.256-17.234 97.734 66.244 140.656 52.49 140.656 52.49 27.872-70.528 10.35-122.6 5.036-135.5 32.82-35.856 52.694-81.532 52.694-137.428 0-196.654-119.778-239.95-233.79-252.624 18.364-15.89 34.724-47.046 34.724-94.812 0-68.508-0.596-123.644-0.596-140.508 0-13.628 9.222-29.594 35.172-24.566 203.322 67.776 349.842 259.626 349.842 485.768 0 282.78-229.234 511.998-511.992 511.998z" />
<glyph unicode="&#xe910;" glyph-name="like" horiz-adv-x="1044" d="M1003.944 444.275h40.112c-0.648 66.598-54.787 120.336-121.476 120.336-0.002 0-0.004 0-0.006 0h-271.615v-40.112l36.674 8.595v12.607c9.788 43.311 24.996 81.577 45.188 116.609 3.511 6.246 7.253 15.798 9.665 25.868 7.464 31.608 11.654 67.004 11.654 103.378 0 2.006-0.013 4.009-0.038 6.009 0.015 0.853 0.022 2.22 0.022 3.589 0 25.982-2.51 51.378-7.3 75.958-2.194 10.529-5.956 22.036-10.892 32.896-5.31 12.101-14.129 22.944-25.153 30.929-18.889 12.432-41.775 19.74-66.367 19.74-41.68 0-78.458-20.991-100.339-52.977l-4.28-5.001-45.842-167.897-87.673-127.785-21.202-26.932-50.426-60.168-27.505-32.090-9.741-11.461v-490.511l176.492-51.572h320.322c0.675-0.014 1.472-0.021 2.27-0.021 66.776 0 120.909 54.133 120.909 120.909 0 16.105-3.149 31.474-8.864 45.526l-36.956-15.708 9.741-38.966c53.572 13.184 92.682 60.809 92.682 117.568 0 35.322-15.146 67.107-39.299 89.213l-27.024-29.715 7.449-39.539c56.193 11.148 97.968 60.051 97.968 118.712 0 35.925-15.668 68.191-40.543 90.336l-27.054-29.691 10.888-38.393c50.99 14.363 87.901 60.051 88.818 114.502l-80.222 0.104c0-0.054 0-0.119 0-0.183 0-18.803-12.756-34.627-30.086-39.291l-71.34-12.672 53.865-48.707c8.422-7.464 13.715-18.295 13.753-30.364-0.178-19.806-14.274-36.262-32.97-40.073l-78.197-15.517 57.303-53.865c8.422-7.464 13.715-18.295 13.753-30.364-0.264-19.109-13.47-35.053-31.232-39.486l-44.98-10.948 16.618-42.977 2.865-14.899c0-22.786-18.472-41.258-41.258-41.258h-307.716l-107.729 31.517v410.861h-40.112l30.37-26.359 45.269 52.719 34.955 41.831c10.888 13.18 18.91 23.494 24.64 32.090l95.123 138.673 47.561 171.908-38.966 10.314 33.236-22.921c7.555 10.723 19.885 17.642 33.831 17.642 8.779 0 16.917-2.742 23.606-7.416l6.743 9.83-9.741-7.449h2.865l6.876 10.314-9.741-7.449c3.626-8.693 6.254-18.776 7.406-29.304 1.879-14.201 2.927-30.047 2.927-46.138 0-1.278-0.007-2.555-0.020-3.83 0.096-3.314 0.15-7.444 0.15-11.587 0-18.664-1.095-37.073-3.224-55.165-1.086-7.076-2.689-15.032-4.709-22.821l0.335-5.356c-24.803-40.742-44.354-87.999-56.085-138.261l-0.644-3.277c-0.271-2.748-0.425-5.94-0.425-9.168s0.154-6.42 0.456-9.569c-0.031 0.288-0.032 0.155-0.032 0.021 0-9.208 1.044-18.172 3.021-26.781l6.721-30.715h303.705c22.786 0 41.258-18.472 41.258-41.258zM40.112 33.988v-40.112h230.93v493.95h-271.042v-493.95h40.112v40.112h40.112v373.614h110.594v-333.502h-150.706v-40.112z" />
<glyph unicode="&#xe911;" glyph-name="edit" horiz-adv-x="1023" d="M260.075 889.135l18.425-7.087 579.676-579.676 67.322-268.579-267.87 67.322-24.094 24.803-555.582 555.582-7.087 18.425c0.078 8.011 3.309 15.252 8.509 20.556l160.15 160.15c5.299 5.195 12.54 8.426 20.536 8.504zM260.075 960c-27.721-0.165-52.76-11.513-70.859-29.757l-159.453-159.453c-18.383-18.022-29.778-43.113-29.778-70.865s11.395-52.843 29.762-70.849l556.307-556.307 37.558-38.267 401.805-100.628-104.172 404.639-12.047 12.047-580.385 581.093c-17.452 17.512-41.595 28.347-68.267 28.347-0.166 0-0.332 0-0.497-0.001zM614.155 80.373l250.045 250.045 50.109-50.109-250.045-250.045-50.109 50.109zM932.584 164.894l-138.896-139.604 165.824-37.558-26.929 177.163z" />
<glyph unicode="&#xe912;" glyph-name="share" horiz-adv-x="987" d="M976.586 548.843l-365.158 400.542c-6.752 6.588-15.993 10.652-26.184 10.652s-19.432-4.064-26.191-10.66c-6.352-6.494-10.276-15.4-10.276-25.223 0-1.835 0.137-3.637 0.401-5.398l-0.024-212.103c-0.728 0.003-1.589 0.005-2.451 0.005-302.898 0-548.445-245.547-548.445-548.445 0-80.443 17.319-156.84 48.431-225.668 51.589 235.154 255.941 405.412 500.058 405.412 0.349 0 0.697 0 1.046-0.001-0.054-12.738-0.054-212.301-0.054-212.301-0.24-1.563-0.377-3.365-0.377-5.2 0-9.823 3.924-18.729 10.29-25.237l-0.006 0.007c6.581-6.963 15.873-11.303 26.18-11.323 11.141 0.161 21.037 5.343 27.55 13.378l365.211 395.655c6.59 6.541 10.669 15.603 10.669 25.619 0 0.697-0.020 1.389-0.059 2.076 0.066 0.697 0.101 1.62 0.101 2.551 0 10.036-4.097 19.116-10.709 25.658zM622.751 214.115v196.733h-111.104c-175.81-15.724-330.105-96.964-440.366-218.803-0.513 136.713 179.943 431.104 438.243 438.888h112.52v196.733l283.068-307.129z" />
<glyph unicode="&#xe913;" glyph-name="toyCar-1" horiz-adv-x="2349" d="M0 157.162v-6.293c0-33.264 26.971-44.952 60.235-44.952h403.666c-0.286-3.548-0.45-7.68-0.45-11.851 0-86.395 70.037-156.432 156.432-156.432s156.432 70.037 156.432 156.432c0 4.171-0.163 8.303-0.484 12.391l1049.207-27.512c3.929-79.778 69.568-142.974 149.968-142.974 1.008 0 2.015 0.010 3.018 0.030 3.68-0.365 8.133-0.571 12.633-0.571 76.798 0 139.539 60.183 143.633 135.959l151.952 0.364c33.264 0 60.235 42.255 60.235 75.519v9.889c0 33.267-26.968 60.235-60.235 60.235h-20.678c16.773 33.282 26.595 72.54 26.595 114.093 0 9.53-0.517 18.94-1.524 28.202 0.353 3.152 0.497 8.179 0.497 13.24 0 46.528-12.146 90.219-33.44 128.075l0.679-1.313c11.418 10.547 18.545 25.597 18.545 42.31 0 2.835-0.205 5.621-0.601 8.346 0.037-0.303 0.037-0.294 0.037-0.285 0 34.124-27.16 61.905-61.042 62.905l-575.474 5.396c0 5.394-151.937 239.143-284.095 302.076-97.096 49.447-521.44 53.942-685.064 2.697-203.43-66.622-371.886-193.501-488.859-359.302-66.168-99.88-106.842-217.356-113.424-343.854l-8.161-1.687c-0.002 0-0.004 0-0.007 0-33.267 0-60.235-26.968-60.235-60.235 0-0.316 0.002-0.632 0.007-0.947zM1040.183 749.626c0.505 63.351 51.725 114.571 115.028 115.076h103.437c74.225-4.348 139.808-38.088 185.87-89.642l50.576-64.992c38.658-50.346 18.88-89.903-44.053-89.903h-294.883c-63.351 0.505-114.571 51.725-115.076 115.028zM521.44 715.463s32.365 45.851 44.952 59.336c69.34 56.147 158.624 90.139 255.847 90.139 4.875 0 9.731-0.085 14.565-0.255l31.664 0.020c63.351-0.505 114.571-51.725 115.076-115.028v-16.231c-0.507-63.665-52.235-115.080-115.972-115.080-0.317 0-0.634 0.001-0.951 0.004h-224.71c-140.249 0-159.129 29.668-120.471 97.096z" />
<glyph unicode="&#xe914;" glyph-name="wifi-full" horiz-adv-x="1147" d="M573.863 260.935c-40.755 0-73.793-33.038-73.793-73.793s33.038-73.793 73.793-73.793c40.755 0 73.793 33.038 73.793 73.793s-33.038 73.793-73.793 73.793zM971.853 520.686c-95.856 114.048-238.578 186.027-398.113 186.027s-302.257-71.979-397.463-185.233c-6.124-7.223-9.454-15.625-9.454-24.805 0-11.492 5.22-21.766 13.417-28.579 6.464-5.438 14.802-8.713 23.904-8.713 11.315 0 21.448 5.059 28.261 13.040 82.182 97.888 204.547 159.645 341.335 159.645s259.153-61.757 340.733-158.909c7.33-8.824 17.462-13.968 28.795-13.968 0.105 0 0.209 0 0.313 0.001 0.004 0 0.028 0 0.052 0 20.513 0 37.142 16.629 37.142 37.142 0 9.11-3.28 17.454-8.723 23.916zM573.863 558.074c-113.933-0.024-215.859-51.41-283.887-132.264-5.915-6.991-9.231-15.382-9.231-24.546 0-20.534 16.646-37.179 37.179-37.179 11.369 0 21.546 5.103 28.366 13.143 54.578 65.7 136.23 107.19 227.573 107.19s172.995-41.491 227.138-106.653c7.244-8.483 17.358-13.521 28.648-13.521 0.097 0 0.193 0 0.29 0.001 0.005 0 0.029 0 0.053 0 20.513 0 37.142 16.629 37.142 37.142 0 9.11-3.28 17.454-8.723 23.916-68.444 81.361-170.37 132.748-284.299 132.771zM573.863 410.489c-0.18 0.001-0.392 0.001-0.605 0.001-68.208 0-129.211-30.847-169.82-79.351-5.61-6.73-8.844-15.021-8.844-24.068 0-11.381 5.119-21.567 13.18-28.38 6.324-5.409 14.529-8.673 23.496-8.673 0.407 0 0.812 0.007 1.215 0.020 11.362 0.013 21.581 5.146 28.43 13.227 27.31 32.79 68.082 53.474 113.686 53.474s86.376-20.684 113.448-53.182c7.086-8.373 17.305-13.506 28.723-13.521 0.347-0.012 0.752-0.018 1.159-0.018 8.967 0 17.172 3.264 23.491 8.669 8.067 6.817 13.186 17.003 13.186 28.384 0 9.047-3.234 17.338-8.61 23.781-40.844 48.791-101.847 79.638-170.054 79.638-0.213 0-0.425 0-0.638-0.001z" />
<glyph unicode="&#xe915;" glyph-name="google" horiz-adv-x="1003" d="M55.222 677.89c27.518 55.288 62.908 102.373 105.356 141.992 91.406 86.271 214.615 139.137 350.172 139.137 92.002 0 178.317-24.352 252.849-66.962 29.099-16.74 56.424-36.609 81.355-59.082 4.378-3.826 4.978-5.626-0.424-11.029l-129.050-134.453c-4.202-4.202-6.603-4.202-11.404 0-51.894 44.048-119.643 70.834-193.648 70.834-106.56 0-200.15-55.536-253.403-139.244-13.236-21.099-24.744-44.039-34.006-68.095zM850.532 59.648c-29.073-28.441-62.749-52.334-99.777-70.429-69.418-34.652-148.585-54.353-232.352-54.353-144.601 0-275.49 58.705-370.135 153.583-37.165 36.999-68.285 80.009-91.792 127.46l36.559 32.213 129.050 99.639c15.594-44.047 38.907-81.855 68.597-113.628 55.667-60.727 135.596-98.774 224.412-98.774 26.838 0 52.865 3.474 77.656 9.998 34.947 7.882 67.67 21.991 96.87 41.047l72.676-60.729c29.411-19.808 58.223-43.217 88.234-66.026zM850.532 59.648c-30.612 21.008-60.023 45.018-88.234 67.226l-73.829 60.023c23.21 16.988 43.036 36.813 59.492 59.263 17.89 25.398 31.164 54.312 38.604 85.491 0.343 10.706 0.343 12.507-8.661 12.507h-254.499c-9.004 0-11.404 0-11.404 11.404q0 89.435 0 180.070c0 7.803 0 10.204 10.204 10.204h460.98c7.203 0 10.204 0 11.404-9.004 5.395-29.858 8.479-64.225 8.479-99.313 0-72.063-13.012-141.087-36.814-204.851-23.295-61.886-60.534-118.040-107.806-163.911zM222.087 347.761l-129.050-99.639-37.815-29.411c-13.082 23.175-24.519 50.046-32.899 78.232-15.656 48.237-24.274 100.534-24.274 154.843 0 15.572 0.708 30.979 2.095 46.189 5.867 64.612 23.83 125.714 51.606 181.038l-1.33 1.278 171.667-132.052c-5.452-18.909-10.283-42.076-13.507-65.753-1.327-12.222-1.914-23.299-1.914-34.512 0-34.083 5.421-66.9 15.449-97.635s-0.028-0.777-0.028-2.578z" />
<glyph unicode="&#xe916;" glyph-name="password" horiz-adv-x="640" d="M575.847 447.593v256.203c0 141.497-114.706 256.203-256.203 256.203s-256.203-114.706-256.203-256.203v-256.203c-39.113-52.421-62.622-118.481-62.622-190.031 0-176.535 143.11-319.644 319.644-319.644 175.86 0 318.55 142.018 319.638 317.623 0.001 0.185 0.001 0.281 0.001 0.378 0 72.332-24.149 139.025-64.823 192.454zM352.178 159.67c0-17.743-14.384-32.127-32.127-32.127s-32.127 14.384-32.127 32.127v128.508c0 17.743 14.384 32.127 32.127 32.127s32.127-14.384 32.127-32.127zM514.847 511.034c-52.701 40.232-119.496 64.462-191.949 64.462s-139.247-24.229-192.722-65.027l0.773 193.328c0 106.011 85.939 191.949 191.949 191.949s191.949-85.939 191.949-191.949z" />
<glyph unicode="&#xe917;" glyph-name="userName" horiz-adv-x="704" d="M630.342 405.299c-61.498-89.661-162.843-148.112-277.928-149.653-115.865 1.259-217.562 59.777-278.459 148.492-45.477-33.84-73.954-87.824-73.954-148.459 0-0.012 0-0.025 0-0.037v-127.693c0-106.011 85.939-191.949 191.949-191.949h320.458c106.011 0 191.949 85.939 191.949 191.949v127.695c-0.197 60.774-28.97 114.787-73.58 149.332zM352.178 319.898c161.105 9.109 288.298 141.974 288.298 304.546 0 5.311-0.136 10.59-0.404 15.834 0.294 4.017 0.445 9.578 0.445 15.174 0 162.587-127.216 295.461-287.538 304.512-161.924-9.051-289.14-141.925-289.14-304.512 0-5.596 0.151-11.157 0.448-16.679-0.271-3.739-0.407-9.018-0.407-14.328 0-162.572 127.193-295.437 287.494-304.51z" />
<glyph unicode="&#xe918;" glyph-name="facebook" horiz-adv-x="478" d="M127.85-64c0 15.006 0 30.612 0 45.618q0 226.288 0 453.177c0 4.202 0 7.803 0 13.205h-127.85c0 3.001 0 5.402 0 7.803 0 53.421 0 106.242 0 159.662 0 7.203 0 9.004 9.004 9.004h111.043c6.603 0 8.403 0 9.004 9.004 0 47.419 0 95.437 0 142.856 1.133 36.575 10.548 70.705 26.42 100.912 16.21 31.252 44.528 55.863 78.84 67.466 28.762 9.832 60.771 15.342 94.067 15.342 1.882 0 3.76-0.018 5.633-0.053l143.175 0.004v-175.869h-10.204l-94.837-4.202c-3.426 0.481-7.383 0.756-11.404 0.756s-7.979-0.275-11.854-0.806c-15.577-4.334-27.161-18.766-27.161-35.904 0-0.021 0-0.042 0-0.063 0-37.811 0-75.026 0-112.841 0-6.603 4.202-4.802 7.803-4.802h150.659l-20.408-178.27h-139.855c0-4.202 0-7.803 0-10.804q0-245.496 0-491.592c0-3.001 0-6.603 0-9.604z" />
<glyph unicode="&#xe919;" glyph-name="media-pause" d="M341.333 704c-47.104 0-85.333-38.229-85.333-85.333v-341.333c0-47.104 38.229-85.333 85.333-85.333s85.333 38.229 85.333 85.333v341.333c0 47.104-38.229 85.333-85.333 85.333zM640 704c-47.104 0-85.333-38.229-85.333-85.333v-341.333c0-47.104 38.229-85.333 85.333-85.333s85.333 38.229 85.333 85.333v341.333c0 47.104-38.229 85.333-85.333 85.333z" />
<glyph unicode="&#xe91a;" glyph-name="full-screen" d="M352.156 384.312l-201.054-204.8-69.932 69.932c-14.985 14.985-29.971 31.22-48.702 31.22-0.007 0-0.016 0-0.024 0-17.932 0-32.468-14.537-32.468-32.468 0-0.439 0.009-0.876 0.026-1.311l-0.002-275.918c-0.002-0.121-0.003-0.264-0.003-0.407 0-9.797 4.34-18.581 11.201-24.534 5.846-6.732 14.282-11.017 23.723-11.272l277.273-0.001c17.932 0 32.468 14.537 32.468 32.468 0 18.732-21.229 38.712-29.971 47.454l-64.937 71.18 198.556 202.302zM1024 923.785c-0.047 9.913-4.365 18.809-11.208 24.948-6.198 6.901-15.094 11.219-24.999 11.267h-280.984c-18.621 0-33.717-15.096-33.717-33.717 0-18.732 21.229-39.961 31.22-48.702l71.18-71.18-199.805-198.556 96.156-96.156 202.302 198.556 71.18-71.18c14.985-14.985 31.22-32.468 49.951-32.468 18.621 0 33.717 15.096 33.717 33.717z" />
<glyph unicode="&#xe91b;" glyph-name="play" horiz-adv-x="804" d="M782.278 498.479l-694.012 449.406c-40.96 22.499-88.266 20.192-88.266-59.421v-880.928c0-72.69 50.767-84.228 88.266-57.69l692.282 447.099c12.68 13.484 20.471 31.693 20.471 51.721 0 19.123-7.102 36.586-18.813 49.897z" />
<glyph unicode="&#xe91c;" glyph-name="wifi" horiz-adv-x="1147" d="M573.863 260.935c-40.755 0-73.793-33.038-73.793-73.793s33.038-73.793 73.793-73.793c40.755 0 73.793 33.038 73.793 73.793s-33.038 73.793-73.793 73.793zM971.853 520.686c-95.856 114.048-238.578 186.027-398.113 186.027s-302.257-71.979-397.463-185.233c-6.124-7.223-9.454-15.625-9.454-24.805 0-11.492 5.22-21.766 13.417-28.579 6.464-5.438 14.802-8.713 23.904-8.713 11.315 0 21.448 5.059 28.261 13.040 82.182 97.888 204.547 159.645 341.335 159.645s259.153-61.757 340.733-158.909c7.33-8.824 17.462-13.968 28.795-13.968 0.105 0 0.209 0 0.313 0.001 0.004 0 0.028 0 0.052 0 20.513 0 37.142 16.629 37.142 37.142 0 9.11-3.28 17.454-8.723 23.916zM573.863 558.074c-113.933-0.024-215.859-51.41-283.887-132.264-5.915-6.991-9.231-15.382-9.231-24.546 0-20.534 16.646-37.179 37.179-37.179 11.369 0 21.546 5.103 28.366 13.143 54.578 65.7 136.23 107.19 227.573 107.19s172.995-41.491 227.138-106.653c7.244-8.483 17.358-13.521 28.648-13.521 0.097 0 0.193 0 0.29 0.001 0.005 0 0.029 0 0.053 0 20.513 0 37.142 16.629 37.142 37.142 0 9.11-3.28 17.454-8.723 23.916-68.444 81.361-170.37 132.748-284.299 132.771zM573.863 410.489c-0.18 0.001-0.392 0.001-0.605 0.001-68.208 0-129.211-30.847-169.82-79.351-5.61-6.73-8.844-15.021-8.844-24.068 0-11.381 5.119-21.567 13.18-28.38 6.324-5.409 14.529-8.673 23.496-8.673 0.407 0 0.812 0.007 1.215 0.020 11.362 0.013 21.581 5.146 28.43 13.227 27.31 32.79 68.082 53.474 113.686 53.474s86.376-20.684 113.448-53.182c7.086-8.373 17.305-13.506 28.723-13.521 0.347-0.012 0.752-0.018 1.159-0.018 8.967 0 17.172 3.264 23.491 8.669 8.067 6.817 13.186 17.003 13.186 28.384 0 9.047-3.234 17.338-8.61 23.781-40.844 48.791-101.847 79.638-170.054 79.638-0.213 0-0.425 0-0.638-0.001z" />
<glyph unicode="&#xe91d;" glyph-name="chevron-thin-right" d="M678.4 460.8l-365.619 379.904c-13.722 13.824-13.722 36.198 0 50.125 13.722 13.824 35.891 13.824 49.613 0l400.896-404.89c13.722-13.875 13.722-36.301 0-50.125l-400.896-404.89c-13.722-13.875-35.891-13.824-49.613 0-13.722 13.773-13.722 36.198 0 50.125l365.619 379.75z" />
<glyph unicode="&#xe91e;" glyph-name="controller-play" d="M768 460.749c0-15.309-15.616-26.317-15.616-26.317l-438.323-271.514c-31.949-20.941-58.061-5.427-58.061 34.253v527.206c0 39.782 26.112 55.194 58.112 34.304l438.323-271.616c-0.051 0 15.565-11.008 15.565-26.317z" />
<glyph unicode="&#xe91f;" glyph-name="medal" d="M608 928h-160v-459.955c25.294 7.772 52.158 11.955 80 11.955s54.706-4.183 80-11.955v459.955zM640 928h128v-416l-39.914-119.743c-24.627 26.729-54.542 48.512-88.086 63.688v472.056zM416 928h-128v-416l39.914-119.743c24.627 26.729 54.542 48.512 88.086 63.688v472.056zM528-32c132.548 0 240 107.452 240 240s-107.452 240-240 240c-132.548 0-240-107.452-240-240s107.452-240 240-240v0z" />
<glyph unicode="&#xe920;" glyph-name="moreArrow" horiz-adv-x="985" d="M940.435 479.171l-436.394 435.731c-7.021 6.023-16.217 9.689-26.269 9.689-22.343 0-40.456-18.113-40.456-40.456 0-10.052 3.666-19.248 9.734-26.323l411.146-410.474-411.192-409.202c-8.706-7.465-14.187-18.476-14.187-30.767 0-22.343 18.113-40.456 40.456-40.456 12.291 0 23.302 5.481 30.722 14.132l436.439 435.785c7.055 7.176 11.41 17.024 11.41 27.891 0 1.155-0.049 2.298-0.146 3.428 0.096 0.835 0.146 1.979 0.146 3.133 0 10.866-4.355 20.715-11.416 27.896zM468.891 448c0.086 0.983 0.135 2.126 0.135 3.28 0 10.866-4.355 20.715-11.416 27.896l-356.14 355.476c-7.021 6.023-16.217 9.689-26.269 9.689-22.343 0-40.456-18.113-40.456-40.456 0-10.052 3.666-19.248 9.734-26.323l331.561-331.552-331.606-331.606c-8.706-7.465-14.187-18.476-14.187-30.767 0-22.343 18.113-40.456 40.456-40.456 12.291 0 23.302 5.481 30.722 14.132l356.191 359.516c7.055 7.176 11.41 17.024 11.41 27.891 0 1.155-0.049 2.298-0.146 3.428z" />
<glyph unicode="&#xe921;" horiz-adv-x="1250" d="M901.26 763.581c-58.506 117.323-177.648 196.5-315.283 196.5-185.141 0-336.82-143.266-350.223-324.983-136.437-39.997-235.754-159.16-235.754-300.213 0-166.436 138.328-302.038 312.515-311.834l547.008-0.937c205.021 0 390.708 166.181 390.708 371.117 0 0.040 0 0.088 0 0.136 0 197.12-153.789 358.321-347.93 370.164z" />
<glyph unicode="&#xe922;" horiz-adv-x="1250" d="M803.050 372.277l-160.303 159.963c-4.682 4.081-10.845 6.57-17.589 6.57s-12.907-2.488-17.621-6.597l-160.357-159.935c-4.41-4.238-7.15-10.187-7.15-16.775 0-12.842 10.411-23.253 23.253-23.253 6.588 0 12.536 2.74 16.767 7.142l121.811 121.47v-501.694c0-12.842 10.411-23.253 23.253-23.253s23.253 10.411 23.253 23.253v501.694l121.803-121.803c4.22-4.178 10.028-6.76 16.439-6.76 12.907 0 23.369 10.463 23.369 23.369 0 6.496-2.65 12.372-6.928 16.608z" />
<glyph unicode="&#xe923;" glyph-name="twitterMedium" d="M775.662 543.338c0.636-209.39-162.675-394.77-394.664-394.77-76.694 0-150.069 21.892-213.522 62.146l-9.463-14.901-1.342-17.655 12.5-0.883c10.593-0.706 15.537-1.13 21.186-1.624 72.739 0.918 139.476 24.223 193.854 65.677l39.548 30.014-49.434 1.695c-55.437 1.942-103.106 38.135-118.643 88.629l-16.949-5.155-1.766-17.655c7.768-1.059 16.949-1.766 26.483-2.825 16.949 0.706 30.72 2.472 44.138 5.297l82.273 17.302-81.92 17.302c-59.321 12.359-102.753 64.618-102.753 125.352 0 1.766 0 0.353-0.353-1.059l-17.302 3.531-8.828-15.537c22.246-12.712 47.669-20.127 73.092-20.48l60.028-1.412-50.529 34.639c-34.534 23.375-56.143 63.206-57.132 107.591 1.247 23.537 7.957 45.26 18.874 64.259l-29.502-3.172c74.632-91.946 185.168-152.237 309.941-159.374l21.977-1.217-2.119 20.833v0.706c-1.766 15.183-2.119 22.246-2.119 30.72 0.171 70.407 57.286 127.417 127.717 127.417 36.976 0 70.282-15.713 93.605-40.827l7.136-7.495 9.887 2.119c35.663 7.768 68.502 20.833 96.397 38.488l-26.483 19.774c-3.531-12.712-1.412-31.426 4.237-48.022 8.121-24.011 20.48-39.901 41.313-30.014l-7.415 15.89-14.83 9.534c-18.361-28.248-41.313-52.259-67.796-70.621l-8.157-5.967 0.565-9.887c0.459-7.062 0.494-12.359 0-18.361v-1.412zM810.902 541.996c0.636 7.768 0.6 14.724 0 23.305l-17.585-1.201 10.028-14.477c30.978 21.658 56.838 48.271 77.009 78.957l34.925 53.351-56.497-26.659c6.003 2.825 10.593 0.706 12.006-1.059-2.021 2.951-3.601 6.392-4.542 10.087-3.579 10.711-4.639 22.822-3.579 27.271l12.712 44.279-38.841-24.541c-24.364-15.466-53.319-26.977-85.098-34.004l16.949-5.297c-29.627 32.257-72.002 52.401-119.082 52.401-0.094 0-0.187 0-0.281 0-89.875-0.121-162.706-72.988-162.766-162.881 0-10.246 0.706-18.014 2.825-34.751l0.353-0.706 17.655 2.119 1.059 17.655c-111.934 6.356-215.393 60.028-285.308 146.538l-16.949 19.774-12.712-22.599c-13.771-24.364-21.892-52.259-22.952-80.508 1.412-56.85 28.601-107.343 72.739-137.004l10.593 32.486c-19.421 0.706-39.194 6.003-56.497 15.89l-20.833 12.006-4.943-23.658c-0.706-2.825-0.706-5.65 0-8.474-0.353-74.858 54.731-141.594 130.295-157.484l3.531 17.302-3.531 17.302c-11.652-2.472-23.658-4.237-36.37-4.943-6.356 0.706-15.183 1.766-22.599 2.472l-26.836 3.178 8.121-25.777c20.127-64.971 80.861-110.874 151.128-113.346l-9.887 31.426c-47.127-35.805-106.548-57.685-171.040-58.613-4.453 0.351-9.396 0.704-19.989 1.763l-6.003 0.353-6.356 0.353-72.422 4.202 59.816-37.782c65.699-42.455 145.98-67.69 232.154-67.69 0.066 0 0.132 0 0.198 0 252.671 0 430.776 202.328 430.070 430.080l-0.071-1.412z" />
<glyph unicode="&#xe924;" glyph-name="facebookMedium" d="M578.737 126.323v205.082h65.183c0.005 0 0.011 0 0.017 0 9.854 0 17.994 7.34 19.252 16.85l12.722 98.862c0.098 0.732 0.153 1.578 0.153 2.436 0 10.745-8.711 19.456-19.456 19.456-0.004 0-0.008 0-0.013 0h-77.859v43.608c0 23.658 4.237 28.707 29.237 28.707h52.047c10.726 0 19.421 8.695 19.421 19.421v88.417c-0.002 9.815-7.285 17.928-16.742 19.233-15.497 2.13-48.124 4.107-78.49 4.107-88.276 0-145.832-57.203-145.832-149.998v-53.425h-65.501c-10.718-0.020-19.401-8.703-19.421-19.419v-98.765c0-10.734 8.757-19.421 19.421-19.421h65.501v-203.388c-147.315 33.898-254.764 165.959-254.764 321.324 0 182.554 147.244 330.505 328.739 330.505s328.739-147.95 328.739-330.505c0-158.19-111.404-292.017-262.356-323.090zM512.353 818.759c-203.034 0-367.581-165.394-367.581-369.346 0-182.272 132.414-336.26 309.954-364.403 0.923-0.156 1.987-0.245 3.072-0.245 10.725 0 19.419 8.693 19.421 19.418v246.643c-0.020 10.718-8.703 19.401-19.419 19.421h-65.503v59.922h65.501c10.726 0 19.421 8.695 19.421 19.421v72.845c0 71.327 40.113 111.157 106.99 111.157 20.021 0 40.819-0.953 56.391-2.119v-51.306h-32.627c-48.128 0-68.149-23.834-68.149-67.513v-62.852c0-10.593 8.722-19.421 19.421-19.421h75.282l-7.698-59.674h-67.513c-10.77 0-19.421-8.474-19.421-19.421v-247.879c0-11.652 10.346-20.833 21.998-19.068 181.319 24.717 318.040 180.436 318.040 365.815 0 203.352-164.546 368.605-367.581 368.605z" />
<glyph unicode="&#xe925;" glyph-name="trash-can" d="M672 768h128v-32h-544v32h128v32c0 35.593 28.616 64 63.917 64h160.167c35.249 0 63.917-28.654 63.917-64v-32zM256 704h544v-607.956c0-53.066-42.982-96.044-96.004-96.044h-351.992c-53.317 0-96.004 43.001-96.004 96.044v607.956zM288 672v-576.295c0-35.184 28.589-63.705 63.74-63.705h352.519c35.203 0 63.74 28.743 63.74 63.705v576.295h-480zM384 608v-512h32v512h-32zM512 608v-512h32v512h-32zM640 608v-512h32v512h-32zM448.094 832c-17.725 0-32.094-14.204-32.094-32v-32h224v32c0 17.673-14.012 32-32.094 32h-159.813z" />
<glyph unicode="&#xe926;" glyph-name="share-outline" horiz-adv-x="1144" d="M923.196 521.409l-265.974 292.571c-4.833 4.94-11.567 8.003-19.017 8.003s-14.184-3.063-19.012-7.998l-0.005-0.005c-4.598-4.774-7.431-11.277-7.431-18.441 0-1.282 0.091-2.543 0.266-3.777l-0.017 0.142v-156.925c-0.176 0-0.384 0-0.593 0-220.34 0-398.961-178.621-398.961-398.961 0-57.725 12.259-112.587 34.317-162.123l-1.009 2.538c31.385 166.234 190.171 292.571 365.714 292.571 0-9.043 0-156.659 0-156.659-0.159-1.092-0.25-2.353-0.25-3.635 0-7.164 2.833-13.667 7.439-18.449l-0.008 0.008c4.83-5.060 11.619-8.216 19.145-8.245h0.006c8.151 0.141 15.39 3.926 20.176 9.793l0.038 0.048 265.176 289.38c4.757 5.401 7.66 12.535 7.66 20.347s-2.903 14.946-7.69 20.381l0.029-0.034zM664.935 277.777v143.094h-79.792c-110.911 0-261.718-86.442-319.169-159.584 0 100.006 131.391 313.849 319.169 319.169 13.831 0 79.792 0 79.792 0v144.158l203.736-223.418z" />
<glyph unicode="&#xe927;" glyph-name="menu" d="M155.418 704.004h713.165q16.405 0 28.002-11.608t11.608-28.002-11.608-28.002-28.002-11.608h-713.165q-16.405 0-28.002 11.608t-11.608 28.002 11.608 28.002 28.002 11.608zM155.418 228.565h713.165q16.405 0 28.002-11.608t11.608-28.002-11.608-28.002-28.002-11.608h-713.165q-16.405 0-28.002 11.608t-11.608 28.002 11.608 28.002 28.002 11.608zM155.418 466.278h713.165q16.405 0 28.002-11.608t11.608-28.002-11.608-28.002-28.002-11.608h-713.165q-16.405 0-28.002 11.608t-11.608 28.002 11.608 28.002 28.002 11.608z" />
<glyph unicode="&#xe928;" glyph-name="forum" horiz-adv-x="1229" d="M299.886 448c0-24.237-19.648-43.886-43.886-43.886s-43.886 19.648-43.886 43.886c0 24.237 19.648 43.886 43.886 43.886s43.886-19.648 43.886-43.886zM1075.2 60.343v197.486c87.771 73.143 138.971 190.171 131.657 307.2 0 212.114-197.486 387.657-438.857 387.657-73.143 0-138.971-21.943-197.486-51.2 29.257-7.314 58.514-21.943 87.771-29.257 36.571 14.629 73.143 21.943 109.714 21.943 212.114 0 373.029-146.286 373.029-321.829 0-102.4-51.2-204.8-138.971-270.629v-124.343l-117.029 80.457c-14.629-21.943-29.257-51.2-43.886-73.143 14.629 0 21.943 0 36.571 0l197.486-124.343zM724.114-42.057v190.171c87.771 73.143 138.971 190.171 131.657 307.2 0 212.114-197.486 387.657-438.857 387.657-197.486-7.314-402.286-182.857-402.286-394.971s160.914-394.971 409.6-394.971c36.571 0 73.143 0 117.029 7.314l182.857-102.4zM789.943 448c0-102.4-51.2-204.8-138.971-270.629v-117.029l-117.029 80.457c-36.571-7.314-80.457-7.314-117.029-7.314-204.8 0-336.457 146.286-336.457 321.829s168.229 321.829 336.457 321.829c219.429-7.314 380.343-153.6 373.029-329.143v0zM453.486 448c0-24.237-19.648-43.886-43.886-43.886s-43.886 19.648-43.886 43.886c0 24.237 19.648 43.886 43.886 43.886s43.886-19.648 43.886-43.886zM607.086 448c0-24.237-19.648-43.886-43.886-43.886s-43.886 19.648-43.886 43.886c0 24.237 19.648 43.886 43.886 43.886s43.886-19.648 43.886-43.886z" />
<glyph unicode="&#xe929;" glyph-name="fleet" horiz-adv-x="1256" d="M1089.362 429.844c0-20.055-16.257-36.312-36.312-36.312s-36.312 16.257-36.312 36.312c0 20.055 16.257 36.312 36.312 36.312s36.312-16.257 36.312-36.312zM21.787 669.504c0 29.050 7.262 50.837 21.787 72.624 14.525 14.525 36.312 29.050 58.099 29.050 7.262 0 14.525 0 21.787 0 14.525 36.312 36.312 65.362 65.362 87.149 130.723 130.723 384.908 101.674 515.631 0-29.050-7.262-65.362-14.525-94.411-21.787-116.199 50.837-283.234 58.099-377.645-29.050-21.787-21.787-43.574-58.099-50.837-87.149 0 0 0-7.262 0-7.262-14.525 0-21.787 7.262-36.312 7.262-29.050 7.262-58.099-7.262-65.362-36.312 0-14.525 7.262-29.050 14.525-36.312s21.787-14.525 36.312-21.787h14.525c0 0 0 0 0 0-14.525-43.574-21.787-79.887-29.050-123.461 0 0-7.262-7.262-7.262-7.262-29.050 0-50.837-14.525-72.624-29.050 0 43.574 7.262 94.411 21.787 137.986v7.262c-21.787 14.525-29.050 36.312-36.312 58.099zM1227.348 502.468c-7.262-7.262-14.525-14.525-29.050-21.787 7.262-14.525 7.262-36.312 7.262-43.574 14.525-58.099 14.525-108.936 7.262-167.035-7.262-50.837-36.312-87.149-79.887-108.936-14.525-7.262-29.050-7.262-43.574-7.262-21.787 0-36.312 7.262-50.837 14.525-14.525 14.525-29.050 29.050-43.574 43.574-29.050-7.262-58.099-7.262-79.887-7.262 0 14.525-7.262 36.312-7.262 43.574 0 0 0 7.262-7.262 14.525 0 0 7.262 7.262 7.262 7.262 36.312 0 65.362 7.262 101.674 14.525 0 0 7.262 0 7.262 0 21.787 0 36.312-14.525 36.312-36.312 0-14.525 7.262-21.787 21.787-29.050 7.262-7.262 21.787-7.262 29.050 0 21.787 14.525 36.312 36.312 36.312 58.099 7.262 50.837 0 94.411-7.262 145.248 0 7.262-14.525 50.837-14.525 72.624 7.262 0 14.525 0 21.787 7.262 14.525 7.262 21.787 14.525 36.312 29.050 7.262 14.525 7.262 29.050 7.262 43.574-7.262 7.262-14.525 14.525-21.787 21.787-14.525 7.262-36.312 7.262-50.837 0-7.262 0-7.262-7.262-14.525-7.262 0 0-7.262 7.262-7.262 7.262-14.525 36.312-36.312 65.362-65.362 87.149-108.936 87.149-326.809 116.199-435.745 14.525-14.525-14.525-21.787-29.050-29.050-36.312-29.050 0-50.837 7.262-79.887 7.262 14.525 29.050 36.312 50.837 58.099 72.624 137.986 130.723 399.433 101.674 530.156-7.262 29.050-21.787 50.837-50.837 72.624-79.887 21.787 0 36.312 0 58.099-7.262 29.050-14.525 43.574-43.574 50.837-72.624 0-21.787-7.262-50.837-21.787-72.624zM275.972 241.021c0-20.055-16.257-36.312-36.312-36.312s-36.312 16.257-36.312 36.312c0 20.055 16.257 36.312 36.312 36.312s36.312-16.257 36.312-36.312zM748.028 241.021c0-20.055-16.257-36.312-36.312-36.312s-36.312 16.257-36.312 36.312c0 20.055 16.257 36.312 36.312 36.312s36.312-16.257 36.312-36.312zM893.277 306.383c-7.262-7.262-14.525-14.525-29.050-21.787 0-14.525 7.262-29.050 7.262-36.312 14.525-58.099 14.525-108.936 7.262-167.035-7.262-50.837-36.312-87.149-79.887-108.936-14.525-7.262-29.050-7.262-43.574-7.262-21.787 0-36.312 7.262-50.837 14.525-14.525 14.525-29.050 29.050-43.574 50.837-123.461-14.525-254.184-14.525-377.645 0-7.262-21.787-21.787-36.312-36.312-50.837-29.050-14.525-65.362-21.787-94.411-7.262-36.312 14.525-65.362 50.837-79.887 94.411-14.525 72.624-14.525 152.511 7.262 232.397h-7.262c-21.787 14.525-29.050 36.312-36.312 58.099 0 29.050 7.262 50.837 21.787 72.624 14.525 14.525 36.312 29.050 58.099 29.050 7.262 0 14.525 0 21.787 0 14.525 36.312 36.312 65.362 65.362 94.411 137.986 130.723 399.433 101.674 530.156-7.262 29.050-21.787 50.837-50.837 72.624-79.887 21.787 0 36.312 0 58.099-7.262 29.050-14.525 43.574-43.574 50.837-72.624 0-29.050-7.262-58.099-21.787-79.887zM842.44 335.433c7.262 14.525 7.262 29.050 7.262 43.574-7.262 7.262-14.525 14.525-21.787 21.787-14.525 7.262-36.312 7.262-50.837 0-7.262 0-7.262-7.262-14.525-7.262 0 0-7.262 7.262-7.262 7.262-14.525 29.050-36.312 58.099-65.362 79.887-116.199 94.411-334.071 116.199-443.007 14.525-21.787-21.787-43.574-58.099-50.837-87.149 0 0 0-7.262 0-7.262-14.525 0-21.787 7.262-29.050 7.262-29.050 7.262-65.362-7.262-72.624-36.312 0-14.525 0-29.050 14.525-36.312 14.525-14.525 21.787-21.787 36.312-21.787h14.525c0 0 0 0 0 0-29.050-72.624-36.312-152.511-21.787-232.397 7.262-21.787 21.787-36.312 36.312-43.574 7.262-7.262 21.787-7.262 29.050 0s14.525 14.525 14.525 29.050c0 0 0 0 0 7.262 0 21.787 21.787 36.312 43.574 29.050 0 0 268.709-36.312 421.22 0 0 0 7.262 0 7.262 0 21.787 0 36.312-14.525 36.312-36.312 0-14.525 7.262-21.787 21.787-29.050 7.262-7.262 21.787-7.262 29.050 0 21.787 14.525 36.312 36.312 36.312 58.099 7.262 50.837 0 94.411-7.262 145.248 0 7.262-14.525 50.837-14.525 72.624 7.262 0 14.525 0 21.787 7.262 7.262 0 21.787 7.262 29.050 14.525v0z" />
<glyph unicode="&#xe92a;" glyph-name="dride" horiz-adv-x="1201" d="M614.4-26.764c-55.855 0-111.709 0-158.255 0-37.236 0-83.782 9.309-121.018 9.309v0 0c-27.927 0-55.855 9.309-83.782 9.309-9.309 0-18.618 0-27.927 0-83.782 18.618-139.636 65.164-167.564 130.327-18.618 55.855-27.927 111.709-27.927 158.255-9.309 121.018-9.309 242.036 0 363.055 0 37.236 0 74.473 9.309 111.709 0 65.164 37.236 121.018 93.091 148.945h9.309c37.236 9.309 65.164 18.618 102.4 18.618 93.091 9.309 195.491 9.309 288.582 9.309h130.327c102.4 0 214.109 0 316.509-9.309 37.236 0 65.164-9.309 102.4-18.618h9.309c55.855-27.927 93.091-93.091 93.091-158.255 0-37.236 9.309-74.473 9.309-102.4 9.309-121.018 0-242.036 0-353.745 0-55.855-9.309-102.4-27.927-158.255-27.927-65.164-83.782-111.709-148.945-130.327-9.309 0-27.927 0-37.236-9.309-27.927 0-55.855-9.309-83.782-9.309-37.236 0-83.782-9.309-130.327-9.309-55.855 0-102.4 0-148.945 0zM335.127 57.018v0c46.545 0 83.782-9.309 130.327-9.309 93.091-9.309 195.491-9.309 288.582 0 46.545 0 83.782 9.309 121.018 9.309 27.927 0 55.855 9.309 83.782 9.309 9.309 0 18.618 0 27.927 0 46.545 9.309 83.782 46.545 93.091 83.782 18.618 37.236 27.927 83.782 27.927 130.327 9.309 121.018 9.309 232.727 0 353.745 0 37.236 0 74.473-9.309 111.709 0 37.236-18.618 74.473-55.855 93.091-27.927 9.309-46.545 9.309-74.473 18.618-102.4 0-214.109 0-307.2 0h-139.636c-93.091 0-195.491 0-288.582-9.309-27.927 0-46.545 0-74.473-9.309-27.927-18.618-55.855-55.855-55.855-93.091s-9.309-74.473-9.309-111.709c0-111.709 0-232.727 9.309-344.436 0-46.545 9.309-93.091 27.927-130.327s55.855-74.473 102.4-83.782c9.309 0 18.618 0 18.618 0 27.927-18.618 55.855-18.618 83.782-18.618v0zM605.091 401.455c-37.236 0-55.855 18.618-55.855 55.855 0 27.927 27.927 55.855 55.855 55.855s55.855-27.927 55.855-55.855c0-37.236-27.927-55.855-55.855-55.855zM353.745 783.127v0c186.182 9.309 372.364 9.309 558.545 0 18.618 0 37.236 0 55.855-9.309 18.618 0 37.236-9.309 46.545-18.618 18.618-18.618 27.927-46.545 27.927-74.473s9.309-65.164-9.309-83.782c-18.618-18.618-65.164-18.618-93.091-18.618h-139.636c-83.782 0-176.873 0-260.655 0h-279.273c-37.236 0-74.473-9.309-93.091 18.618s-18.618 55.855-18.618 83.782c0 27.927 9.309 55.855 27.927 74.473 18.618 9.309 37.236 18.618 55.855 18.618s37.236 0 55.855 9.309h65.164z" />
<glyph unicode="&#xe92b;" glyph-name="zero" horiz-adv-x="890" d="M454.122-37.287c-8.904 0-8.904 0 0 0-222.609 0-391.791 160.278-400.696 373.983v489.739c0 26.713 17.809 44.522 35.617 44.522h739.061l8.904-26.713v-498.643c-8.904-222.609-178.087-382.887-382.887-382.887zM436.313 25.043c8.904 0 8.904 0 0 0 186.991 0 329.461 142.47 338.365 311.652v463.026h-658.922v-463.026c8.904-169.183 151.374-311.652 320.557-311.652 0 0 0 0 0 0zM445.217 131.896c-124.661 0-222.609 97.948-222.609 222.609s97.948 222.609 222.609 222.609c124.661 0 222.609-97.948 222.609-222.609s-97.948-222.609-222.609-222.609zM445.217 505.878c-89.043 0-151.374-71.235-151.374-151.374 0-89.043 71.235-151.374 151.374-151.374s151.374 71.235 151.374 151.374c0 80.139-62.33 151.374-151.374 151.374zM498.643 354.504c0-29.506-23.92-53.426-53.426-53.426s-53.426 23.92-53.426 53.426c0 29.506 23.92 53.426 53.426 53.426s53.426-23.92 53.426-53.426zM106.852 897.67h676.73c35.617 0 53.426-26.713 53.426-53.426v-17.809c0-35.617-26.713-53.426-53.426-53.426h-676.73c-35.617 0-62.33 26.713-62.33 53.426v17.809c8.904 26.713 35.617 53.426 62.33 53.426z" />
<glyph unicode="&#xe92c;" glyph-name="envelope" d="M1024 554.286v-453.714c0-50.286-41.143-91.429-91.429-91.429h-841.143c-50.286 0-91.429 41.143-91.429 91.429v453.714c17.143-18.857 36.571-35.429 57.714-49.714 94.857-64.571 190.857-129.143 284-197.143 48-35.429 107.429-78.857 169.714-78.857h1.143c62.286 0 121.714 43.429 169.714 78.857 93.143 67.429 189.143 132.571 284.571 197.143 20.571 14.286 40 30.857 57.143 49.714zM1024 722.286c0-64-47.429-121.714-97.714-156.571-89.143-61.714-178.857-123.429-267.429-185.714-37.143-25.714-100-78.286-146.286-78.286h-1.143c-46.286 0-109.143 52.571-146.286 78.286-88.571 62.286-178.286 124-266.857 185.714-40.571 27.429-98.286 92-98.286 144 0 56 30.286 104 91.429 104h841.143c49.714 0 91.429-41.143 91.429-91.429z" />
<glyph unicode="&#xe92d;" glyph-name="arrow1" horiz-adv-x="719" d="M525.359 848.403l-193.167 111.597v-149.19c-192.053-49.036-331.847-220.345-332.191-424.362v-449.266h182.291v449.227c0.158 102.656 60.868 191.095 148.318 231.523l1.581 0.656v-104.504l386.335 223.195z" />
<glyph unicode="&#xe92e;" glyph-name="roadNum" horiz-adv-x="883" d="M441.541-48.343c-43.841 34.446-93.945 62.63-150.312 78.287-97.076 37.578-200.416 78.287-256.783 209.81-50.104 125.26-6.263 234.862 28.183 322.544 15.657 34.446 28.183 72.024 34.446 109.602 3.131 53.235-21.92 103.339-65.761 131.523 37.578 53.235 84.55 100.208 137.786 140.917 40.709-31.315 87.682-46.972 137.786-46.972s97.076 15.657 134.654 46.972c37.578-31.315 87.682-46.972 134.654-46.972s97.076 15.657 134.654 46.972c53.235-40.709 100.208-87.682 137.786-140.917-43.841-28.183-65.761-81.419-62.63-131.523 6.263-37.578 15.657-75.156 34.446-109.602 34.446-87.682 81.419-194.153 28.183-319.413-56.367-131.523-156.575-172.232-256.783-209.81-53.235-18.789-106.471-43.841-150.312-81.419zM441.541-48.343l6.263 9.394c-46.972 37.578-97.076 62.63-153.443 81.419l-3.131-12.526 3.131 9.394c-50.104 18.789-97.076 37.578-140.917 68.893s-81.419 72.024-109.602 134.654v0c-15.657 37.578-21.92 75.156-21.92 112.734 0 72.024 28.183 137.786 50.104 197.284l-9.394 9.394 9.394-6.263c18.789 34.446 28.183 72.024 34.446 112.734v0 0c0 3.131 0 9.394 0 12.526 0 53.235-25.052 100.208-68.893 131.523l-6.263-9.394 9.394-6.263c40.709 53.235 84.55 97.076 137.786 137.786l-6.263 9.394-6.263-9.394c40.709-31.315 90.813-50.104 140.917-50.104v0 0 0c50.104 0 100.208 18.789 140.917 50.104l-6.263 9.394-6.263-9.394c40.709-31.315 90.813-50.104 140.917-50.104v0 0 0c50.104 0 100.208 15.657 140.917 50.104l-6.263 9.394-6.263-9.394c53.235-37.578 97.076-84.55 137.786-137.786l6.263 6.263-6.263 9.394c-43.841-28.183-68.893-78.287-68.893-128.391 0-3.131 0-9.394 0-12.526v0 0c6.263-37.578 18.789-78.287 34.446-112.734l9.394 6.263-9.394-3.131c25.052-59.498 50.104-125.26 50.104-197.284 0-34.446-6.263-72.024-21.92-112.734v0c-28.183-62.63-65.761-106.471-106.471-134.654-43.841-31.315-90.813-50.104-140.917-68.893l3.131-9.394-3.131 12.526c-56.367-18.789-109.602-43.841-153.443-81.419l6.263-18.789 6.263-9.394c43.841 34.446 93.945 59.498 147.18 78.287v0 0c50.104 18.789 100.208 40.709 147.18 72.024s87.682 78.287 115.865 144.049v0c18.789 40.709 25.052 81.419 25.052 122.128 0 78.287-28.183 147.18-53.235 206.679v0 0c-15.657 34.446-28.183 68.893-31.315 106.471l-12.526-3.131h12.526c0 3.131 0 6.263 0 12.526 0 43.841 21.92 84.55 59.498 109.602l9.394 6.263-6.263 9.394c-40.709 53.235-87.682 103.339-140.917 144.049l-6.263 6.263-6.263-6.263c-34.446-28.183-81.419-43.841-125.26-43.841v0 0 0 0c-46.972 0-90.813 15.657-128.391 43.841l-12.526 9.394-6.263-6.263c-37.578-28.183-81.419-43.841-128.391-43.841v0 0 0 0c-46.972 0-90.813 15.657-125.26 43.841l-9.394 3.131-6.263-3.131c-56.367-40.709-103.339-87.682-144.049-144.049l-6.263-9.394 9.394-6.263c37.578-25.052 59.498-65.761 59.498-112.734 0-3.131 0-6.263 0-9.394v0c-6.263-37.578-15.657-72.024-34.446-106.471v0 0c-21.92-56.367-50.104-125.26-50.104-203.547 0-37.578 6.263-78.287 25.052-122.128v0 0c28.183-68.893 68.893-112.734 115.865-144.049s97.076-53.235 147.18-72.024v0 0c53.235-15.657 103.339-43.841 144.049-78.287l6.263-6.263 6.263 6.263-3.131 6.263zM504.171 665.639c3.131 0 6.263 0 9.394-3.131s3.131-6.263 3.131-9.394c0-3.131 0-6.263-3.131-9.394s-6.263-3.131-9.394-3.131h-159.706v-103.339h72.024c34.446 0 62.63-12.526 84.55-34.446 25.052-25.052 34.446-53.235 34.446-84.55 0-34.446-12.526-62.63-34.446-84.55s-53.235-34.446-84.55-34.446c-34.446 0-62.63 12.526-84.55 34.446-21.92 25.052-34.446 53.235-34.446 84.55 0 3.131 0 6.263 3.131 9.394s6.263 0 9.394 0c3.131 0 6.263 0 9.394-3.131s3.131-6.263 3.131-9.394c0-25.052 9.394-46.972 28.183-65.761s40.709-28.183 65.761-28.183c25.052 0 46.972 9.394 65.761 28.183s28.183 40.709 28.183 65.761c0 25.052-9.394 46.972-28.183 65.761s-40.709 28.183-65.761 28.183h-87.682c-3.131 0-6.263 0-9.394 3.131s-3.131 6.263-3.131 9.394v128.391c0 3.131 0 6.263 3.131 9.394s6.263 3.131 9.394 3.131h175.364z" />
<glyph unicode="&#xe92f;" glyph-name="f_cloud" d="M714.4 647.68c-42.911 85.94-130.215 143.928-231.064 143.928-135.68 0-246.845-104.962-256.726-238.116l-0.051-0.852c-98.737-26.438-170.627-114.131-172.796-218.957l-0.004-0.243c0-121.92 101.44-221.44 229.12-228.48h400.96c150.24 0 286.4 121.76 286.4 272-0.437 144.196-113.012 261.96-255.072 270.682l-0.768 0.038zM683.84 161.6h-400.96s-172.96 17.76-171.84 171.84c0 86.88 76.96 166.56 171.84 171.84 0 118.56 75.84 229.12 200.48 229.12 1.613 0.050 3.51 0.079 5.414 0.079 87.997 0 161.776-60.872 181.526-142.804l0.259-1.274c141.92 6.24 237.92-106.080 242.4-200 5.92-126.080-126.080-228.8-229.12-228.8z" />
<glyph unicode="&#xe930;" glyph-name="f_upload" d="M714.4 647.68c-42.911 85.94-130.215 143.928-231.064 143.928-135.68 0-246.845-104.962-256.726-238.116l-0.051-0.852c-98.737-26.438-170.627-114.131-172.796-218.957l-0.004-0.243c0-121.92 101.44-221.44 229.12-228.48h400.96c150.24 0 286.4 121.76 286.4 272-0.437 144.196-113.012 261.96-255.072 270.682l-0.768 0.038zM683.84 161.6h-400.96s-172.96 17.76-171.84 171.84c0 86.88 76.96 166.56 171.84 171.84 0 118.56 75.84 229.12 200.48 229.12 1.613 0.050 3.51 0.079 5.414 0.079 87.997 0 161.776-60.872 181.526-142.804l0.259-1.274c141.92 6.24 237.92-106.080 242.4-200 5.92-126.080-126.080-228.8-229.12-228.8zM637.6 340.48l-113.12 113.12c-3.298 2.884-7.644 4.643-12.4 4.643s-9.102-1.759-12.422-4.662l0.022 0.019-113.12-113.12c-2.969-2.969-4.805-7.070-4.805-11.6 0-9.060 7.345-16.405 16.405-16.405 4.53 0 8.631 1.836 11.6 4.805v0l86.24 85.92v-266.88c0-8.837 7.163-16 16-16s16 7.163 16 16v0 266.88l85.92-85.92c2.969-2.969 7.070-4.805 11.6-4.805 9.060 0 16.405 7.345 16.405 16.405 0 4.53-1.836 8.631-4.805 11.6v0z" />
<glyph unicode="&#xe931;" glyph-name="f_settings" d="M824.48 369.12l-51.84 30.88c3.063 14.647 4.817 31.479 4.817 48.72s-1.754 34.073-5.093 50.326l0.276-1.606 51.84 30.24c13.261 7.941 22 22.232 22 38.564 0 8.246-2.228 15.971-6.114 22.607l0.114-0.211-44.32 77.28c-7.738 13.292-21.919 22.085-38.154 22.085-8.233 0-15.938-2.261-22.527-6.196l0.201 0.111-52.32-30.4c-23.534 20.584-51.145 37.231-81.369 48.521l-1.831 0.599v37.44c0 0.048 0 0.104 0 0.16 0 24.509-19.823 44.389-44.312 44.48h-88.169c-24.497-0.091-44.32-19.97-44.32-44.48 0-0.056 0-0.113 0-0.169v0.009-37.92c-32.056-11.885-59.668-28.533-83.509-49.384l0.309 0.264-52.16 30.4c-6.388 3.824-14.093 6.085-22.326 6.085-16.235 0-30.416-8.793-38.041-21.876l-0.113-0.209-44.32-77.28c-3.772-6.425-6-14.15-6-22.396 0-16.332 8.739-30.623 21.796-38.451l0.203-0.113 52.16-31.2c-3.063-14.647-4.817-31.479-4.817-48.72s1.754-34.073 5.093-50.326l-0.276 1.606-51.84-30.24c-13.261-7.941-22-22.232-22-38.564 0-8.246 2.228-15.971 6.114-22.607l-0.114 0.211 44.32-77.28c7.738-13.292 21.919-22.085 38.154-22.085 8.233 0 15.938 2.261 22.527 6.196l-0.201-0.111 52.32 30.4c23.53-20.594 51.143-37.242 81.372-48.522l1.828-0.598v-37.92c0-0.048 0-0.104 0-0.16 0-24.509 19.823-44.389 44.312-44.48h88.489c24.497 0.091 44.32 19.97 44.32 44.48 0 0.056 0 0.113 0 0.169v-0.009 38.4c32.058 11.878 59.671 28.526 83.507 49.384l-0.307-0.264 51.84-30.4c6.388-3.824 14.093-6.085 22.326-6.085 16.235 0 30.416 8.793 38.041 21.876l0.113 0.209 44.32 77.28c3.808 6.448 6.057 14.209 6.057 22.495 0 16.486-8.905 30.892-22.166 38.67l-0.211 0.114zM791.36 311.2l-22.24-39.2c-3.876-6.698-11.008-11.133-19.175-11.133-4.075 0-7.892 1.104-11.169 3.029l0.104-0.056-61.44 35.84c-30.951-35.241-72.596-60.417-119.837-70.463l-1.443-0.257v-49.12c0 0 0 0 0-0.001 0-12.227-9.866-22.149-22.071-22.239h-44.169c-12.214 0.091-22.080 10.013-22.080 22.239 0 0 0 0 0 0.001v0 49.6c-48.684 10.303-90.329 35.479-121.066 70.472l-0.214 0.248-61.44-35.84c-3.222-1.945-7.114-3.095-11.274-3.095-8.022 0-15.044 4.278-18.911 10.676l-0.055 0.099-22.080 38.72c-1.84 3.181-2.925 6.998-2.925 11.068 0 8.201 4.407 15.372 10.982 19.275l0.103 0.057 61.76 36c-7.446 20.986-11.749 45.191-11.749 70.4s4.303 49.414 12.214 71.919l-0.465-1.519-62.72 36.48c-6.717 3.951-11.154 11.144-11.154 19.372 0 4.119 1.112 7.978 3.051 11.294l-0.057-0.106 23.040 39.040c3.876 6.698 11.008 11.133 19.175 11.133 4.075 0 7.892-1.104 11.169-3.029l-0.104 0.056 61.44-35.84c30.951 35.241 72.596 60.417 119.837 70.463l1.443 0.257v48.64c0 0 0 0 0 0.001 0 12.227 9.866 22.149 22.071 22.239h44.329c12.214-0.091 22.080-10.013 22.080-22.239 0 0 0 0 0-0.001v0-49.12c48.684-10.303 90.329-35.479 121.066-70.472l0.214-0.248 61.44 35.84c3.173 1.869 6.99 2.973 11.065 2.973 8.167 0 15.299-4.434 19.118-11.027l0.057-0.106 22.080-38.72c1.969-3.267 3.134-7.21 3.134-11.426 0-7.957-4.149-14.946-10.402-18.919l-0.091-0.054-62.56-36c7.44-20.987 11.739-45.191 11.739-70.4s-4.299-49.413-12.205-71.92l0.465 1.52 62.56-36c6.344-4.028 10.494-11.016 10.494-18.974 0-4.216-1.165-8.16-3.19-11.528l0.056 0.101zM512 560c-0.428 0.006-0.934 0.009-1.44 0.009-61.856 0-112-50.144-112-112s50.144-112 112-112c61.853 0 111.995 50.139 112 111.99v0.001c0.003 0.286 0.004 0.623 0.004 0.961 0 61.158-49.443 110.769-110.538 111.039h-0.026z" />
<glyph unicode="&#xe932;" glyph-name="f_share" d="M832 514.72l-242.080 264.64c-4.453 4.421-10.587 7.154-17.36 7.154s-12.907-2.733-17.361-7.155l0.001 0.001c-4.285-4.309-6.934-10.25-6.934-16.809 0-1.125 0.078-2.232 0.229-3.316l-0.014 0.125v-142.56c-200.298-0.036-362.657-162.418-362.657-362.72 0-52.248 11.047-101.916 30.933-146.795l-0.916 2.315c28.64 151.040 172.8 265.92 332.32 265.92 0-8.32 0-142.24 0-142.24-0.137-0.958-0.214-2.066-0.214-3.191 0-6.559 2.649-12.5 6.936-16.81l-0.001 0.001c4.348-4.596 10.473-7.471 17.271-7.52h0.009c0.355-0.019 0.772-0.030 1.19-0.030 7.53 0 14.244 3.491 18.613 8.943l0.036 0.047 240 263.2c4.282 4.892 6.895 11.341 6.895 18.4s-2.612 13.508-6.922 18.432l0.028-0.032zM596.96 293.44v129.92h-72.96c-100.8 0-237.76-78.56-289.92-145.6 0 90.88 119.2 285.28 289.92 290.56 12.64 0 72.96 0 72.96 0v130.88l185.12-203.2z" />
<glyph unicode="&#xe933;" glyph-name="f_angle" d="M910.482 385.195l-398.482 327.875-398.482-327.875-6.242 7.509 404.724 332.946 404.724-332.946-6.242-7.509zM684.52 577.414c-22.232-75.63-91.013-129.907-172.471-129.907s-150.239 54.277-172.15 128.638l-0.321 1.269 172.422 141.897zM414.574 204.483v-10.923h-59.587v10.923h25.356v75.093c-1.408-1.753-3.013-3.265-4.803-4.534l-0.073-0.049c-2.141-1.593-4.567-3.114-7.111-4.441l-0.301-0.143c-2.366-1.246-5.172-2.435-8.082-3.396l-0.402-0.115c-2.288-0.807-4.928-1.302-7.675-1.365l-0.030-0.001v11.8c3.252 0.092 6.292 0.911 8.993 2.298l-0.118-0.055c3.533 1.67 6.538 3.425 9.375 5.404l-0.208-0.137c2.754 1.899 5.138 3.756 7.411 5.739l-0.097-0.082c1.292 0.989 2.39 2.149 3.283 3.46l0.033 0.051h12.288v-89.332zM480.695 171.227v31.208h-58.514v10.63l62.318 80.75h8.29v-80.36h15.311v-10.923h-15.409v-31.208zM434.664 213.358h47.104v61.635zM611.669 244.955c0.003-0.236 0.005-0.514 0.005-0.793 0-7.356-1.215-14.427-3.456-21.025l0.136 0.46c-2.151-6.476-5.271-12.083-9.244-16.969l0.077 0.098c-3.812-4.541-8.49-8.221-13.796-10.813l-0.248-0.109c-5.139-2.488-11.177-3.942-17.554-3.942s-12.415 1.454-17.8 4.049l0.246-0.107c-5.408 2.766-9.955 6.471-13.593 10.944l-0.060 0.077c-4.113 4.771-7.424 10.374-9.636 16.503l-0.116 0.369c-2.109 6.367-3.326 13.696-3.326 21.309s1.217 14.942 3.466 21.803l-0.14-0.494c2.331 6.497 5.641 12.099 9.811 16.941l-0.058-0.069c3.791 4.589 8.432 8.327 13.702 11.005l0.243 0.112c5.128 2.547 11.167 4.038 17.554 4.038s12.427-1.49 17.789-4.143l-0.235 0.105c5.511-2.796 10.152-6.533 13.888-11.046l0.058-0.072c3.892-4.79 7.012-10.397 9.058-16.496l0.109-0.376c1.988-5.974 3.135-12.851 3.135-19.996 0-0.479-0.005-0.956-0.015-1.432l0.001 0.071zM599.576 244.955c0.003 0.227 0.005 0.495 0.005 0.763 0 5.845-0.857 11.49-2.452 16.815l0.107-0.414c-1.489 5.065-3.723 9.479-6.614 13.377l0.080-0.113c-2.6 3.52-5.853 6.399-9.6 8.504l-0.152 0.079c-3.695 1.971-8.081 3.128-12.738 3.128-0.219 0-0.437-0.003-0.655-0.008l0.032 0.001c-0.135 0.002-0.295 0.004-0.455 0.004-4.603 0-8.945-1.119-12.768-3.1l0.155 0.073c-3.901-2.18-7.155-5.060-9.694-8.5l-0.058-0.082c-2.811-3.784-5.045-8.198-6.458-12.965l-0.076-0.298c-1.507-5.158-2.374-11.084-2.374-17.213s0.867-12.054 2.485-17.662l-0.111 0.449c1.483-5.066 3.717-9.481 6.613-13.375l-0.079 0.112c2.585-3.503 5.842-6.356 9.6-8.408l0.153-0.076c3.72-1.907 8.115-3.025 12.772-3.025 0.104 0 0.208 0.001 0.312 0.002h-0.016c0.058 0 0.127-0.001 0.196-0.001 4.625 0 8.988 1.118 12.835 3.098l-0.158-0.074c3.91 2.129 7.167 4.981 9.696 8.405l0.056 0.080c2.817 3.783 5.051 8.198 6.459 12.967l0.075 0.296c1.711 5.112 2.739 11.003 2.828 17.12l0.001 0.044zM654.677 260.949c-0.094-0.001-0.205-0.002-0.316-0.002-3.202 0-6.245 0.683-8.991 1.911l0.14-0.056c-2.822 1.283-5.219 3.025-7.204 5.155l-0.012 0.013c-1.966 2.109-3.551 4.602-4.627 7.352l-0.054 0.158c-1.050 2.638-1.659 5.695-1.659 8.893 0 0.062 0 0.124 0.001 0.186v-0.009c0 0.025 0 0.054 0 0.083 0 3.273 0.645 6.395 1.815 9.247l-0.059-0.162c1.178 2.905 2.793 5.396 4.79 7.522l-0.012-0.013c1.971 2.198 4.333 4 6.985 5.304l0.135 0.060c2.669 1.21 5.787 1.915 9.070 1.915s6.401-0.705 9.211-1.972l-0.141 0.057c2.816-1.298 5.21-3.038 7.206-5.157l0.011-0.012c1.986-2.114 3.6-4.604 4.721-7.349l0.058-0.16c1.075-2.69 1.699-5.807 1.699-9.070s-0.624-6.38-1.758-9.239l0.059 0.17c-1.178-2.905-2.793-5.396-4.79-7.522l0.012 0.013c-1.998-2.144-4.395-3.885-7.077-5.112l-0.139-0.057c-2.651-1.301-5.762-2.086-9.050-2.145h-0.020zM638.098 284.453c-0.001-0.059-0.001-0.129-0.001-0.199 0-2.487 0.466-4.866 1.314-7.053l-0.045 0.133c0.863-2.219 2.051-4.127 3.526-5.771l-0.015 0.017c1.446-1.621 3.198-2.935 5.168-3.86l0.098-0.041c1.85-0.863 4.017-1.366 6.301-1.366 0.048 0 0.096 0 0.143 0.001h-0.007c0.011 0 0.024 0 0.038 0 2.327 0 4.529 0.54 6.485 1.501l-0.087-0.038c2.061 1.020 3.808 2.363 5.251 3.982l0.015 0.017c1.504 1.651 2.724 3.592 3.564 5.724l0.044 0.127c0.829 2.128 1.309 4.592 1.309 7.168s-0.48 5.040-1.356 7.307l0.047-0.139c-0.882 2.26-2.103 4.201-3.622 5.866l0.013-0.015c-1.466 1.594-3.212 2.904-5.164 3.856l-0.102 0.045c-1.849 0.923-4.027 1.463-6.332 1.463-0.037 0-0.073 0-0.11 0h0.006c-0.011 0-0.024 0-0.038 0-2.327 0-4.529-0.54-6.485-1.501l0.087 0.038c-2.070-1.001-3.821-2.346-5.25-3.98l-0.016-0.019c-3.029-3.421-4.878-7.946-4.878-12.903 0-0.092 0.001-0.184 0.002-0.276v0.014z" />
<glyph unicode="&#xe934;" glyph-name="f_1080" d="M183.052 482.133c0-0.029 0.001-0.064 0.001-0.098 0-4.363-3.537-7.899-7.899-7.899-0.035 0-0.069 0-0.103 0.001h0.005c-0.042-0.001-0.091-0.001-0.14-0.001-2.195 0-4.181 0.896-5.613 2.341l-0.001 0.001c-1.445 1.387-2.342 3.334-2.342 5.491 0 0.058 0.001 0.116 0.002 0.174v-0.009 178.761l-20.675-6.632c-0.943-0.434-2.040-0.714-3.195-0.779l-0.024-0.001c-0.049-0.001-0.107-0.002-0.166-0.002-2.157 0-4.104 0.898-5.488 2.34l-0.002 0.003c-1.446 1.432-2.342 3.418-2.342 5.614 0 0.049 0 0.098 0.001 0.148v-0.007c-0.001 0.037-0.001 0.081-0.001 0.125 0 2.169 0.897 4.129 2.34 5.53l0.002 0.002c0.725 0.696 1.561 1.283 2.478 1.73l0.058 0.025 31.988 10.63c0.93 0.291 2.001 0.468 3.11 0.487h0.010c0.029 0 0.064 0.001 0.098 0.001 4.363 0 7.899-3.537 7.899-7.899 0-0.035 0-0.069-0.001-0.103v0.005zM233.374 577.512c-0.018 0.975-0.029 2.124-0.029 3.276 0 17.682 2.468 34.787 7.077 50.99l-0.319-1.311c3.707 13.73 10.177 25.637 18.819 35.61l-0.095-0.112c4.675 4.364 10.127 7.972 16.113 10.584l0.368 0.143c5.757 2.492 12.462 3.942 19.505 3.942s13.748-1.45 19.831-4.067l-0.326 0.125c6.314-2.773 11.732-6.379 16.417-10.758l-0.033 0.030c8.632-9.833 15.143-21.749 18.681-34.885l0.141-0.614c4.23-14.87 6.662-31.947 6.662-49.593 0-1.182-0.011-2.362-0.033-3.539l0.003 0.177c0.019-1.009 0.031-2.2 0.031-3.393 0-17.669-2.432-34.77-6.98-50.986l0.318 1.326c-3.68-13.75-10.19-25.666-18.908-35.598l0.086 0.099c-4.65-4.353-10.069-7.959-16.017-10.583l-0.367-0.144c-5.756-2.498-12.461-3.95-19.505-3.95s-13.748 1.453-19.83 4.075l0.325-0.125c-6.355 2.754-11.807 6.362-16.515 10.758l0.033-0.031c-8.548 9.862-15.018 21.768-18.58 34.873l-0.145 0.626c-4.291 14.917-6.758 32.050-6.758 49.759 0 1.158 0.011 2.314 0.032 3.467l-0.002-0.173zM294.717 664.698c-0.169 0.003-0.368 0.005-0.567 0.005-9.432 0-17.946-3.926-23.998-10.233l-0.011-0.011q-20.675-23.113-20.675-76.849t20.675-77.239c6.006-6.035 14.319-9.77 23.504-9.77 0.377 0 0.752 0.006 1.126 0.019l-0.054-0.001c0.249-0.007 0.543-0.010 0.837-0.010 9.258 0 17.645 3.728 23.742 9.765l-0.003-0.003q20.87 23.406 20.87 77.239t-20.87 76.849c-6.146 6.263-14.7 10.145-24.16 10.145-0.146 0-0.292-0.001-0.438-0.003h0.022zM429.105 594.578c-9.146 8.783-14.829 21.113-14.829 34.77 0 0.256 0.002 0.512 0.006 0.767v-0.039c-0.005 0.25-0.007 0.545-0.007 0.841 0 6.734 1.365 13.149 3.833 18.984l-0.12-0.32c7.733 18.252 25.496 30.823 46.196 30.823 0.251 0 0.501-0.002 0.751-0.006h-0.038c0.314 0.007 0.684 0.011 1.055 0.011 13.642 0 25.976-5.602 34.826-14.632l0.008-0.008c9.151-9.055 14.817-21.615 14.817-35.499s-5.666-26.444-14.813-35.494l-0.004-0.004-6.339-5.656 7.802-5.754c2.231-1.67 4.203-3.364 6.057-5.179l-0.010 0.010c11.304-10.692 18.339-25.796 18.339-42.543 0-0.266-0.002-0.532-0.005-0.798v0.040c0.004-0.253 0.006-0.551 0.006-0.851 0-16.609-7.001-31.582-18.213-42.13l-0.030-0.028c-10.752-10.963-25.72-17.758-42.274-17.758-0.361 0-0.721 0.003-1.080 0.010l0.054-0.001c-0.243-0.004-0.53-0.006-0.817-0.006-16.681 0-31.777 6.788-42.676 17.752l-0.003 0.003c-11.070 10.978-17.923 26.193-17.923 43.008s6.853 32.030 17.919 43.004l0.004 0.004c4.199 4.031 8.862 7.638 13.882 10.719l0.356 0.203c-2.481 1.879-4.675 3.764-6.748 5.772l0.019-0.018zM464.994 579.657c-0.107 0.001-0.234 0.001-0.361 0.001-12.412 0-23.638-5.074-31.719-13.26l-0.005-0.005c-8.345-7.931-13.541-19.107-13.556-31.497v-0.003c-0.002-0.138-0.002-0.301-0.002-0.464 0-12.252 4.998-23.336 13.067-31.325l0.004-0.004c8.228-8.080 19.517-13.068 31.971-13.068 0.040 0 0.081 0 0.121 0h-0.006c0.459-0.017 0.998-0.027 1.539-0.027 12.273 0 23.368 5.050 31.318 13.184l0.008 0.008c7.965 8.106 12.881 19.229 12.881 31.501 0 24.83-20.129 44.958-44.958 44.958-0.106 0-0.211 0-0.317-0.001h0.016zM464.994 664.015c-0.275 0.008-0.598 0.013-0.922 0.013-9.17 0-17.468-3.733-23.457-9.763l-0.002-0.002c-6.026-5.87-9.764-14.064-9.764-23.131 0-0.302 0.004-0.604 0.012-0.904l-0.001 0.044c-0.008-0.27-0.012-0.587-0.012-0.906 0-9.144 3.735-17.416 9.762-23.374l0.003-0.003c6.266-6.184 14.879-10.004 24.384-10.004 19.023 0 34.472 15.299 34.716 34.264v0.023c0.002 0.132 0.003 0.289 0.003 0.446 0 9.286-3.933 17.654-10.224 23.528l-0.019 0.017c-6.098 6.147-14.549 9.953-23.889 9.953-0.207 0-0.414-0.002-0.621-0.006h0.031zM574.025 577.512c-0.018 0.975-0.029 2.124-0.029 3.276 0 17.682 2.468 34.787 7.077 50.99l-0.319-1.311c3.707 13.73 10.177 25.637 18.819 35.61l-0.095-0.112c4.675 4.364 10.127 7.972 16.113 10.584l0.368 0.143c5.757 2.492 12.462 3.942 19.505 3.942s13.748-1.45 19.831-4.067l-0.326 0.125c6.314-2.773 11.732-6.379 16.417-10.758l-0.033 0.030c8.632-9.833 15.143-21.749 18.681-34.885l0.141-0.614c4.23-14.87 6.662-31.947 6.662-49.593 0-1.182-0.011-2.362-0.033-3.539l0.003 0.177c0.019-1.009 0.031-2.2 0.031-3.393 0-17.669-2.432-34.77-6.98-50.986l0.318 1.326c-3.68-13.75-10.19-25.666-18.908-35.598l0.086 0.099c-4.65-4.353-10.069-7.959-16.017-10.583l-0.367-0.144c-5.756-2.498-12.461-3.95-19.505-3.95s-13.748 1.453-19.83 4.075l0.325-0.125c-6.355 2.754-11.807 6.362-16.515 10.758l0.033-0.031c-8.548 9.862-15.018 21.768-18.58 34.873l-0.145 0.626c-4.291 14.917-6.758 32.050-6.758 49.759 0 1.158 0.011 2.314 0.032 3.467l-0.002-0.173zM635.368 664.698c-0.169 0.003-0.368 0.005-0.567 0.005-9.432 0-17.946-3.926-23.998-10.233l-0.011-0.011q-20.675-23.113-20.675-76.849t20.675-77.239c6.006-6.035 14.319-9.77 23.504-9.77 0.377 0 0.752 0.006 1.126 0.019l-0.054-0.001c0.249-0.007 0.543-0.010 0.837-0.010 9.258 0 17.645 3.728 23.742 9.765l-0.003-0.003q20.87 23.406 20.87 77.239t-20.87 76.849c-6.146 6.263-14.7 10.145-24.16 10.145-0.146 0-0.292-0.001-0.438-0.003h0.022zM794.331 679.912c36.321-0.22 65.706-29.605 65.926-65.905v-0.021c-0.055-36.388-29.538-65.871-65.921-65.926h-34.236v-65.926c0-0.029 0.001-0.064 0.001-0.098 0-4.363-3.537-7.899-7.899-7.899-0.035 0-0.069 0-0.103 0.001h0.005c-0.033-0.001-0.072-0.001-0.111-0.001-2.143 0-4.077 0.898-5.445 2.338l-0.003 0.003c-1.388 1.408-2.245 3.342-2.245 5.476 0 0.063 0.001 0.126 0.002 0.189v-0.009 189.781c-0.001 0.054-0.002 0.117-0.002 0.18 0 2.134 0.857 4.069 2.246 5.477l-0.001-0.001c1.371 1.443 3.305 2.341 5.448 2.341 0.039 0 0.078 0 0.117-0.001h-0.006zM760.101 664.113v-100.254h34.231c0.044 0 0.096 0 0.148 0 27.631 0 50.030 22.399 50.030 50.030 0 13.876-5.649 26.433-14.774 35.496l-0.003 0.003c-8.752 9.144-21.055 14.828-34.685 14.828-0.218 0-0.435-0.001-0.651-0.004h0.033zM314.027 245.053c0-0.058 0-0.127 0-0.197 0-5.883-1.22-11.481-3.42-16.554l0.104 0.269c-2.294-5.276-5.419-9.776-9.259-13.55l-0.006-0.006c-7.859-7.719-18.642-12.484-30.538-12.484-0.098 0-0.196 0-0.294 0.001h0.015c-0.137-0.002-0.3-0.002-0.462-0.002-6.168 0-12.043 1.256-17.383 3.526l0.291-0.11c-5.506 2.336-10.182 5.636-14.023 9.73l-0.020 0.022c-4.154 4.317-7.466 9.478-9.649 15.197l-0.104 0.31c-2.106 5.862-3.324 12.626-3.324 19.674 0 0.352 0.003 0.703 0.009 1.054l-0.001-0.053c-0.001 0.213-0.002 0.464-0.002 0.716 0 12.22 1.351 24.124 3.911 35.571l-0.203-1.081c1.862 9.123 5.074 17.223 9.46 24.537l-0.195-0.351c3.677 5.755 8.606 10.402 14.424 13.646l0.204 0.105c5.12 2.945 11.258 4.682 17.801 4.682 0.085 0 0.169 0 0.254-0.001h-0.013c0.155 0.002 0.339 0.004 0.523 0.004 8.179 0 15.77-2.517 22.040-6.819l-0.133 0.086c6.437-4.448 11.328-10.725 13.963-18.076l0.081-0.259-4.779-2.828c-2.21 6.714-6.41 12.27-11.895 16.122l-0.101 0.067c-5.332 3.842-11.996 6.145-19.198 6.145-0.108 0-0.215-0.001-0.323-0.002h0.016c-0.117 0.002-0.255 0.003-0.393 0.003-5.725 0-11.078-1.597-15.636-4.369l0.133 0.075c-5.018-3.181-9.117-7.373-12.097-12.316l-0.093-0.167c-3.662-5.831-6.521-12.607-8.202-19.836l-0.088-0.449c-1.803-7.728-2.836-16.602-2.836-25.717 0-0.49 0.003-0.98 0.009-1.469l-0.001 0.074c1.336 4.256 3.298 7.952 5.814 11.198l-0.060-0.081c7.782 9.905 19.761 16.208 33.211 16.208 5.933 0 11.58-1.227 16.701-3.44l-0.273 0.105c10.218-4.426 18.2-12.408 22.518-22.349l0.107-0.277c2.138-4.797 3.392-10.393 3.413-16.279v-0.008zM270.824 207.994c0.047 0 0.103 0 0.16 0 5.158 0 10.065 1.076 14.508 3.017l-0.234-0.091c4.613 1.969 8.558 4.633 11.905 7.906l-0.007-0.007c3.344 3.299 6.071 7.213 7.999 11.56l0.095 0.24c1.91 4.186 3.023 9.079 3.023 14.232 0 0.036 0 0.073 0 0.109v-0.006c0 0.017 0 0.037 0 0.057 0 5.202-1.113 10.145-3.114 14.602l0.091-0.226c-2.025 4.602-4.788 8.52-8.181 11.79l-0.011 0.011c-3.362 3.257-7.3 5.945-11.641 7.894l-0.257 0.103c-4.186 1.91-9.079 3.023-14.232 3.023-0.036 0-0.073 0-0.109 0h0.006c-0.022 0-0.047 0-0.073 0-5.23 0-10.201-1.113-14.688-3.115l0.229 0.091c-4.611-2.016-8.553-4.709-11.903-8.002l0.006 0.005c-3.35-3.295-6.079-7.21-8-11.562l-0.094-0.239c-1.886-4.207-2.984-9.119-2.984-14.287s1.098-10.080 3.074-14.514l-0.090 0.227c1.978-4.672 4.712-8.658 8.090-11.992l0.004-0.004c3.36-3.26 7.298-5.949 11.641-7.894l0.256-0.103c4.034-1.733 8.729-2.741 13.659-2.741 0.306 0 0.612 0.004 0.917 0.012l-0.045-0.001zM419.352 255.586c0.003-0.237 0.005-0.517 0.005-0.797 0-7.347-1.179-14.418-3.358-21.036l0.135 0.475c-2.118-6.473-5.207-12.081-9.149-16.973l0.079 0.102c-3.695-4.554-8.242-8.26-13.419-10.911l-0.234-0.109c-5.078-2.482-11.049-3.933-17.359-3.933s-12.281 1.451-17.598 4.038l0.239-0.105c-5.414 2.755-9.962 6.462-13.593 10.943l-0.061 0.077c-3.866 4.789-6.956 10.398-8.963 16.499l-0.106 0.373c-2.056 6.372-3.241 13.702-3.241 21.309s1.185 14.938 3.38 21.817l-0.14-0.508c2.118 6.473 5.207 12.081 9.149 16.973l-0.079-0.102c3.708 4.57 8.251 8.304 13.419 11.006l0.234 0.112c5.060 2.57 11.034 4.075 17.359 4.075s12.299-1.505 17.582-4.178l-0.223 0.102c5.401-2.816 9.944-6.549 13.591-11.039l0.062-0.079c3.921-4.65 7.097-10.086 9.245-16.015l0.117-0.369c1.876-5.896 2.957-12.678 2.957-19.712 0-0.716-0.011-1.429-0.033-2.139l0.003 0.104zM413.208 255.586c0.003 0.249 0.005 0.543 0.005 0.838 0 6.657-1 13.080-2.858 19.128l0.122-0.461c-1.727 5.781-4.327 10.813-7.691 15.232l0.084-0.116c-3.136 4.070-7.079 7.358-11.607 9.663l-0.193 0.089c-4.284 2.155-9.335 3.416-14.681 3.416-0.153 0-0.306-0.001-0.458-0.003h0.023c-0.123 0.002-0.268 0.003-0.414 0.003-10.813 0-20.427-5.13-26.542-13.089l-0.058-0.079c-3.307-4.355-5.912-9.457-7.524-14.981l-0.083-0.33c-1.764-5.841-2.779-12.555-2.779-19.505s1.015-13.663 2.906-19.999l-0.127 0.494c1.701-5.75 4.304-10.753 7.685-15.124l-0.078 0.105c6.213-7.984 15.823-13.070 26.621-13.070 0.138 0 0.276 0.001 0.414 0.002h-0.021c0.123-0.002 0.268-0.003 0.413-0.003 5.354 0 10.413 1.261 14.896 3.503l-0.193-0.087c4.711 2.412 8.651 5.697 11.742 9.674l0.058 0.078c3.294 4.269 5.896 9.27 7.523 14.693l0.084 0.325c1.946 5.85 3.085 12.587 3.121 19.585v0.017zM495.323 204.19v75.288h-12.971v5.266h12.971v14.043c-0.049 0.775-0.077 1.681-0.077 2.594 0 8.653 2.499 16.723 6.815 23.527l-0.106-0.18c3.843 5.905 10.411 9.755 17.878 9.755 0.126 0 0.252-0.001 0.377-0.003h-0.019c0.013 0 0.028 0 0.043 0 3.48 0 6.817-0.607 9.913-1.722l-0.204 0.064c2.905-0.958 5.409-2.424 7.531-4.31l-0.022 0.019-3.023-3.901c-1.659 1.339-3.606 2.404-5.724 3.085l-0.127 0.035c-2.268 0.803-4.883 1.267-7.606 1.268v0c-0.231 0.011-0.501 0.018-0.773 0.018-5.831 0-10.958-3.010-13.914-7.561l-0.039-0.064c-3.243-5.65-5.156-12.421-5.156-19.64 0-0.913 0.031-1.82 0.091-2.718l-0.007 0.122v-14.043h26.722v-5.266h-26.526v-75.678zM590.897 202.435c-0.057 0-0.125-0.001-0.193-0.001-3.974 0-7.798 0.642-11.374 1.829l0.255-0.073c-3.723 1.293-6.946 2.908-9.912 4.879l0.16-0.1c-3.207 2.076-5.989 4.393-8.466 7.002l-0.019 0.020c-2.436 2.537-4.625 5.346-6.507 8.367l-0.125 0.216v-57.734h-5.949v128.634h5.656v-18.92c1.981 3.090 4.169 5.774 6.625 8.185l0.007 0.007c4.947 4.842 11.037 8.538 17.826 10.644l0.314 0.084c2.922 0.867 6.279 1.366 9.752 1.366 0.069 0 0.137 0 0.206-0.001h-0.011c0.16 0.002 0.349 0.004 0.538 0.004 6.267 0 12.189-1.478 17.437-4.104l-0.225 0.102c5.431-2.739 10.028-6.339 13.802-10.674l0.046-0.054c3.757-4.318 6.823-9.36 8.952-14.869l0.117-0.345c2.031-5.12 3.211-11.052 3.218-17.259v-0.003c0-0.019 0-0.041 0-0.064 0-6.447-1.144-12.628-3.239-18.349l0.119 0.37c-2.037-5.781-4.952-10.77-8.636-15.083l0.054 0.065c-3.653-4.199-8.058-7.638-13.020-10.129l-0.244-0.111c-4.89-2.462-10.657-3.903-16.76-3.903-0.142 0-0.284 0.001-0.425 0.002h0.022zM590.019 208.091c0.134-0.002 0.292-0.003 0.451-0.003 5.428 0 10.544 1.336 15.038 3.696l-0.178-0.085c4.603 2.487 8.465 5.758 11.546 9.674l0.059 0.078c2.993 3.729 5.439 8.061 7.12 12.757l0.097 0.311c1.668 4.522 2.633 9.746 2.633 15.194 0 0.007 0 0.014 0 0.021v-0.001c-0.009 5.623-1.119 10.985-3.125 15.885l0.102-0.281c-2.033 5.15-4.801 9.578-8.229 13.402l0.037-0.042c-3.367 3.8-7.414 6.912-11.963 9.163l-0.228 0.102c-4.34 2.154-9.452 3.414-14.858 3.414-0.091 0-0.182 0-0.272-0.001h0.014c-3.944-0.055-7.69-0.838-11.131-2.22l0.209 0.074c-4.133-1.569-7.705-3.507-10.966-5.85l0.141 0.096c-3.257-2.357-6.030-5.13-8.314-8.281l-0.073-0.106c-2.082-2.712-3.509-6.031-3.987-9.649l-0.011-0.104v-31.403c1.676-3.722 3.666-6.93 6.015-9.836l-0.066 0.084c2.415-3.072 5.142-5.737 8.177-8.014l0.112-0.081c2.811-2.142 6.028-3.979 9.475-5.363l0.277-0.098c3.506-1.526 7.583-2.45 11.866-2.535l0.032-0.001zM682.667 202.435c-0.081 0-0.177-0.001-0.273-0.001-6.911 0-13.521 1.288-19.603 3.638l0.372-0.126c-6.368 2.504-11.775 6.22-16.167 10.899l-0.022 0.023 3.316 3.998c4.315-3.916 9.307-7.19 14.762-9.612l0.354-0.14c4.9-2.099 10.601-3.32 16.588-3.32 0.202 0 0.405 0.001 0.606 0.004h-0.031c0.482-0.023 1.046-0.036 1.614-0.036 7.067 0 13.656 2.048 19.206 5.584l-0.145-0.086c4.794 3.164 7.913 8.526 7.913 14.617 0 0.244-0.005 0.487-0.015 0.729l0.001-0.035c0.004 0.121 0.006 0.262 0.006 0.405 0 2.667-0.765 5.156-2.087 7.259l0.033-0.057c-1.516 2.19-3.478 3.965-5.765 5.222l-0.087 0.044c-2.794 1.55-6.034 2.881-9.434 3.826l-0.318 0.075q-5.656 1.658-13.068 3.413t-13.068 3.413c-3.526 1.020-6.601 2.382-9.44 4.096l0.175-0.098c-2.333 1.381-4.194 3.336-5.424 5.676l-0.037 0.078c-1.12 2.385-1.774 5.18-1.774 8.127 0 0.297 0.007 0.593 0.020 0.887l-0.001-0.042c-0.004 0.157-0.006 0.342-0.006 0.527 0 3.964 0.939 7.709 2.606 11.025l-0.064-0.141c1.766 3.296 4.163 6.037 7.051 8.145l0.068 0.047c2.945 2.149 6.394 3.825 10.12 4.826l0.218 0.050c3.547 0.937 7.618 1.474 11.816 1.474 0.372 0 0.743-0.004 1.113-0.013l-0.055 0.001c0.456 0.017 0.992 0.026 1.53 0.026 6.5 0 12.679-1.373 18.263-3.846l-0.288 0.114c4.839-2.131 8.811-5.477 11.642-9.657l0.061-0.095-3.998-3.023c-2.869 3.687-6.712 6.492-11.143 8.043l-0.17 0.052c-4.658 1.791-10.047 2.829-15.678 2.829-0.077 0-0.154 0-0.23-0.001h0.012c-3.47-0.022-6.83-0.447-10.049-1.231l0.297 0.061c-3.154-0.756-5.927-2.035-8.365-3.757l0.076 0.051c-4.746-3.318-7.812-8.757-7.812-14.912 0-0.209 0.004-0.417 0.011-0.624l-0.001 0.030c-0.007-0.177-0.011-0.384-0.011-0.593 0-2.329 0.507-4.539 1.417-6.527l-0.040 0.098c1.029-1.98 2.562-3.576 4.431-4.652l0.055-0.029c2.216-1.281 4.778-2.349 7.482-3.070l0.223-0.051 11.313-2.926q8.387-1.95 14.921-3.901c4.207-1.221 7.863-2.781 11.277-4.718l-0.257 0.134c2.841-1.609 5.17-3.813 6.878-6.457l0.046-0.077c1.481-2.603 2.354-5.719 2.354-9.039 0-0.251-0.005-0.501-0.015-0.749l0.001 0.036c0.003-0.147 0.005-0.321 0.005-0.495 0-3.832-0.902-7.454-2.506-10.664l0.063 0.138c-1.723-3.342-4.053-6.14-6.87-8.346l-0.055-0.041c-3.097-2.376-6.743-4.219-10.701-5.312l-0.222-0.052c-3.434-0.824-7.376-1.297-11.428-1.297-1.263 0-2.516 0.046-3.757 0.136l0.166-0.010z" />
<glyph unicode="&#xe935;" glyph-name="f_720" d="M195.048 476.672c-1.479-1.459-3.511-2.361-5.754-2.361s-4.275 0.901-5.755 2.362l0.001-0.001c-1.445 1.387-2.342 3.334-2.342 5.491 0 0.058 0.001 0.116 0.002 0.174v-0.009c0.166 2.028 0.872 3.863 1.972 5.396l-0.022-0.032 99.279 176.518h-93.623c-4.47 0-8.094 3.624-8.094 8.094v0c-0.001 0.049-0.002 0.107-0.002 0.166 0 2.157 0.898 4.104 2.34 5.488l0.003 0.002c1.432 1.446 3.418 2.342 5.614 2.342 0.049 0 0.098 0 0.148-0.001h106.587c0.029 0 0.064 0.001 0.098 0.001 4.363 0 7.899-3.537 7.899-7.899 0-0.035 0-0.069-0.001-0.103v0.005c0.012-0.175 0.019-0.38 0.019-0.586 0-1.573-0.405-3.051-1.115-4.336l0.023 0.046-106.106-188.514c-0.317-0.856-0.712-1.597-1.191-2.274l0.020 0.031zM465.676 490.228c0.265 0.031 0.571 0.049 0.882 0.049 4.417 0 7.997-3.58 7.997-7.997s-3.58-7.997-7.997-7.997c-0.311 0-0.617 0.018-0.919 0.052l0.037-0.003h-106.496c-0.042-0.001-0.091-0.001-0.14-0.001-2.195 0-4.181 0.896-5.613 2.341l-0.001 0.001c-1.437 1.38-2.332 3.316-2.341 5.46v0.002c0.055 2.247 0.975 4.27 2.439 5.755l-0.001-0.001 90.99 98.889c4.005 4.15 7.289 9.028 9.63 14.411l0.122 0.315c2.219 5.166 3.51 11.179 3.51 17.493 0 25.045-20.303 45.349-45.349 45.349s-45.349-20.303-45.349-45.349c0-0.116 0-0.231 0.001-0.346v0.018c0-0.029 0.001-0.064 0.001-0.098 0-4.363-3.537-7.899-7.899-7.899-0.035 0-0.069 0-0.103 0.001h0.005c-0.042-0.001-0.091-0.001-0.14-0.001-2.195 0-4.181 0.896-5.613 2.341l-0.001 0.001c-1.388 1.378-2.247 3.288-2.247 5.398 0 0.091 0.002 0.181 0.005 0.271v-0.013c0 0.029 0 0.063 0 0.098 0 33.825 27.42 61.245 61.245 61.245 0.034 0 0.069 0 0.103 0h-0.005c33.814-0.111 61.19-27.52 61.245-61.337v-0.005c0.005-0.292 0.008-0.637 0.008-0.982 0-16.732-6.954-31.841-18.129-42.593l-0.019-0.018-78.019-85.138zM521.362 577.512c-0.018 0.975-0.029 2.124-0.029 3.276 0 17.682 2.468 34.787 7.077 50.99l-0.319-1.311c3.707 13.73 10.177 25.637 18.819 35.61l-0.095-0.112c4.676 4.362 10.128 7.97 16.113 10.584l0.369 0.143c5.757 2.492 12.462 3.942 19.505 3.942s13.748-1.45 19.831-4.067l-0.326 0.125c6.314-2.775 11.731-6.38 16.417-10.758l-0.033 0.031c8.632-9.833 15.143-21.749 18.681-34.885l0.141-0.614c3.945-14.372 6.212-30.874 6.212-47.906 0-1.776-0.025-3.545-0.074-5.309l0.006 0.26c0.019-1.009 0.031-2.2 0.031-3.393 0-17.669-2.432-34.77-6.98-50.986l0.318 1.326c-3.68-13.75-10.19-25.666-18.908-35.598l0.086 0.099c-4.65-4.353-10.069-7.959-16.017-10.583l-0.367-0.144c-5.756-2.498-12.461-3.95-19.505-3.95s-13.748 1.453-19.83 4.075l0.325-0.125c-6.356 2.752-11.808 6.36-16.514 10.758l0.033-0.030c-8.548 9.862-15.018 21.768-18.58 34.873l-0.145 0.626c-4.006 14.424-6.308 30.988-6.308 48.089 0 1.746 0.024 3.486 0.072 5.22l-0.006-0.256zM582.705 664.698c-0.169 0.003-0.368 0.005-0.567 0.005-9.432 0-17.946-3.926-23.998-10.233l-0.011-0.011q-20.675-23.113-20.675-76.849t20.675-77.239c6.006-6.035 14.319-9.77 23.504-9.77 0.377 0 0.752 0.006 1.126 0.019l-0.054-0.001c0.249-0.007 0.543-0.010 0.837-0.010 9.258 0 17.645 3.728 23.742 9.765l-0.003-0.003q20.87 23.406 20.87 77.239t-20.87 76.849c-6.131 6.264-14.673 10.147-24.121 10.147-0.194 0-0.388-0.002-0.582-0.005h0.029zM741.181 679.912c36.321-0.22 65.706-29.605 65.926-65.905v-0.021c-0.055-36.388-29.538-65.871-65.921-65.926h-33.748v-65.926c0-0.029 0.001-0.064 0.001-0.098 0-4.363-3.537-7.899-7.899-7.899-0.035 0-0.069 0-0.103 0.001h0.005c-0.033-0.001-0.072-0.001-0.111-0.001-2.143 0-4.077 0.898-5.445 2.338l-0.003 0.003c-1.388 1.408-2.245 3.342-2.245 5.476 0 0.063 0.001 0.126 0.002 0.189v-0.009 189.781c-0.001 0.054-0.002 0.117-0.002 0.18 0 2.134 0.857 4.069 2.246 5.477l-0.001-0.001c1.371 1.443 3.305 2.341 5.448 2.341 0.039 0 0.078 0 0.117-0.001h-0.006zM706.95 664.113v-100.254h34.231c0.044 0 0.096 0 0.148 0 27.631 0 50.030 22.399 50.030 50.030 0 13.876-5.649 26.433-14.774 35.496l-0.003 0.003c-8.744 9.088-21.010 14.733-34.594 14.733-0.284 0-0.567-0.002-0.849-0.007l0.042 0.001zM317.733 245.638c7.898-1.005 14.724-4.947 19.464-10.677l0.041-0.050c4.624-5.679 7.426-13.003 7.426-20.981 0-0.338-0.005-0.675-0.015-1.011l0.001 0.049c0.001-0.081 0.001-0.177 0.001-0.273 0-4.834-1.005-9.433-2.817-13.6l0.085 0.22c-1.898-4.286-4.533-7.92-7.778-10.901l-0.023-0.021c-3.367-3.036-7.357-5.457-11.747-7.041l-0.249-0.078c-4.446-1.608-9.577-2.538-14.926-2.538-0.17 0-0.339 0.001-0.509 0.003h0.026c-0.318-0.008-0.692-0.013-1.067-0.013-8.112 0-15.716 2.177-22.259 5.978l0.212-0.114c-6.282 3.609-11.137 9.094-13.868 15.683l-0.078 0.213 4.779 3.121c2.218-5.993 6.321-10.854 11.579-13.975l0.124-0.068c5.618-3.32 12.38-5.281 19.599-5.281 0.378 0 0.755 0.005 1.131 0.016l-0.055-0.001c0.529-0.030 1.148-0.047 1.771-0.047 8.242 0 15.782 3.007 21.582 7.984l-0.044-0.037c5.391 5.572 8.713 13.174 8.713 21.553s-3.322 15.981-8.721 21.561l0.008-0.009c-6.002 5.014-13.801 8.058-22.31 8.058-0.728 0-1.452-0.022-2.169-0.066l0.098 0.005h-3.998v4.779h4.194c0.692-0.049 1.501-0.076 2.315-0.076 7.699 0 14.82 2.478 20.607 6.681l-0.101-0.070c4.853 4.018 7.921 10.044 7.921 16.786 0 0.339-0.008 0.676-0.023 1.011l0.002-0.048c0.002 0.129 0.004 0.281 0.004 0.434 0 3.866-0.827 7.539-2.314 10.852l0.067-0.168c-1.526 3.338-3.633 6.163-6.216 8.462l-0.025 0.022c-2.738 2.371-5.989 4.237-9.554 5.405l-0.198 0.056c-3.459 1.237-7.45 1.952-11.608 1.952-0.102 0-0.203 0-0.305-0.001h0.016c-0.195 0.004-0.425 0.006-0.656 0.006-6.76 0-13.070-1.926-18.41-5.26l0.147 0.085c-5.262-3.24-9.345-7.951-11.728-13.559l-0.072-0.191-4.389 3.023c2.612 6.726 7.32 12.16 13.311 15.623l0.148 0.079c6.094 3.68 13.454 5.858 21.323 5.858 0.252 0 0.504-0.002 0.755-0.007l-0.038 0.001c0.163 0.002 0.355 0.004 0.547 0.004 4.907 0 9.614-0.859 13.978-2.435l-0.287 0.090c4.325-1.547 8.051-3.766 11.255-6.569l-0.040 0.034c3.053-2.684 5.544-5.924 7.332-9.572l0.080-0.18c1.725-3.619 2.733-7.865 2.733-12.346 0-0.117-0.001-0.233-0.002-0.35v0.018c0.005-0.204 0.008-0.445 0.008-0.686 0-6.932-2.511-13.277-6.673-18.176l0.033 0.040c-4.506-5.155-10.867-8.59-18.031-9.257l-0.108-0.008zM451.145 255.683c0.003-0.237 0.005-0.517 0.005-0.797 0-7.347-1.179-14.418-3.358-21.036l0.135 0.475c-2.118-6.473-5.207-12.081-9.149-16.973l0.079 0.102c-3.695-4.554-8.242-8.26-13.419-10.911l-0.234-0.109c-5.078-2.482-11.049-3.933-17.359-3.933s-12.281 1.451-17.598 4.038l0.239-0.105c-5.414 2.755-9.962 6.462-13.593 10.943l-0.061 0.077c-3.866 4.789-6.956 10.398-8.963 16.499l-0.106 0.373c-2.056 6.372-3.241 13.702-3.241 21.309s1.185 14.938 3.38 21.817l-0.14-0.508c2.118 6.473 5.207 12.081 9.149 16.973l-0.079-0.102c3.604 4.539 8.015 8.265 13.041 11.007l0.223 0.111c5.060 2.57 11.034 4.075 17.359 4.075s12.299-1.505 17.582-4.178l-0.223 0.102c5.555-2.776 10.231-6.516 13.987-11.047l0.057-0.071c3.823-4.684 6.905-10.157 8.958-16.109l0.112-0.373c2.046-6.146 3.227-13.222 3.227-20.573 0-0.379-0.003-0.757-0.009-1.134l0.001 0.057zM445.001 255.683c0.003 0.249 0.005 0.543 0.005 0.838 0 6.657-1 13.080-2.858 19.128l0.122-0.461c-1.727 5.781-4.327 10.813-7.691 15.232l0.084-0.116c-3.136 4.070-7.079 7.358-11.607 9.663l-0.193 0.089c-4.284 2.155-9.335 3.416-14.681 3.416-0.153 0-0.306-0.001-0.458-0.003h0.023c-0.173 0.003-0.377 0.005-0.582 0.005-10.942 0-20.658-5.254-26.761-13.377l-0.062-0.086c-3.288-4.301-5.889-9.334-7.522-14.786l-0.085-0.331c-1.764-5.841-2.779-12.555-2.779-19.505s1.015-13.663 2.906-19.999l-0.127 0.494c1.759-5.567 4.353-10.4 7.681-14.629l-0.074 0.098c6.213-7.984 15.823-13.070 26.621-13.070 0.138 0 0.276 0.001 0.414 0.002h-0.021c0.123-0.002 0.268-0.003 0.413-0.003 5.354 0 10.413 1.261 14.896 3.503l-0.193-0.087c4.711 2.412 8.651 5.697 11.742 9.674l0.058 0.078c3.294 4.269 5.896 9.27 7.523 14.693l0.084 0.325c1.906 5.726 3.042 12.323 3.12 19.174v0.039zM480.305 204.19v75.288h-13.068v5.266h12.971v14.043c-0.049 0.775-0.077 1.681-0.077 2.594 0 8.653 2.499 16.723 6.815 23.527l-0.106-0.18c3.843 5.905 10.411 9.755 17.878 9.755 0.126 0 0.252-0.001 0.377-0.003h-0.019c0.013 0 0.028 0 0.043 0 3.48 0 6.817-0.607 9.913-1.722l-0.204 0.064c2.905-0.958 5.409-2.424 7.531-4.31l-0.022 0.019-3.023-3.901c-1.659 1.339-3.606 2.404-5.724 3.085l-0.127 0.035c-2.268 0.803-4.883 1.267-7.606 1.268v0c-0.231 0.011-0.501 0.018-0.773 0.018-5.831 0-10.958-3.010-13.914-7.561l-0.039-0.064c-3.243-5.65-5.156-12.421-5.156-19.64 0-0.913 0.031-1.82 0.091-2.718l-0.007 0.122v-14.043h26.722v-5.266h-26.526v-75.678zM575.39 202.435c-0.057 0-0.125-0.001-0.193-0.001-3.974 0-7.798 0.642-11.374 1.829l0.255-0.073c-3.723 1.293-6.946 2.908-9.912 4.879l0.16-0.1c-3.207 2.076-5.989 4.393-8.466 7.002l-0.019 0.020c-2.436 2.537-4.625 5.346-6.507 8.367l-0.125 0.216v-57.734h-5.949v128.634h5.656v-18.92c1.981 3.090 4.169 5.774 6.625 8.185l0.007 0.007c4.947 4.842 11.037 8.538 17.826 10.644l0.314 0.084c2.926 0.87 6.288 1.37 9.766 1.37 0.201 0 0.401-0.002 0.601-0.005h-0.030c0.16 0.002 0.349 0.004 0.538 0.004 6.267 0 12.189-1.478 17.437-4.104l-0.225 0.102c5.431-2.739 10.028-6.339 13.802-10.674l0.046-0.054c3.639-4.298 6.61-9.309 8.662-14.768l0.115-0.348c2.031-5.12 3.211-11.052 3.218-17.259v-0.003c-0.014-6.513-1.192-12.746-3.339-18.508l0.12 0.369c-2.037-5.781-4.952-10.77-8.636-15.083l0.054 0.065c-3.653-4.199-8.058-7.638-13.020-10.129l-0.244-0.111c-4.89-2.462-10.657-3.903-16.76-3.903-0.142 0-0.284 0.001-0.425 0.002h0.022zM574.513 208.091c0.134-0.002 0.292-0.003 0.451-0.003 5.428 0 10.544 1.336 15.038 3.696l-0.178-0.085c4.603 2.487 8.465 5.758 11.546 9.674l0.059 0.078c3.091 3.806 5.605 8.237 7.315 13.049l0.097 0.312c1.668 4.522 2.633 9.746 2.633 15.194 0 0.007 0 0.014 0 0.021v-0.001c-0.009 5.623-1.119 10.985-3.125 15.885l0.102-0.281c-2.033 5.15-4.801 9.578-8.229 13.402l0.037-0.042c-3.367 3.8-7.414 6.912-11.963 9.163l-0.228 0.102c-4.34 2.154-9.452 3.414-14.858 3.414-0.091 0-0.182 0-0.272-0.001h0.014c-3.944-0.055-7.69-0.838-11.131-2.22l0.209 0.074c-4.133-1.569-7.705-3.507-10.966-5.85l0.141 0.096c-3.257-2.357-6.030-5.13-8.314-8.281l-0.073-0.106c-2.082-2.712-3.509-6.031-3.987-9.649l-0.011-0.104v-31.403c1.676-3.722 3.666-6.93 6.015-9.836l-0.066 0.084c2.415-3.072 5.142-5.737 8.177-8.014l0.112-0.081c2.811-2.142 6.028-3.979 9.475-5.363l0.277-0.098c3.546-1.644 7.68-2.669 12.036-2.827l0.057-0.002zM667.55 202.435c-0.081 0-0.177-0.001-0.273-0.001-6.911 0-13.521 1.288-19.603 3.638l0.372-0.126c-6.368 2.504-11.775 6.22-16.167 10.899l-0.022 0.023 3.316 3.998c4.315-3.916 9.307-7.19 14.762-9.612l0.354-0.14c4.9-2.099 10.601-3.32 16.588-3.32 0.202 0 0.405 0.001 0.606 0.004h-0.031c0.482-0.023 1.046-0.036 1.614-0.036 7.067 0 13.656 2.048 19.206 5.584l-0.145-0.086c4.794 3.164 7.913 8.526 7.913 14.617 0 0.244-0.005 0.487-0.015 0.729l0.001-0.035c0.004 0.121 0.006 0.262 0.006 0.405 0 2.667-0.765 5.156-2.087 7.259l0.033-0.057c-1.516 2.19-3.478 3.965-5.765 5.222l-0.087 0.044c-2.794 1.55-6.034 2.881-9.434 3.826l-0.318 0.075q-5.461 1.365-12.873 2.731t-13.068 3.413c-3.526 1.020-6.601 2.382-9.44 4.096l0.175-0.098c-2.333 1.381-4.194 3.336-5.424 5.676l-0.037 0.078c-1.12 2.385-1.774 5.18-1.774 8.127 0 0.297 0.007 0.593 0.020 0.887l-0.001-0.042c-0.007 0.212-0.010 0.462-0.010 0.712 0 4.045 0.977 7.861 2.708 11.226l-0.065-0.138c1.766 3.296 4.163 6.037 7.051 8.145l0.068 0.047c2.945 2.149 6.394 3.825 10.12 4.826l0.218 0.050c3.764 1.088 8.092 1.727 12.565 1.755h0.016c0.456 0.017 0.992 0.026 1.53 0.026 6.5 0 12.679-1.373 18.263-3.846l-0.288 0.114c4.839-2.131 8.811-5.477 11.642-9.657l0.061-0.095-3.998-3.023c-2.869 3.687-6.712 6.492-11.143 8.043l-0.17 0.052c-4.658 1.791-10.047 2.829-15.678 2.829-0.077 0-0.154 0-0.23-0.001h0.012c-3.47-0.022-6.83-0.447-10.049-1.231l0.297 0.061c-3.154-0.756-5.927-2.035-8.365-3.757l0.076 0.051c-4.746-3.318-7.812-8.757-7.812-14.912 0-0.209 0.004-0.417 0.011-0.624l-0.001 0.030c-0.007-0.177-0.011-0.384-0.011-0.593 0-2.329 0.507-4.539 1.417-6.527l-0.040 0.098c1.029-1.98 2.562-3.576 4.431-4.652l0.055-0.029c2.216-1.281 4.778-2.349 7.482-3.070l0.223-0.051 11.313-2.926q8.387-1.95 14.921-3.901c4.207-1.221 7.863-2.781 11.277-4.718l-0.257 0.134c2.841-1.609 5.17-3.813 6.878-6.457l0.046-0.077c1.097-2.296 1.738-4.991 1.738-7.835 0-0.606-0.029-1.206-0.086-1.797l0.006 0.075c0.003-0.147 0.005-0.321 0.005-0.495 0-3.832-0.902-7.454-2.506-10.664l0.063 0.138c-1.723-3.342-4.053-6.14-6.87-8.346l-0.055-0.041c-3.097-2.376-6.743-4.219-10.701-5.312l-0.222-0.052c-3.59-0.903-7.712-1.421-11.955-1.421-0.837 0-1.67 0.020-2.497 0.060l0.117-0.004z" />
<glyph unicode="&#xe936;" glyph-name="f_cyclic" d="M511.902 233.545c-0.012 0-0.025 0-0.039 0-97.657 0-180.075 65.245-206.041 154.522l-0.378 1.516h63.39c6.046 5.851 9.167 13.751 3.121 19.505l-73.143 74.021c-2.832 2.713-6.682 4.384-10.923 4.384s-8.091-1.671-10.928-4.389l0.006 0.005-72.753-74.021c-8.68-9.752-2.828-13.751 3.121-19.505h58.514c27.786-112.159 127.569-193.991 246.465-193.991 90.367 0 169.692 47.272 214.597 118.437l0.616 1.046-36.669 14.629c-38.976-58.29-104.53-96.158-178.929-96.158-0.009 0-0.019 0-0.028 0h0.001zM817.64 487.107h-55.394c-19.786 122.012-124.377 214.041-250.463 214.041-97.067 0-181.395-54.543-224.008-134.652l-0.665-1.37 36.279-14.726c37.027 67.537 107.636 112.561 188.761 112.561 104.918 0 192.246-75.308 210.88-174.818l0.207-1.329h-66.999c-6.046-5.851-11.8-9.752-3.121-19.505l72.753-73.923c2.832-2.713 6.682-4.384 10.923-4.384s8.091 1.671 10.928 4.389l-0.006-0.005 73.24 73.923c5.949 5.949 2.731 13.848-3.218 19.7z" />
<glyph unicode="&#xe937;" glyph-name="f_cloud2" d="M639.464 573.708c-27.029 54.071-81.977 90.549-145.445 90.549-85.381 0-155.343-66.017-161.625-149.791l-0.033-0.541c-62.202-16.649-107.49-71.901-108.834-137.943l-0.002-0.15c0-76.849 63.781-139.362 144.238-143.848h252.392c94.598 0 180.322 76.654 180.322 171.252-0.209 90.795-71.084 164.97-160.529 170.448l-0.482 0.024zM620.154 267.581h-252.392s-108.837 11.313-108.154 108.251c0 54.711 48.762 104.838 108.154 108.154 0 74.703 47.787 144.238 126.196 144.238 1.057 0.034 2.3 0.054 3.548 0.054 55.303 0 101.683-38.201 114.194-89.654l0.165-0.804c89.332 3.901 149.797-66.804 152.527-126.001 3.803-79.482-79.287-144.238-144.238-144.238z" />
<glyph unicode="&#xe938;" glyph-name="f_app" d="M512 230.327c13.896 0 25.161 11.265 25.161 25.161s-11.265 25.161-25.161 25.161c-13.896 0-25.161-11.265-25.161-25.161v0c0-13.896 11.265-25.161 25.161-25.161v0zM637.611 716.19h-251.221c-37.002 0-66.999-29.996-66.999-66.999v0-402.188c0-0.058 0-0.126 0-0.195 0-37.002 29.996-66.999 66.999-66.999 0 0 0 0 0 0h251.221c37.002 0 66.999 29.996 66.999 66.999v0 402.188c0 0.058 0 0.126 0 0.195 0 37.002-29.996 66.999-66.999 66.999 0 0 0 0 0 0v0zM671.061 247.296c0-18.474-14.976-33.451-33.451-33.451v0h-251.221c-18.474 0-33.451 14.976-33.451 33.451v0 49.542h318.123zM671.061 331.069h-318.123v268.093h318.123zM671.061 632.515h-318.123v16.482c0 18.474 14.976 33.451 33.451 33.451h251.221c18.474 0 33.451-14.976 33.451-33.451v0z" />
</font>
</defs>
</svg>
