<svg id="wifi_copy" data-name="wifi copy" xmlns="http://www.w3.org/2000/svg" viewBox="0 0 26.12 34.82"><title>gps</title><g id="_1" data-name="1"><path d="M343,184.68a13.06,13.06,0,0,0-13.06,13.06c0,5.46,10.89,21.78,13.06,21.76s13.06-16.38,13.06-21.76A13.06,13.06,0,0,0,343,184.68Zm0,31.56c-1.81,0-10.88-14-10.88-18.5a10.88,10.88,0,0,1,21.76,0C353.88,202.22,344.78,216.25,343,216.24Zm0-23.94a5.44,5.44,0,1,0,5.44,5.44A5.44,5.44,0,0,0,343,192.29Zm0,8.71a3.26,3.26,0,1,1,3.26-3.26A3.26,3.26,0,0,1,343,201Z" transform="translate(-329.94 -184.68)"/></g></svg>