<svg id="wifi_copy" data-name="wifi copy" xmlns="http://www.w3.org/2000/svg" viewBox="0 0 23.94 34.82"><title>mic</title><g id="_1" data-name="1"><path d="M207.52,241.58h-2.18a10.11,10.11,0,0,1-19.59,0h-2.18a12.2,12.2,0,0,0,10.88,9.75v2.23h-1.09a1.09,1.09,0,1,0,0,2.18h4.35a1.09,1.09,0,0,0,0-2.18h-1.09v-2.23A12.2,12.2,0,0,0,207.52,241.58Zm-12,5.44a7.62,7.62,0,0,0,7.62-7.62V228.52a7.62,7.62,0,1,0-15.24,0V239.4A7.62,7.62,0,0,0,195.55,247Zm-5.44-18.5a5.44,5.44,0,0,1,10.88,0V239.4a5.44,5.44,0,1,1-10.88,0V228.52Z" transform="translate(-183.58 -220.9)"/></g></svg>