<svg id="wifi" xmlns="http://www.w3.org/2000/svg" xmlns:xlink="http://www.w3.org/1999/xlink" viewBox="0 0 122.67 166.67"><defs><style>.cls-1{fill:none;}.cls-2{fill:#fff;}.cls-3{clip-path:url(#clip-path);}.cls-4{fill:#333;}</style><clipPath id="clip-path"><rect class="cls-1" x="-21.67" y="83.29" width="158" height="93.38"/></clipPath></defs><title>features</title><g id="_9" data-name="9"><path class="cls-2" d="M3.55,143.58a20.1,20.1,0,0,0,20.1,20.1H99a20.1,20.1,0,0,0,20.1-20.1V128.51H3.55Zm57.79-10a7.54,7.54,0,1,1-7.54,7.54A7.54,7.54,0,0,1,61.33,133.53ZM3.55,118.46H119.12V38.06H3.55ZM99,2.89H23.65A20.1,20.1,0,0,0,3.55,23v5H119.12V23A20.1,20.1,0,0,0,99,2.89Z"/></g><g class="cls-3"><g id="_9-2" data-name="9"><path class="cls-4" d="M3.55,143.58a20.1,20.1,0,0,0,20.1,20.1H99a20.1,20.1,0,0,0,20.1-20.1V128.51H3.55Zm57.79-10a7.54,7.54,0,1,1-7.54,7.54A7.54,7.54,0,0,1,61.33,133.53ZM3.55,118.46H119.12V38.06H3.55ZM99,2.89H23.65A20.1,20.1,0,0,0,3.55,23v5H119.12V23A20.1,20.1,0,0,0,99,2.89Z"/></g></g></svg>