<svg id="Layer_1" data-name="Layer 1" xmlns="http://www.w3.org/2000/svg" viewBox="0 0 93.81 118.21"><defs><style>.cls-1{fill:#eaeaea;}.cls-2{fill:#fff;stroke:#676766;stroke-miterlimit:10;stroke-width:0.5px;}.cls-3,.cls-4{fill:#181616;}.cls-3{fill-rule:evenodd;}.cls-5{fill:#0e0d0e;}</style></defs><title>github</title><rect class="cls-1" x="-595.61" y="-583.69" width="1280" height="933.6"/><rect class="cls-2" x="-93.5" y="-53.26" width="280.66" height="280.66" rx="6" ry="6"/><path class="cls-3" d="M46.9,0A46.91,46.91,0,0,0,32.08,91.41c2.34.43,3.2-1,3.2-2.26s0-4.81-.06-8.73c-13,2.84-15.8-5.53-15.8-5.53C17.28,69.47,14.21,68,14.21,68c-4.26-2.91.32-2.85.32-2.85,4.71.33,7.19,4.83,7.19,4.83,4.18,7.17,11,5.1,13.65,3.9a10,10,0,0,1,3-6.27C27.93,66.45,17,62.43,17,44.45a18.15,18.15,0,0,1,4.83-12.59c-.49-1.18-2.09-6,.45-12.41,0,0,3.94-1.26,12.9,4.81a44.48,44.48,0,0,1,23.49,0c9-6.07,12.89-4.81,12.89-4.81,2.55,6.46.95,11.23.46,12.41a18.12,18.12,0,0,1,4.83,12.59c0,18-11,22-21.42,23.14,1.68,1.46,3.18,4.31,3.18,8.69,0,6.28-.05,11.33-.05,12.87,0,1.25.84,2.71,3.22,2.25A46.91,46.91,0,0,0,46.9,0Z"/><path class="cls-4" d="M17.76,67.34c-.1.23-.47.3-.8.14s-.53-.47-.42-.7.47-.31.81-.15.53.47.42.71Zm-.58-.43"/><path class="cls-4" d="M19.66,69.46c-.22.21-.66.11-1-.22a.72.72,0,0,1-.14-1c.23-.21.65-.11,1,.22s.37.76.13,1ZM19.22,69"/><path class="cls-4" d="M21.51,72.16c-.29.2-.76,0-1-.4s-.29-.92,0-1.12.75,0,1,.39.29.92,0,1.13Zm0,0"/><path class="cls-4" d="M24,74.77c-.26.28-.8.21-1.21-.18a.9.9,0,0,1-.27-1.2c.26-.28.81-.2,1.22.18s.53.92.26,1.2Zm0,0"/><path class="cls-4" d="M27.54,76.29c-.11.37-.64.53-1.17.38s-.88-.59-.77-1,.64-.54,1.17-.38.88.59.77,1Zm0,0"/><path class="cls-4" d="M31.38,76.57c0,.39-.44.71-1,.71s-1-.3-1-.68.44-.71,1-.72,1,.3,1,.68Zm0,0"/><path class="cls-4" d="M35,76c.07.38-.32.76-.87.87s-1-.13-1.12-.51.33-.77.87-.87,1.05.13,1.12.51Zm0,0"/><path class="cls-5" d="M26.54,108H21a.26.26,0,0,0-.26.26v2.72a.26.26,0,0,0,.26.26h2.17v3.38a6.58,6.58,0,0,1-1.84.17c-1.59,0-3.81-.58-3.81-5.47s2.31-5.53,4.49-5.53a8.8,8.8,0,0,1,3.21.49.26.26,0,0,0,.31-.26l.62-2.63a.24.24,0,0,0-.1-.2c-.21-.15-1.49-.86-4.71-.86-3.72,0-7.53,1.58-7.53,9.18s4.36,8.73,8,8.73a9.05,9.05,0,0,0,4.89-1.3.22.22,0,0,0,.08-.2v-8.49A.26.26,0,0,0,26.54,108Z"/><path class="cls-5" d="M55.23,101.21a.26.26,0,0,0-.26-.26H51.84a.26.26,0,0,0-.26.26v6.06H46.69v-6.06a.26.26,0,0,0-.26-.26H43.3a.26.26,0,0,0-.26.26v16.4a.26.26,0,0,0,.26.26h3.13a.26.26,0,0,0,.26-.26v-7h4.89v7a.26.26,0,0,0,.26.26H55a.26.26,0,0,0,.26-.26Z"/><ellipse class="cls-5" cx="30.43" cy="103.36" rx="2.02" ry="2.04"/><path class="cls-5" d="M32.23,114.15v-7.57a.26.26,0,0,0-.26-.26H28.85a.3.3,0,0,0-.27.29v10.85c0,.32.2.41.46.41h2.82c.31,0,.38-.15.38-.42Z"/><path class="cls-5" d="M67.14,106.34H64a.26.26,0,0,0-.26.26v8a3.51,3.51,0,0,1-1.91.58c-1.12,0-1.42-.51-1.42-1.61v-7a.26.26,0,0,0-.26-.26H57a.26.26,0,0,0-.26.26v7.54c0,3.26,1.82,4.06,4.32,4.06a7.29,7.29,0,0,0,3.71-1.13,6.59,6.59,0,0,0,.11.67.27.27,0,0,0,.23.14h2a.26.26,0,0,0,.26-.26v-11A.26.26,0,0,0,67.14,106.34Z"/><path class="cls-5" d="M75.64,106a5.85,5.85,0,0,0-3,.79v-5.55a.26.26,0,0,0-.26-.26H69.27a.26.26,0,0,0-.26.26v16.4a.26.26,0,0,0,.26.26h2.18a.26.26,0,0,0,.23-.14,5.11,5.11,0,0,0,.13-.76,5.62,5.62,0,0,0,3.72,1.22c2.86,0,4.49-1.45,4.49-6.5S77.41,106,75.64,106Zm-1.23,9.24a3.73,3.73,0,0,1-1.81-.52V109.5a4.15,4.15,0,0,1,1.61-.52c1.12-.1,2.2.24,2.2,2.91S75.92,115.26,74.42,115.21Z"/><path class="cls-5" d="M41.24,106.32H38.89v-3.11c0-.12-.06-.18-.2-.18h-3.2c-.12,0-.19.05-.19.17v3.21l-1.71.42a.26.26,0,0,0-.19.25v2a.26.26,0,0,0,.26.26h1.64v4.85c0,3.6,2.53,4,4.23,4a7.15,7.15,0,0,0,1.87-.31.24.24,0,0,0,.15-.24v-2.22a.26.26,0,0,0-.26-.26c-.14,0-.49.06-.85.06-1.15,0-1.55-.54-1.55-1.23s0-4.61,0-4.61h2.35a.26.26,0,0,0,.26-.26v-2.53A.26.26,0,0,0,41.24,106.32Z"/></svg>