<svg id="wifi" xmlns="http://www.w3.org/2000/svg" xmlns:xlink="http://www.w3.org/1999/xlink" viewBox="0 0 113.48 164.42"><defs><style>.cls-1{fill:none;}.cls-2{fill:#fff;}.cls-3{clip-path:url(#clip-path);}.cls-4{fill:#333;}</style><clipPath id="clip-path"><rect class="cls-1" x="-30.26" y="82.4" width="170" height="111.44"/></clipPath></defs><title>features</title><g id="_1" data-name="1"><path class="cls-2" d="M56.74,122.6A35.17,35.17,0,0,0,91.92,87.42V37.17a35.17,35.17,0,0,0-70.35,0V87.42A35.17,35.17,0,0,0,56.74,122.6ZM112,97.47H102c-4.58,20.13-23.71,35.17-45.22,35.17s-40.65-15-45.22-35.17h-10c4.44,24.11,25.44,42.76,50.25,45v10.28h-5a5,5,0,0,0,0,10h20.1a5,5,0,1,0,0-10h-5V142.47C86.58,140.24,107.58,121.59,112,97.47Z"/></g><g class="cls-3"><g id="_1-2" data-name="1"><path class="cls-4" d="M56.74,122.6A35.17,35.17,0,0,0,91.92,87.42V37.17a35.17,35.17,0,0,0-70.35,0V87.42A35.17,35.17,0,0,0,56.74,122.6ZM112,97.47H102c-4.58,20.13-23.71,35.17-45.22,35.17s-40.65-15-45.22-35.17h-10c4.44,24.11,25.44,42.76,50.25,45v10.28h-5a5,5,0,0,0,0,10h20.1a5,5,0,1,0,0-10h-5V142.47C86.58,140.24,107.58,121.59,112,97.47Z"/></g></g></svg>